<?xml version="1.0" encoding="utf-8"?>
<!-- Generator: Adobe Illustrator 18.1.1, SVG Export Plug-In . SVG Version: 6.00 Build 0)  -->
<!DOCTYPE svg PUBLIC "-//W3C//DTD SVG 1.1//EN" "http://www.w3.org/Graphics/SVG/1.1/DTD/svg11.dtd">
<svg version="1.1" id="Layer_1" xmlns="http://www.w3.org/2000/svg" xmlns:xlink="http://www.w3.org/1999/xlink" x="0px" y="0px"
	 viewBox="0 0 2000 2000" enable-background="new 0 0 2000 2000" xml:space="preserve">
<rect x="-9.2" y="-15.4" fill="#FFFFFF" width="2013.9" height="2025"/>
<g>
	<g>
		<path d="M729.7,260.8c-36.5-0.2-72.8,3.6-108.9,8.9c-18.7,2.8-37.2,6.7-55.9,8.9c-15.2,1.8-28.2,5.3-41.3,13.5
			c-23.8,14.9-46.9,34.6-59.7,60c-11.9,23.8-16.5,50.5-19.1,76.8c-1.5,15.5-2.4,31-3.5,46.5c-1.3,18.6-2.8,37.3-1.6,56
			c1.1,18.5-3.8,35.7-8.1,53.6c-4,16.9-7.8,33.9-9.9,51.2c-2.3,18.5-1.8,37.1-2,55.7c-0.2,18.9-1,38-0.2,56.9
			c1.5,36.2,13.2,71,22.9,105.7c10.3,36.8,20,73.7,30.6,110.4c10.1,34.9,21.2,69.4,31.1,104.3c9.9,34.9,18.5,70.3,23.5,106.3
			c5.4,38.5,7,77.5,8.1,116.3c0.5,17.8-0.1,35,6.4,51.9c2.5,6.4,5.2,12.8,8.3,19c4,8,9.6,15.1,14.1,22.8c7.5,12.9,18,23.2,29,33.1
			c11.8,10.6,23.3,21.7,35.9,31.4c53.2,41.1,116.6,66.4,180,86.7c34.4,11,69.2,21.4,102.3,36c16.4,7.2,32.5,15.4,48.3,24
			c15.1,8.1,31,15.5,44.4,26.2c12.8,10.2,27.2,18.3,41.1,27c12.3,7.7,25.4,11,39.9,11.3c8.5,0.1,17.1,0.5,25.5-0.2
			c8.7-0.8,17-3.6,25.4-5.8c17.4-4.6,35.1-8.6,52.7-12.4c18-3.8,36.3-5.1,54.5-8.1c15.4-2.5,31.8-5.4,45.1-14
			c26.2-17,42-44.5,59.2-69.7c9.2-13.4,14.1-27.3,18.4-42.9c2.4-8.7,4.7-17.5,7.6-26.1c2.6-7.9,6.5-15.2,9.2-23.1
			c5.7-16.7,5.9-34.9,9.9-51.9c1.8-7.6,5.2-14.6,7.1-22.2c2.4-9.4,3.9-19,5.8-28.5c3.6-17.9,9-35.4,13.6-53.1
			c4.7-17.7,8.4-35.7,13-53.5c9-34.7,21.9-68.4,29.2-103.5c7.4-35.6,9.7-71.5,13.1-107.6c3.4-35.4,2.2-71.3-3.2-106.4
			c-5.3-34.4-19.8-66.4-25-100.8c-1.4-9-1-17.9-2-26.9c-0.8-7.2-3.4-14.1-4.8-21.2c-3.3-17.2-4.2-34.1-9.9-50.9
			c-5.3-15.3-13.1-28.9-20.7-43.1c-3.9-7.3-6.9-15-11.7-21.8c-4.3-6-9.8-11-15.4-15.8c-12.4-10.6-22-22.3-29.7-36.7
			c-7-13.2-12.7-27.1-19.5-40.4c-8.1-15.8-15.8-32.9-19.3-50.4c-3.5-17.4-3.1-35.2-6.2-52.7c-1.7-9.3-4-18.5-5.2-27.9
			c-1-7.9-1.8-15.6-4.4-23.1c-5.4-15.9-9.2-32.2-14.7-48c-5.1-14.9-11.8-29.3-18.8-43.4c-3.7-7.4-7.3-14.8-10.9-22.2
			c-1.8-3.7-3.8-7.1-5.8-10.6c-1.8-3.1-2.9-6.6-5.2-9.3c-3.8-4.5-9.6-6.8-14.7-9.3c-7.2-3.5-13.9-7.6-21.4-10.3
			c-15.5-5.6-32.3-8.4-48.4-11.8c-35.3-7.4-71.4-10.1-107.3-13.7c-37.7-3.8-75.5-8.6-112.9-14.9c-17.9-3-35.6-6.4-53.8-7.4
			c-18.4-1.1-36.9-0.4-55.4-0.5c-18.1,0-36.4-1.6-54.4-0.7c-7.3,0.4-13.6,2.3-20.6,4.7c-9.2,3.1-18.6,5.5-28,8
			c-8.1,2.1-16.2,4.5-24.3,6.5c-7.8,2-16.1,2.8-23.8,5.2c-7.3,2.3-13.8,5.9-21.4,7.3c-8.7,1.6-17.5,2.4-26.4,2.3c-1.9,0-1.9,3,0,3
			c14.6,0.2,29.2-1.7,42.7-7.4c7.6-3.2,15.4-4.2,23.4-6c8.6-2,17-4.4,25.5-6.7c8.5-2.3,17.2-4.4,25.6-6.9c9.2-2.8,17.5-6.5,27.2-7
			c17.1-0.9,34.5,0.7,51.7,0.7c18,0,36.1-0.5,54,0.3c18.8,0.8,37.2,4.1,55.7,7.3c35.4,6,71.2,10.6,106.9,14.4
			c36.5,3.9,73.3,6.2,109.3,13.3c15.6,3.1,31.6,6.1,46.9,10.6c8.5,2.5,16.1,6.2,23.9,10.4c7.1,3.8,15.6,6.3,19.7,13.8
			c15.4,28,31.1,57.6,40.4,88.3c2.2,7.3,3.8,14.8,6,22.1c2.5,8.4,6.1,16.4,8.2,24.9c1.9,8,2.2,16.2,3.6,24.2
			c1.5,8.7,3.7,17.2,5,25.8c2.5,17.1,2.2,34.5,6.3,51.4c3.7,15.4,10.4,30.8,17.6,44.9c12.7,25,22.2,53.7,43.2,73.4
			c5.3,5,11.1,9.3,16.3,14.5c6.6,6.6,10.6,14.3,14.7,22.5c7.4,14.9,16.2,28.6,22,44.3c6.2,16.5,8.2,33.1,10.8,50.4
			c1.1,7.3,3.4,14.2,4.9,21.5c1.7,8.6,1,17.7,2,26.5c4.1,33.3,18.3,64.1,24.2,97.1c6.3,35.1,7.9,71.2,5.2,106.8
			c-1.3,17.9-3.5,35.7-4.8,53.6c-1.3,18.9-4.1,37.4-7.8,56c-6.8,34.3-19.1,67.1-28.1,100.7c-4.5,16.8-8.1,33.8-12.4,50.7
			c-4.5,17.9-9.9,35.5-14.2,53.4c-3.9,16.5-5.5,33.6-11.3,49.5c-5.6,15.4-7,31.9-10.1,48c-3.1,16.6-10.9,31.5-15.7,47.6
			c-4.9,16.7-8.1,34.4-16.9,49.7c-7.6,13.2-16.9,25.7-25.6,38.3c-9.7,14.2-20.9,27.2-35,37.3c-14,10.1-31.3,13.5-48.1,16.2
			c-16.8,2.7-33.8,3.9-50.6,7.2c-17.6,3.6-35.1,7.9-52.6,12.1c-8,1.9-15.8,4.8-24,6.1c-9.1,1.5-18.6,0.9-27.8,0.8
			c-8.3-0.1-16.5-0.6-24.5-3.1c-8.5-2.6-15.6-7.4-23.1-12.1c-6.7-4.2-13.6-8.3-20.3-12.6c-7.1-4.5-13.4-10-20.2-14.9
			c-6.1-4.5-12.9-7.4-19.6-11c-7.9-4.2-15.6-8.8-23.5-13c-15.4-8.2-31.1-16.1-47.1-23c-62.9-27-130.5-40.9-192.5-70.1
			c-29.4-13.8-58-29.6-83.9-49.3c-12.6-9.6-24.1-20.6-35.9-31.1c-12.2-11-23.1-21.9-31.5-36.2c-3.7-6.3-8.3-12.1-11.8-18.6
			c-4.5-8.3-8.4-17.4-11.2-26.4c-5.6-17.4-3.9-36.9-4.4-55c-1.1-35.8-2.9-71.7-7.9-107.2c-9.8-70.3-33.3-137.5-53.1-205.4
			c-10.3-35.2-19.7-70.7-29.5-106.1c-9.8-35.3-22.2-70.8-25-107.6c-1.4-18.3-0.5-36.8-0.3-55.1c0.2-18.3-0.5-36.7,1.1-54.9
			c1.6-18.4,5.3-36.6,9.5-54.6c3.7-15.6,9.7-32.3,9.9-48.4c0.1-7.9-0.9-15.7-0.9-23.6c0-9.4,0.5-18.8,1-28.2
			c1-16.6,2.1-33.1,3.4-49.7c2.2-27.8,5.7-56.3,17.1-82c12.3-27.6,35.9-48.6,61.2-64.4c6.6-4.1,13.7-7.9,21.3-10
			c8.4-2.3,17.2-2.7,25.8-4c17-2.4,33.8-5.8,50.8-8.3c35.4-5.2,71-8.8,106.8-8.6C731.6,263.8,731.6,260.8,729.7,260.8L729.7,260.8z"
			/>
	</g>
</g>
<g>
	<g>
		<path d="M460.2,788.6c-7.4,0.2-14-4.3-21-6.2c-7.9-2.1-15.9-4.4-23.9-6.1c-16.1-3.4-34.2-6.2-50.7-4.5
			c-11.4,1.2-23.2,9.5-28.4,19.7c-3.1,6.1-3,12.9-2.7,19.6c0.5,8.3-0.1,15.5-1.7,23.7c-1.6,8.2-1,16.8-0.9,25.1
			c0.1,8.3-0.4,16.4-0.5,24.7c-0.2,6.9,0,14.2,2.9,20.6c2.6,5.9,7,10.8,11,15.8c5.2,6.7,9.8,13.9,14.9,20.6c4.5,6,9.6,11.1,15,16.2
			c5.8,5.5,11.2,11.5,17.5,16.4c5.7,4.4,12.1,8,16.8,13.6c5.3,6.2,11.6,12.3,13.6,20.5c1.8,7,4.9,14,5.6,21.2c0.6,6.5,0,13,1.5,19.4
			c1.2,4.9,3.5,9.5,6.5,13.5c14.3,18.8,38.9,23.2,57.4,36.3c6.6,4.7,12.6,10.1,19.5,14.3c7,4.3,14.3,7.8,20.8,13
			c3.3,2.7,6.6,5,11.1,4.3c5.6-0.9,11.2-4.9,16-7.9c4.9-3.1,10.1-6.8,13.1-11.9c3.2-5.4,4.5-12,5.1-18.2c0.7-7.2,0.3-14.4,0.1-21.6
			c-0.2-7,0-13.9-1.3-20.8c-1.4-7.6-4.1-14.9-6.6-22.3c-2.2-6.5-4.7-12.8-8.1-18.9c-1.8-3.2-4.3-6.4-5.2-10.1
			c-0.8-3.1-0.6-6.5-1.2-9.7c-0.7-3.7-2.3-7.1-2.7-10.9c-0.4-4.1,0.4-8.3,0.2-12.4c-0.4-7.4-3.4-14.1-6.5-20.7
			c-3.8-8.1-7.5-16.2-11.4-24.2c-3.9-8.2-8.1-16.3-11.2-24.9c-2.6-7.3-4.3-15-7.6-22.1c-2.9-6.3-8.3-12.3-8.1-19.7
			c0.1-1.9-2.9-1.9-3,0c-0.1,5.7,2.7,10.6,5.4,15.4c3.8,6.7,6,13.8,8.3,21.1c4.9,15,12.3,28.9,19,43.2c3.5,7.5,7.6,15.1,10.2,23
			c2.6,7.8,0.6,15.2,1.8,23.1c0.4,2.8,1.5,5.5,2.2,8.3c0.8,3.1,0.7,6.2,1.2,9.4c0.9,6.1,5.3,11.2,8,16.6c3.4,6.6,5.5,13.7,7.9,20.7
			c2.4,7.2,4.6,14.5,5.2,22.1c0.5,6.6,0.4,13.4,0.5,20.1c0.2,7.3,0.3,14.7-1.3,21.8c-1.6,7.4-5,13.1-11,17.7
			c-5,3.9-11.6,8.3-17.7,10.2c-6.5,2-10.4-3.2-15.2-6.6c-6.2-4.4-13.2-7.3-19.5-11.6c-6.2-4.2-11.8-9.2-18-13.4
			c-5-3.4-10.4-6-15.8-8.5c-9.6-4.5-19.3-9-27.9-15.2c-9.4-6.8-16.9-15.9-18.2-27.8c-0.6-6-0.1-12.1-1.1-18.1
			c-0.6-3.5-2.1-6.5-3.2-9.8c-1.1-3.1-1.5-6.4-2.4-9.6c-1.7-6.1-5.8-10.5-9.9-15.2c-4.3-5.1-8.3-9.6-13.7-13.5
			c-12.1-8.7-23.5-19.1-33.5-30.2c-5.3-5.8-9.6-12.4-14.1-18.8c-4.1-5.8-8.6-11.1-12.8-16.8c-9.7-13.2-6.6-28.4-6.5-43.6
			c0-8.6-0.5-17.2-0.1-25.8c0.4-7.4,3.1-14.5,3.1-21.9c0-7.4-1.6-15.1,0.1-22.4c1.7-7.1,7.1-12.8,12.9-16.9
			c13.4-9.4,31.5-6.5,46.7-4.5c15.2,2,31.4,4.9,45.8,10.3c5.8,2.1,11.4,5.2,17.7,5C462.1,791.6,462.2,788.6,460.2,788.6L460.2,788.6
			z"/>
	</g>
</g>
<g>
	<g>
		<path d="M446.3,877.5c-5,0.1-10.1,0.9-15.1,0.5c-5.4-0.4-9.3-3.4-13.7-6.2c-7.8-5-16.7-7.8-24.4-13.2c-12.6-8.9-29.8-23-29.9-40
			c-0.6,0.5-1.3,1-1.9,1.4c17.5,4.4,19.8,24,22.4,39c1.8,10.1,2.9,20.1,2.7,30.3c-0.2,8.9-0.8,18.1,2.4,26.6
			c2.7,7.2,9.1,11.8,12.4,18.6c1.5,3,2.5,6.1,4.6,8.7c2.8,3.5,6.5,6.3,9.3,9.9c3.2,4.1,3.7,8.4,4.8,13.3c1.2,4.9,3.3,9.6,5.2,14.2
			c3.8,9.2,6.5,18.4,8.8,28.2c1.8,7.9,3.3,17.4,9.3,23.3c3,3,7.1,4.6,10.2,7.5c3.2,2.9,5.7,6.6,8.5,9.9c1.3,1.5,3.4-0.7,2.1-2.1
			c-2.4-2.8-4.6-5.8-7.1-8.5c-2.7-2.8-5.8-4.5-8.9-6.6c-8-5.5-9.5-16.4-11.5-25.2c-2.3-10-5.3-19.4-9.2-28.9
			c-1.8-4.3-3.7-8.8-4.6-13.4c-0.9-4.4-1.5-8.3-4.2-12.1c-2.1-3-4.8-5.5-7.4-8.1c-3.5-3.5-5.2-7.1-7.4-11.5c-3.9-8-11.2-13-13.3-22
			c-2.2-9.4-0.7-19.3-1-28.9c-0.3-9.9-2-19.7-3.8-29.4c-2.8-14.9-6.8-31.4-23.5-35.7c-0.9-0.2-1.9,0.5-1.9,1.4
			c0.1,17.4,16.4,31.6,29.3,41.1c8.5,6.3,18.4,9.5,27.1,15.2c4,2.6,7.8,5.2,12.6,6c5.6,0.9,11.4-0.2,17.1-0.3
			C448.3,880.5,448.3,877.5,446.3,877.5L446.3,877.5z"/>
	</g>
</g>
<g>
	<g>
		<path d="M532.4,1002.5c-5.9,0.4-11.2-2.9-16-6c-4-2.6-8.1-5.1-11.9-7.8c-10.5-7.5-19.2-18.3-23.8-30.4
			c-8.4-22.4-5.2-47.5-5.2-70.9c0-1.9-3-1.9-3,0c-0.1,25.2-3.7,52.8,7.3,76.5c5.2,11.1,13.8,20.9,23.8,27.9
			c7.9,5.6,18.5,14.6,28.7,13.8C534.4,1005.4,534.4,1002.4,532.4,1002.5L532.4,1002.5z"/>
	</g>
</g>
<g>
	<g>
		<path d="M616.5,705.3c16.9-11.6,33.8-23.2,50.5-35.2c8.3-6,16.6-12.1,24.8-18.2c7.5-5.7,14.7-11.8,23-16.3
			c4.1-2.3,8.4-3.9,12.7-5.8c3.6-1.5,7.1-3.8,11-4.5c6.7-1.2,11.2,5.6,14.3,10.5c3.3,5.3,5.9,11,8.6,16.7c2.1,4.4,4.3,9.4,8.3,12.5
			c4.8,3.7,11,2.3,16.4,0.8c8.5-2.4,16.6-6.2,24.5-10.1c8.8-4.4,17.5-8.7,26.7-12.4c9.5-3.9,19.7-8.2,29.5-2.5
			c4.7,2.7,7.5,6.6,10.7,10.8c1.9,2.6,4.5,7.2,7.3,8.6c2.7,1.4,8.1-0.3,11.1-0.2c4.7,0.2,9.2,2,12.7,5.1
			c12.5,10.8,23.1,25.7,38.4,32.9c12.3,5.8,18.8-6.2,18.1-17.3c-0.8-11.2-10.5-24.2-21.9-26.6c-11.5-2.5-18.3,12.1-22.5,20.3
			c-5.6,11-10.4,23.2-19.1,32.3c-5.1,5.3-12.1,7.7-18.5,3.2c-5.4-3.8-9.5-9.7-13.1-15.2c-7.4-11.1-13.6-23.2-20-34.9
			c-4.6-8.5-8.6-18.2-14.6-25.9c-2.8-3.6-6.3-5.4-10.6-3.6c-6.8,2.8-12.9,9.4-17.8,14.7c-6.3,6.8-12,14.3-17.6,21.8
			c-3.8,5-7.3,12.6-13.6,14.9c-9,3.2-17.3-6.8-23.2-12.1c-4.9-4.4-10.5-7.3-17.2-6.8c-7.3,0.6-13.6,4.3-20.1,7.2
			c-10,4.6-18.9,0-28.9-2.2c-7.9-1.7-16-1.1-23.7,1.4c-16,5.3-31,16.2-44.2,26.5c-7.3,5.7-14.1,11.9-20.5,18.6
			c-1.3,1.4,0.8,3.5,2.1,2.1c12.7-13.4,27.3-24.4,43-34c7.6-4.7,15.4-9.2,24.2-11.4c9.9-2.4,18.6-0.2,28.1,2.4
			c6.9,1.9,13.2,2.6,19.9-0.2c7.5-3.2,15.1-8.4,23.6-7.4c13.8,1.5,21.7,23.5,37.1,18.9c5.2-1.6,8.7-6.2,11.7-10.5
			c4.6-6.5,9.5-12.9,14.5-19.1c5.8-7.1,12.1-14.1,19.5-19.5c2.9-2.1,6.3-4.5,9.5-1.8c3.6,3,5.7,8.5,7.9,12.4
			c7.2,13,14.1,26.1,21.5,38.9c5.5,9.6,11.9,21.7,21.6,27.7c21.3,13.3,35.5-26.8,42.5-39.9c2.8-5.2,6.1-12,11.4-15
			c6.9-4,14.7,3,19,7.8c5.5,6.1,8.2,13.7,6.3,22c-0.8,3.6-2.6,7.8-6.5,8.7c-4.3,1-8.8-2.2-12.1-4.4c-7.4-4.9-13.7-11.3-20.1-17.5
			c-2.9-2.9-6.1-5.6-9-8.4c-2.6-2.5-4.8-4.9-8.1-6.6c-2.2-1.2-4.7-1.9-7.2-2.3c-4.3-0.6-10.4,1.5-13.8-1.4c-3.3-2.7-5.4-7-8.1-10.3
			c-2.3-3-5.2-5.5-8.5-7.4c-14.1-8.1-31.2,1.4-44.2,7.5c-8.2,3.9-16.1,8.3-24.4,12c-6.7,3-18.2,8.9-25.7,6.2c-5.4-1.9-8-9-10.4-13.8
			c-2.6-5.3-5.1-10.7-8.2-15.7c-2.5-4-5.5-8.3-9.7-10.7c-4.7-2.7-9.4-1.1-14,0.9c-7.4,3.3-15,6.2-21.9,10.4
			c-8,4.9-15.2,11.1-22.6,16.7c-15.9,11.9-32.1,23.5-48.4,34.8c-7.9,5.5-15.8,10.9-23.7,16.3C613.4,703.8,614.9,706.4,616.5,705.3
			L616.5,705.3z"/>
	</g>
</g>
<g>
	<g>
		<path d="M679.7,794.4c19.3-1.6,36.2-12.7,54.9-16.8c20.6-4.5,41.7-6.3,62.5-9.5c10.5-1.6,20.9-3.9,31.4-5.6
			c10.2-1.7,20.6-2.6,30.7-4.5c10.6-2,20.8-5.9,31.1-9c7.6-2.3,17.4-6.9,23.9,0c2.8,2.9,4.6,6.7,6.8,10c3,4.7,6.4,9,9.3,13.7
			c1.9,3.1,3.7,5.8,6.5,8.3c3.6,3.1,7.2,6,9.8,10.2c4.9,8.2,4.9,20.5-1.6,28c-4.7,5.4-12.8,8-19.4,10.2c-17.2,5.6-34.9,7.4-52.8,9.8
			c-22.2,3-44.5,7.5-66.5,11.7c-22.1,4.3-43.6,1.4-62.5-11.5c-4.5-3.1-8.2-6.7-12-10.6c-3.2-3.3-6.8-4.9-11-6.4
			c-11.1-4.1-20.6-14-28.9-22.3c-1.4-1.4-3.5,0.7-2.1,2.1c7.2,7.3,15.3,15.4,24.3,20.6c3.9,2.3,8.6,2.8,12.4,5.3
			c4.6,3.1,7.9,8,12.4,11.4c14.8,11.3,33.6,17.5,52.2,16.6c10.6-0.5,21.1-3.3,31.5-5.2c12.2-2.2,24.5-4.2,36.7-6.5
			c20.4-3.7,41-4.9,61.1-10.4c7.3-2,14.8-4.4,21.2-8.4c6.2-3.8,9.6-9.4,11-16.6c1.6-7.9-0.4-15.9-5.3-22.3c-2.6-3.4-6.1-5.8-9.2-8.7
			c-4-3.8-6.5-9.3-9.7-13.8c-4.4-6.3-8-15.1-14.4-19.7c-5.7-4.1-12.6-1.9-18.8-0.2c-11.4,3.2-22.6,7.6-34.2,10.1
			c-11,2.3-22.2,3.2-33.3,5c-13,2.1-25.9,4.8-38.9,6.7c-12.8,1.8-25.5,3.4-38.3,5.4c-11.8,1.8-23.6,4-34.8,8.4
			c-11.8,4.6-23.2,10.2-36,11.3C677.8,791.6,677.7,794.6,679.7,794.4L679.7,794.4z"/>
	</g>
</g>
<g>
	<g>
		<path d="M1103.9,649.9c-3.6,2.4-5.2,5.7-6.5,9.7c-1.9,6.4-4.6,11.7-7.6,17.6c-5.7,11.5-7.6,25.2-6.8,38c0.8,13.1,7.6,24.1,11,36.5
			c1.7,6.3,3.3,12.7,5.5,18.9c1.8,5.3,3.9,11.7,7.7,15.9c2.7,3,6.4,4.1,9.9,5.8c5.1,2.6,9,6.9,12.5,11.3c3.8,4.7,7.4,9.8,9.5,15.5
			c2.5,6.7,2.9,13.8,2.9,20.9c0.1,7.1-0.1,14.3-0.1,21.4c0,6.7-0.6,13.7,1.4,20.2c3,9.8,10.5,19.4,18.3,25.8
			c15,12.4,37.3,16.9,46.7,35.3c3.3,6.4,6.7,12.9,9.2,19.6c2.5,6.9,3,13.7,2.8,21c-0.2,6.4-0.2,12.6-0.2,19c0.1,8-1.9,13.9-6.4,20.4
			c-7.7,11.2-17.4,21-26,31.5c-4.1,5-8.5,10.1-14.1,13.4c-6.2,3.6-13.2,4.3-20.2,4.1c-11.2-0.2-21.6-1.7-32.2,2.9
			c-5.4,2.3-11,5.6-17,5.9c-7.5,0.4-12.2-4.6-16-10.3c-6.5-9.7-11.7-18.5-22.8-23.6c-11.8-5.4-25.5-9.3-38.4-11
			c-12.2-1.6-27-0.2-37,7.8c-3.9,3.1-7.5,7.2-11,10.8c-3,3-5.9,6.3-6.2,10.6c-0.1,1.9,2.9,1.9,3,0c0.3-5,5.7-8.9,9.1-12
			c4.4-4.2,7.8-8.3,13.6-10.7c13.1-5.3,26.4-4.6,39.9-1.2c11.1,2.8,24.2,5.9,33.4,13c8.6,6.6,11.5,17.2,19.1,24.5
			c7.3,7,16.5,5.6,25.1,1.9c5.5-2.4,10.8-5.3,16.9-5.9c6.3-0.6,12.7,0.1,19,0.3c10.9,0.4,20.6-1.4,29-8.8c4.6-4,8.3-8.7,12-13.5
			c4.2-5.3,8.7-10.2,13.2-15.3c7.5-8.6,16.2-18.2,17-30.2c0.4-5.9-0.2-11.9,0-17.9c0.2-6.2,0.8-12.5-0.2-18.6
			c-0.8-5.3-2.8-10.3-5-15.2c-2.6-5.9-5.3-12.1-8.8-17.6c-4.9-7.7-12.5-13-20.3-17.5c-8.8-5.1-18.2-9.3-26-15.9
			c-9-7.7-17.1-19.1-17.8-31.2c-0.8-14.4,1.1-29-0.4-43.4c-1.2-11-5.9-20-12.8-28.4c-3.3-4.1-6.9-8.2-11.5-10.9
			c-5.2-3-9.9-3.9-13.1-9.5c-7.7-13.8-9.5-30.3-15.5-44.8c-2.9-6.9-5.1-13.6-5.6-21.1c-0.5-8.2,0.2-16.5,2.1-24.4
			c2-8.1,6.2-14.6,9.5-22.1c2.4-5.5,2.3-12.7,7.7-16.3C1107,651.5,1105.5,648.9,1103.9,649.9L1103.9,649.9z"/>
	</g>
</g>
<g>
	<g>
		<path d="M1172.4,699.5c4.7-5.5,8.4-12,13.6-17.2c5.5-5.5,12.8-7.9,20.3-9.4c17.6-3.4,36.9-0.1,54.6,1.1c8.7,0.6,17.4,1.1,26.1,0.7
			c3.9-0.2,6.1,0.5,8.7,3.6c2.8,3.4,5.1,7.2,7.3,10.9c8.7,14.9,18.7,31,21.7,48.1c1.5,8.4,2.4,18.9,0.8,27.3
			c-1.4,7.8-8.1,10.2-14.6,13.2c-8.7,4-17.9,6.9-27.5,7.7c-8.7,0.8-17.6,0.2-26.3-0.1c-17.7-0.7-34.9-1-52.1,3.6
			c-8.5,2.2-16.8,4.9-25.4,6.5c-7.7,1.4-18.3,3.8-23-4.3c-3.2-5.5-3.6-12.4-4.8-18.5c-2-10.4-5.1-20.5-7.8-30.7
			c-2.4-8.7-3.6-20.3-0.4-29c2.9-7.9,9.9-12.9,17.4-16.2c1.8-0.8,0.2-3.4-1.5-2.6c-6.1,2.7-11.9,6.4-15.7,12
			c-4.6,6.7-5,14.6-4.7,22.4c0.4,10,3.7,19.3,6.3,28.9c2.2,8.5,3.6,17.1,5.5,25.7c1.2,5.3,3,11.5,7.9,14.6
			c6.1,3.9,15.1,1.8,21.7,0.6c10.1-1.9,19.8-5.3,29.8-7.6c10.6-2.5,21.3-3.1,32.1-2.9c20.1,0.4,40.4,3.2,59.8-3.4
			c7-2.4,15.7-5.3,21.5-10.2c5.3-4.5,5.5-12.1,5.4-18.5c-0.1-9.5-0.7-18.9-3.6-28c-3-9.5-7.7-18.1-12.4-26.8
			c-4.6-8.3-8.8-17.1-14.7-24.5c-4.3-5.3-8-4.9-14.3-4.8c-23.9,0.5-47.9-4.7-71.8-2.8c-8.1,0.6-17.3,2.7-24,7.5
			c-7.5,5.4-11.9,13.8-17.7,20.7C1169,698.8,1171.1,701,1172.4,699.5L1172.4,699.5z"/>
	</g>
</g>
<g>
	<g>
		<path d="M1100.6,668.3c3.5-8.3,6.3-16.9,7.8-25.8c1.4-8.5,1.3-17.5,4.2-25.7c1.3-3.6,3.3-8.2,6.8-10c3.3-1.7,7-0.3,10,1.4
			c5.8,3.2,10.1,8.3,16.3,10.7c14.8,5.7,29.1-4.5,43.7-5c8.2-0.3,16.1-2.2,24.1-3.8c9.4-1.9,18.7-2.3,28.3-2.1
			c5.5,0.1,10.7,0.4,16,1.9c4.7,1.4,9.1,3.3,13.8,4.7c3.7,1.1,7.5,1.6,11.3,1.8c5.5,0.4,10.4,2.1,15.8,3c1.9,0.3,2.7-2.6,0.8-2.9
			c-3.9-0.7-7.6-2.2-11.6-2.7c-4.6-0.6-9.3-0.4-13.8-1.6c-8.5-2.1-16.2-6.2-25.1-6.9c-9-0.7-18.5-0.7-27.5,0.5
			c-10.2,1.3-20.1,4.6-30.3,5.1c-3.8,0.2-7.5,0.3-11.2,1.3c-4.5,1.1-8.8,2.9-13.3,3.9c-8.7,2.1-17.2,2.6-24.9-2.5
			c-8.2-5.4-19.5-16.9-28.2-5.4c-5.6,7.4-6.3,17.4-7.3,26.3c-1.3,11.5-4.2,22.4-8.7,33.1C1096.9,669.3,1099.8,670,1100.6,668.3
			L1100.6,668.3z"/>
	</g>
</g>
<g>
	<g>
		<path d="M1081.2,679c0.7-6.2,3.9-11.7,5.8-17.6c1.7-5.5,3.5-10.8,5.7-16.1c2.3-5.6,4-11.4,5.6-17.2c1.6-5.7,1.7-11.6,2.7-17.4
			c-0.8,0.2-1.7,0.4-2.5,0.7c5.8,5.8,6.5,17.4,7.1,25.2c0.4,5.8-0.9,15.1,5.3,18.4c0.7,0.3,1.3,0.2,1.8-0.2
			c22.7-17.7,22.6-50.4,43.5-69.3c-0.6,0.1-1.2,0.2-1.8,0.2c13.2,7.9,17,22,22,35.6c3,8.3,8.4,25.8,19.9,25.4
			c3.7-0.1,6.6-3.6,10.4-3.5c4.4,0.2,7.6,3.8,10.5,6.6c4,3.8,8.4,7.6,14.3,6.5c5.8-1.1,10.2-6.1,14-10.1c4.2-4.4,8.1-8.8,12-13.4
			c4.1-4.8,9-11,15.4-12.8c2.8-0.8,4.7-0.3,6.7,1.5c0.9,0.8,1.4,1.7,2.7,1.8c3.3,0.2,6.3-5.7,7.4-8c2.3-4.9,2.8-10.7,5.8-15.3
			c5.3-8,14.6,1.1,18.8,5.7c2.1,2.3,4.1,4.6,6.2,6.9c1.9,2,5.1,5.3,2.2,8.1c-1.3,1.3-3.4,1.6-5.2,1.7c-5.9,0.5-11.9-0.5-17.8-0.5
			c-9.9,0-19.8,0-29.7,0c-10.9,0-21.8,0.1-32.7,0c-10.6-0.1-20.7,1-31.2,2.1c-11.3,1.2-21.8-0.5-32.8-3c-4.4-1-8.9-2.2-13.3-2.8
			c-4.6-0.6-9,0.8-13.6,0.9c-1.9,0-1.9,3,0,3c4-0.1,8-1.4,12-1.1c5.4,0.4,10.9,2.1,16.1,3.3c9.4,2.1,18.6,3.7,28.2,3
			c9.7-0.7,19.1-2.5,28.8-2.4c10.6,0.1,21.1,0.1,31.7,0.1c10.6,0,21.1-0.1,31.7-0.1c7,0,14.1,0.8,21,0.6c4.2-0.1,9.6-0.9,10.9-5.6
			c1.6-5.6-4.6-9.9-7.8-13.5c-5.7-6.5-18.5-19.7-26-7.9c-3.1,4.9-3.5,11-6.2,16.1c-0.7,1.4-1.8,3.3-3,4.3c-1.4,1.2-0.7,1-2,0.5
			c-1.6-0.7-2.4-2.2-4.4-2.6c-11.1-2.2-20.7,12.5-26.7,19.6c-4.4,5.2-9.3,11.1-15,14.9c-9.1,6.2-14.5-2.9-21.1-7.9
			c-2.3-1.7-4.9-2.9-7.9-3.1c-5.1-0.4-8.8,4.8-13.8,2.4c-4.4-2.1-6.3-6-8.4-10.1c-2-3.9-3.8-7.9-5.3-12.1
			c-5.2-14.4-9.4-29-23.4-37.4c-0.6-0.4-1.3-0.2-1.8,0.2c-20.9,19-20.9,51.7-43.5,69.3c0.6-0.1,1.2-0.2,1.8-0.2
			c-3.9-2.1-3.5-8.4-3.6-12.2c-0.1-3.2-0.4-6.2-0.9-9.4c-1-7.2-1.9-16.2-7.3-21.5c-0.7-0.7-2.3-0.5-2.5,0.7
			c-1,5.8-1.1,11.7-2.7,17.4c-1.8,6.4-3.8,12.6-6.3,18.8c-2.2,5.3-3.7,10.8-5.6,16.2c-2,5.6-4.7,10.8-5.4,16.8
			C1077.9,680.9,1080.9,680.9,1081.2,679L1081.2,679z"/>
	</g>
</g>
<g>
	<g>
		<path d="M1147.8,1071.4c3,4.7,2,9.3,3.2,14.4c1.1,4.4,4.2,7.2,7.8,9.8c3.8,2.7,7.5,4.5,12.2,4.4c2.5-0.1,8-1.6,9.4,1.3
			c1,2.3-2.3,8.9-3.2,10.6c-2.2,4.2-5,8.1-7.8,11.9c-1.9,2.5-4.4,5.3-5.1,8.6c-1.1,5.6,4.5,6.5,8.8,6.1c7.3-0.7,14.3-4.4,21.6-2.8
			c3.9,0.9,7.4,1.6,11.4,0.8c6.1-1.2,11.5-4.4,17.3-6.2c5.5-1.7,8.4,0.1,13.2,2.7c2.6,1.4,4.8,2.6,7.8,2.9c12.7,1.2,25.5-1.2,38.3,1
			c12.9,2.3,22.6,11.2,34.9,14.7c11.9,3.4,25.3-3.1,36.3,3.6c1.7,1,3.2-1.6,1.5-2.6c-6.9-4.2-14.7-3.6-22.6-3.1
			c-9.7,0.6-17.2-1.2-25.8-5.8c-8.2-4.4-16-8.5-25.3-10c-9.2-1.4-18.5-0.9-27.7-0.7c-3.7,0.1-8.1,0.6-11.7-0.5
			c-3.6-1.2-6.7-3.7-10.2-5.2c-6-2.5-12.5,1.2-18,3.5c-4,1.6-8.2,3.3-12.6,3.2c-3.6-0.1-6.9-1.8-10.5-1.9
			c-5.2-0.1-10.5,2.2-15.6,3.1c-3.6,0.6-9.7,1.6-7.3-4c1.1-2.7,3.4-4.9,5.1-7.2c5.4-7.4,10.1-14.9,10.4-24.3c0-0.5-0.3-1.1-0.7-1.3
			c-3.4-1.7-6.3-1.7-10.1-1.5c-5.8,0.3-10.1-1.8-14.4-5.5c-6.7-5.8-3.3-14.5-7.9-21.5C1149.4,1068.3,1146.8,1069.8,1147.8,1071.4
			L1147.8,1071.4z"/>
	</g>
</g>
<g>
	<g>
		<path d="M971.3,1299.7c-3.9-0.3-9.4-2-11.4-5.6c-0.2,0.7-0.4,1.4-0.5,2.1c11.6-5.4,25.3,0.7,37.4-3.3c11.8-4,20.6-13.2,29.7-21.2
			c12.1-10.5,26-14.6,41.1-18.8c15.2-4.2,30.3-8.1,46-3.7c6.6,1.9,10.7,5.9,15.9,9.9c4.1,3.1,8.7,5.4,13.9,5
			c9.8-0.7,16.7-9.6,23.7-15.3c4.9-4,10.5-7.3,16.1-10.1c6.5-3.2,12.9-3.8,20.1-3.5c13.8,0.6,28.3,0.1,41.7,4
			c7.4,2.2,14.7,5.5,21.4,9.3c6.3,3.6,11.3,8.5,16.8,13.2c4.5,3.9,9.3,6.6,14.8,8.8c3.7,1.5,5.6,3.1,3.1,7c-2,3.1-4.7,5.9-6.9,8.8
			c-8.5,10.9-11.6,24.4-14.9,37.6c-1.8,7.2-3.3,15.1-7,21.6c-3.3,5.8-9.7,8.7-15.1,12.3c-6.2,4.2-12.9,7.4-19.4,11.1
			c-5.4,3-9.3,7.5-14,11.5c-12.2,10.2-28.6,14.9-43,20.7c-13,5.3-24.3,12.5-38.8,12.6c-8.1,0-16.2,0-24.3-0.1c-7-0.1-14-1-20.3-4.3
			c-5.9-3.1-11.6-7.4-17.2-11c-6.5-4.1-11.9-9.8-18-14.4c-5.8-4.5-12.1-8.2-18.3-12c-6.3-3.9-12-8.5-17.9-13
			c-11.3-8.5-24.3-14.2-37-20.2c-12.8-6.1-25.5-12.8-39.3-16.6c-6.5-1.8-13.2-2.8-20-2.9c-1.9-0.1-1.9,2.9,0,3
			c16.7,0.4,31.8,6.7,46.6,13.8c13.4,6.4,27.3,12.2,39.9,20c6.4,4,12,9,18.2,13.3c6.3,4.5,13.2,8.2,19.7,12.5
			c7.2,4.8,13.4,10.7,20.2,16c5.6,4.3,11.9,7.7,17.8,11.7c11.6,7.9,24.9,7,38.3,7.1c7.6,0,15.4,0.6,22.9-1
			c6.4-1.4,12.3-4.1,18.2-6.9c14.1-6.7,29-11.2,42.8-18.7c6.1-3.3,11.3-6.9,16.3-11.6c5.8-5.5,12.7-8.7,19.6-12.5
			c6.1-3.4,12.2-7.2,17.8-11.3c4.7-3.4,7.3-7.4,9.3-12.8c5.8-15.2,6.7-32.6,14.8-46.9c3.3-5.8,8.1-10.4,11.8-15.9
			c1.8-2.7,3.2-5.9,0.6-8.5c-1.3-1.3-3.2-1.9-4.8-2.6c-3.7-1.5-7.2-3-10.4-5.3c-5.7-4.1-10.3-9.5-16.1-13.5
			c-11.4-7.8-25.4-13.5-39.2-15.2c-6.9-0.9-13.9-0.6-20.9-1c-6.9-0.4-13.9-1.3-20.7-0.3c-11.2,1.6-22.2,9.7-30.5,17.1
			c-4.5,4-9,8.8-14.8,10.8c-7.5,2.6-13.6-1.8-19-6.5c-10.1-8.7-23.3-10.8-36.3-9.5c-7.3,0.8-14.3,2.6-21.4,4.6
			c-7.7,2.1-15.4,4-22.9,6.7c-13.6,5-22.8,14.1-33.6,23.2c-5.4,4.6-11.6,9-18.4,11.2c-6.3,2-13.1,1.3-19.6,1
			c-6.2-0.3-12.2-0.2-17.9,2.4c-0.7,0.3-0.9,1.4-0.5,2.1c2.6,4.7,9,6.7,14,7.1C973.3,1302.9,973.2,1299.9,971.3,1299.7L971.3,1299.7
			z"/>
	</g>
</g>
<g>
	<g>
		<path d="M999.1,1327.7c16.3,0,32.5-1.3,48.5-4.4c16.5-3.1,32.6-8.5,48.8-13.1c7.7-2.2,15-5.4,22.6-7.7c8.5-2.7,17.1-3.3,26-3.2
			c16.3,0.3,32.5,2.3,48.6-1c9.3-1.9,18.1-4,27.7-4c10.2,0,20.3,0,30.5,0c1.9,0,1.9-3,0-3c-16.4,0-33.5-1.4-49.7,2
			c-8.4,1.8-16.6,3.7-25.2,3.9c-8.5,0.3-16.9-0.4-25.4-0.7c-7.6-0.3-15.2-0.5-22.8,0.5c-8.2,1.2-15.8,4.3-23.6,7.1
			c-7.9,2.9-16,4.7-24,7c-8.2,2.3-16.1,5.1-24.4,7c-18.9,4.5-38.3,6.4-57.8,6.4C997.2,1324.7,997.2,1327.7,999.1,1327.7
			L999.1,1327.7z"/>
	</g>
</g>
<g>
	<g>
		<path d="M1264.3,1306.8c-0.1,7.8-0.9,16.1-6.2,22.3c-5.4,6.3-13.9,9.3-21.7,11.6c-7.4,2.2-15.2,4.2-22.8,5.4
			c-9.1,1.5-18.5,1.4-27.7,2.3c-9.1,0.9-18,1.9-27.2,1.8c-9.4-0.2-18.8-0.4-28.2-0.4c-19.5,0-39,0-58.4,0c-22.4,0-44.9,0-67.3,0
			c-1.9,0-1.9,3,0,3c42.6,0,85.2,0,127.8,0c10,0,20,0.4,30,0.4c9.8,0,19.3-1.6,29-2.2c17.4-1.1,34.5-3.2,51-9.1
			c7.3-2.6,14.7-6.2,19.3-12.6c4.7-6.5,5.4-14.6,5.6-22.4C1267.3,1304.8,1264.3,1304.8,1264.3,1306.8L1264.3,1306.8z"/>
	</g>
</g>
<g>
	<g>
		<path d="M492.1,1120.7c0,48-1.1,96.5,8.4,143.8c2,9.7,6.2,18.3,10.4,27.2c4.9,10.3,7.9,20.5,9.1,31.9c1.1,11.2,1,22.6,0.7,33.9
			c-0.3,11.1-0.5,22.3-2,33.3c-1.5,10.9-3.7,21.6-4.3,32.6c-0.6,12.3-0.1,24.8-0.1,37.1c0,23.3-0.8,46.7,0.4,70
			c0.3,5.4,0.6,10.9-0.6,16.2c-1,4.7-3.2,9.1-4.4,13.7c-1.2,4.6-0.9,9.3-0.9,14c0,6.2,0,12.4,0,18.5c0,9.9-1.1,19.5,2.8,28.8
			c2.4,5.7,3.1,10,3.1,16.2c0,5.5,1.9,10.5,2.4,15.9c0.6,6.2-0.1,12.4-0.2,18.6c-0.2,6.5,0.6,12.7,1.6,19.1
			c2.1,13.7,1.7,27.6,1.5,41.4c-0.2,12.1,1.9,25.9-2.9,37.3c-2.6,6-7.4,10.2-10.9,15.5c-3,4.6-4.2,10.3-8,14.4
			c-1.3,1.4,0.8,3.5,2.1,2.1c2.7-2.9,4.2-6.4,5.9-10c2.3-5,5.8-8.8,9.1-13.2c6.4-8.3,7.8-18,7.8-28.2c0-11.7,0.2-23.5,0.1-35.2
			c0-5.7-0.2-11.4-0.8-17.1c-0.6-6.3-2.1-12.4-2.4-18.7c-0.5-10.9,1.4-21.8-1-32.6c-1.2-5.5-0.8-10.6-1.2-16.1
			c-0.4-4.9-3-8.9-4.5-13.5c-1.9-5.4-1.6-11.1-1.5-16.7c0.2-6.3,0.1-12.6,0.1-18.9c0-5.6-0.5-11.4,0.1-17c0.5-5.1,2.8-9.7,4.3-14.6
			c3-9.8,1.2-20,1.1-30c-0.1-12.2,0-24.5,0-36.7c0-12.4,0-24.8,0-37.2c0-12.6-0.2-24.9,1.6-37.4c1.6-11,3.7-21.8,4.1-32.9
			c0.4-11.1,0.9-22.2,0.9-33.3c0-10.3-0.6-20.8-2.5-30.9c-1.9-9.9-6.4-18.8-10.7-27.8c-5.8-12.2-8.3-24.6-10.3-37.9
			c-2.1-14-3.3-28-4.1-42.1c-1.5-27.8-1.2-55.7-1.2-83.6C495.1,1118.7,492.1,1118.7,492.1,1120.7L492.1,1120.7z"/>
	</g>
</g>
<g>
	<g>
		<path d="M508.9,1600.5c-3.3,5.3-7.5,9.7-11.5,14.4c-3.2,3.7-5.8,8.5-9.8,11.4c-3.8,2.8-8.7,4.4-13,6.3c-5.2,2.3-10.4,4.5-15.3,7.4
			c-19,11-29.4,32.2-39.4,50.8c-10.9,20.3-32.6,28.8-53.5,35.2c-10.2,3.1-20.5,6.2-29.9,11.3c-5.7,3-11.1,6-17.2,8.2
			c-6.2,2.3-12.5,4.1-18.7,6.3c-12.6,4.6-23.7,11.8-35.2,18.5c-5.8,3.4-11.9,6.1-17.8,9.2c-5.9,3.2-11.1,8.4-18.1,9
			c-1.9,0.2-1.9,3.2,0,3c4.7-0.5,8.4-2.3,12.3-4.9c5.2-3.5,10.6-6.3,16.2-9.1c11.6-5.8,22.1-13.4,33.9-19c11.3-5.4,23.7-8,35.1-13.1
			c5.3-2.3,10.1-5.5,15.4-8c5.9-2.8,12.1-4.8,18.4-6.8c20.1-6.3,42.3-12.6,56-29.8c6.6-8.3,10.5-18.6,16-27.6
			c6.3-10.4,13.8-21.3,23.9-28.3c5.3-3.7,11.3-6.4,17.2-9c5.4-2.4,11.5-4.3,16.1-8c3.8-3,6.4-7.5,9.5-11.2c4.2-4.9,8.5-9.5,12-15
			C512.5,1600.3,510,1598.8,508.9,1600.5L508.9,1600.5z"/>
	</g>
</g>
<g>
	<g>
		<path d="M1350.4,1542.9c0.9,11.1-5.4,21.3-5.6,32.5c-0.2,13,1,26.4-0.9,39.3c-1.7,11.7-5.8,23-8.1,34.6
			c-2.5,12.2-6.1,24.1-9.1,36.1c-6.1,24.1-12.1,48.1-19.6,71.8c-7.5,23.7-15.2,47.5-19.1,72.1c-2.1,13-5,26-6.5,39.1
			c-1.6,14.4-0.5,29.4-0.5,43.9c0,1.9,3,1.9,3,0c0-12.7-0.5-25.6,0-38.4c0.5-12.4,4.2-24.4,5.8-36.7c3.4-25.3,10.7-49.6,18.4-73.9
			c7.5-23.7,13.9-47.5,19.9-71.6c3-12.1,6.7-24.1,9.4-36.3c2.6-11.7,6-23.3,8.4-35c2.7-12.9,1.8-26,1.9-39.1
			c0-7.2,0.5-13.6,2.6-20.4c1.8-6,3.5-11.7,3-18C1353.2,1541,1350.2,1541,1350.4,1542.9L1350.4,1542.9z"/>
	</g>
</g>
<g>
	<g>
		<path d="M1331.7,1622c13.9,6.8,26.7,15.3,39.8,23.4c6.4,3.9,13.2,7.7,18.7,12.9c3.6,3.4,6.4,6.2,11.7,5.6c1.9-0.2,1.9-3.2,0-3
			c-6.2,0.7-10-5.4-14.6-8.8c-5.5-4.1-11.5-7.5-17.3-11.1c-12.1-7.5-24-15.3-36.8-21.5C1331.5,1618.5,1330,1621.1,1331.7,1622
			L1331.7,1622z"/>
	</g>
</g>
<g>
	<g>
		<path d="M1389.3,1584.6c0,15.1-0.9,30.3,0.5,45.4c1.3,14.4,4.1,28.6,6.1,42.9c2.1,15.2,1.5,30.5,3.1,45.7
			c1.6,14.5,4.6,28.8,6,43.3c2.8,28.1,2,57.6-2.1,85.6c-4,27.8-12.4,54.6-27.3,78.5c-7.8,12.6-16.1,25.2-24.5,37.5
			c-8.7,12.7-20.1,23.2-30.9,34c-1.4,1.4,0.8,3.5,2.1,2.1c9.4-9.4,19.1-18.5,27.3-29c8.2-10.5,15-22.3,22.4-33.4
			c7.4-11.2,14.3-22.6,19.4-35c5.5-13.3,9.5-27.2,12.2-41.3c5.3-27.4,6.2-55.6,5.3-83.5c-0.5-14.7-2.6-29.3-4.9-43.9
			c-2.4-15.2-2.9-30.3-3.8-45.6c-1-16.9-4.7-33.4-6.8-50.1c-2.2-17.7-1.3-35.4-1.3-53.1C1392.3,1582.6,1389.3,1582.6,1389.3,1584.6
			L1389.3,1584.6z"/>
	</g>
</g>
<g>
	<g>
		<path d="M203.2,1742.9c0.5,7.4,5.3,14,9.4,19.9c5.4,7.7,12.4,13.9,19.1,20.5c14.6,14.2,31.5,25.2,46.7,38.6
			c7.3,6.4,14.6,13.1,21.5,19.9c3.3,3.2,5.9,6.9,8.8,10.3c3.5,4.1,7.4,7.7,11.2,11.4c7.2,7,11.6,16,17.4,24.1
			c5.3,7.4,11.7,13.8,19,19.2c15.4,11.5,33.5,19.9,51.3,26.7c19,7.2,38.7,12.6,58.6,16.5c21,4.2,42.4,7,63.5,10.6
			c21.9,3.7,43.7,7.5,65.8,9.9c52,5.8,104.2,8.2,156.3,12.7c1.9,0.2,1.9-2.8,0-3c-44.8-3.8-89.8-6.3-134.6-10.5
			c-44.3-4.2-88.1-12.4-132-19.4c-38.4-6.1-77.1-16.5-111.1-35.8c-8.5-4.8-16.7-10-23.8-16.7c-7.3-6.9-12.6-15.1-18-23.4
			c-5.1-7.8-11.4-13.5-17.7-20.3c-3.3-3.5-6.1-7.3-9.2-11c-3-3.6-6.6-6.6-10.2-9.7c-8.1-7-15.4-14.7-23.8-21.4
			c-8.5-6.7-17.3-13-25.6-20c-8.3-7-16.3-14.7-23.7-22.6c-6.3-6.7-15.2-17.2-15.9-26.8C206,1741,203,1741,203.2,1742.9L203.2,1742.9
			z"/>
	</g>
</g>
<g>
	<g>
		<path d="M739.7,1982.8c17.8,18,44.9,20,67.9,26.8c15.8,4.6,31.4,9.7,47.2,14.1c7.1,2,14,4.1,21,6.3c6.6,2.1,13.5,3.9,20.5,3.2
			c1.9-0.2,1.9-3.2,0-3c-7.3,0.8-14.4-1.4-21.3-3.6c-6.8-2.2-13.5-4.2-20.4-6.1c-15.1-4.2-30-8.9-45-13.5
			c-22.8-6.9-50.2-8.6-67.8-26.4C740.5,1979.3,738.4,1981.5,739.7,1982.8L739.7,1982.8z"/>
	</g>
</g>
<g>
	<g>
		<path d="M1382.4,1596.9c-4.8-0.6-9.6-1.6-14.2-3.3c-5.3-1.9-8.8-4.8-13.2-8c-5.7-4.2-13-4.6-19.8-5.4c-1.9-0.2-1.9,2.8,0,3
			c4.3,0.5,8.8,0.8,13,2.2c4.5,1.5,7.4,5.1,11.4,7.5c6.8,4.2,15.1,6.1,22.9,7C1384.4,1600.2,1384.3,1597.2,1382.4,1596.9
			L1382.4,1596.9z"/>
	</g>
</g>
<g>
	<g>
		<path d="M1393.6,1599.9c27.6,0,55.2,0.6,82.8-0.1c11.9-0.3,23.8-1.4,35.7-0.2c13.3,1.3,24.1,7.2,35.6,13.4
			c10.5,5.6,19.6,13.4,30.1,18.9c5.3,2.8,10.8,5.1,16.2,7.7c5.5,2.6,10.6,5.4,16.4,7.2c10.6,3.3,18.4,10.9,28.7,15
			c11.5,4.5,23.2,7.9,34.5,13.2c10.6,4.9,22.2,7.8,33.1,12c11.9,4.7,23.6,9.4,35.6,13.7c11.8,4.2,23.4,9.5,35.7,12.3
			c12.3,2.8,24.9,3.2,37.3,4.5c11.4,1.2,22.5,3,34.1,2.8c5.3-0.1,10.6-0.4,15.9-1.1c4.6-0.6,9.4-2,14.1-1.9
			c12.2,0.4,21.7,10.2,30.9,16.9c9.8,7.1,20.4,13.1,30.1,20.4c10.8,8.2,21.1,17.3,29.3,28.1c7.5,9.9,16.2,19.6,22.2,30.6
			c7,12.9,8.3,28.3,9.7,42.7c0.8,8.3-1.5,20.2,4.9,26.8c1.3,1.4,3.5-0.7,2.1-2.1c-3.6-3.8-3.4-9.8-3.4-14.6
			c-0.1-5.2-0.6-10.3-1.1-15.5c-1.2-11.6-2.7-23.6-7.4-34.3c-4.6-10.6-12.5-19.2-19.4-28.3c-6.9-9-13.6-17.6-22.1-25.2
			c-8.4-7.5-17.6-14.4-27-20.6c-5.2-3.4-10.6-6.4-15.6-10c-4.7-3.4-9.1-7.3-14-10.5c-7.8-5.1-16.1-8.2-25.4-6.7
			c-11.6,1.8-22.9,2.8-34.6,2.2c-12.1-0.6-24.1-2.7-36.2-3.8c-13.7-1.2-26.5-3.5-39.5-8.2c-12.1-4.4-24.4-8.6-36.4-13.4
			c-12-4.7-23.8-9.7-36-13.7c-11.3-3.7-21.7-9.3-33-13.2c-11.6-3.9-22.8-7.2-32.8-14.6c-4.5-3.3-9-5-14.3-6.7
			c-6.3-2-12.2-5.4-18.2-8.2c-5.6-2.6-11.3-5.1-16.7-8.2c-5.1-3-9.8-6.6-14.7-9.9c-5.7-3.9-11.8-7.1-17.9-10.4
			c-5.8-3.2-11.7-6.2-18.1-8.1c-12.6-3.7-26.1-3-39.1-2.5c-30.7,1.2-61.5,0.4-92.2,0.4C1391.6,1596.9,1391.6,1599.9,1393.6,1599.9
			L1393.6,1599.9z"/>
	</g>
</g>
<g>
	<g>
		<path d="M190.8,1749.9c10.9,0.1,21-2.9,30.9-7.1c11.8-5,23.3-9.7,35.8-12.5c12.4-2.8,24.1-3.1,36.7-2.7c6,0.2,12.3-0.8,18.2,0
			c5.2,0.7,8.9,4.7,14,5.6c1.9,0.3,2.7-2.5,0.8-2.9c-4.6-0.8-8-4.4-12.5-5.4c-5.5-1.2-11.4-0.1-16.9-0.2
			c-12.2-0.2-23.7-0.7-35.7,1.6c-11.6,2.2-23,5.6-33.9,10.4c-12.1,5.4-24,10.4-37.5,10.3C188.8,1746.9,188.8,1749.9,190.8,1749.9
			L190.8,1749.9z"/>
	</g>
</g>
<g>
	<g>
		<path d="M334.2,1732.8c6,6.7,18.3,3.4,26.1,3.2c1.9,0,1.9-3,0-3c-6.8,0.1-18.8,3.4-23.9-2.3C335,1729.3,332.9,1731.4,334.2,1732.8
			L334.2,1732.8z"/>
	</g>
</g>
<g>
	<g>
		<path d="M198.4,1752.7c-17.3,12.3-40,11.7-59.7,17.8c-10.6,3.3-19.8,9-29.9,13.4c-10.5,4.6-21.2,8.6-30.9,14.8
			c-8.5,5.5-16.2,12.3-24,18.7c-9.6,7.8-19.7,15.1-29.5,22.6c-17.8,13.6-35.4,27.8-52.5,42.4c-8,6.8-15.6,14.5-22.6,22.3
			c-5.4,6-11.1,13.3-9.9,21.9c0.3,1.9,3.2,1.1,2.9-0.8c-1.3-9,7.3-17.2,12.9-23c6.5-6.7,13-13.4,20.1-19.4
			c17.2-14.5,34.8-28.9,52.8-42.5c8.6-6.5,17.4-12.9,25.8-19.7c8.2-6.6,16-13.6,24.8-19.4c9.1-6,19.1-10,29.1-14.2
			c10.4-4.5,20-10.5,30.8-13.9c20.2-6.4,43.5-5.7,61.3-18.4C201.4,1754.2,199.9,1751.6,198.4,1752.7L198.4,1752.7z"/>
	</g>
</g>
<g>
	<g>
		<path d="M333.9,784.6c0-20.7,0.1-41.3,0-62c0-9.7-1.4-20,1.3-29.5c2.4-8.5,5.1-15.7,4.6-24.7c-0.4-7.7-3.1-14-7.3-20.4
			c-5.4-8.2-9-15.5-9.9-25.4c-0.7-9.1,0.1-18.2,0.2-27.2c0.1-9.7,0.4-19.4,0.3-29.1c-0.1-10.1-1.8-19.8-2.7-29.8
			c-0.9-10.1-0.3-20.4-0.4-30.5c0-18.3-0.5-36.9,3.3-54.8c2-9.2,5.2-17.8,9.5-26.2c4.3-8.6,8.1-17.7,14.2-25.2
			c10.4-12.8,25-22.1,34.5-35.7c5.4-7.7,7.7-16.7,9.7-25.7c1.9-8.5,4.4-17.2,4.2-26c-0.2-8.2-2.9-14.7-7.9-21
			c-1.8-2.3-4.6-4.9-5.1-7.9c-0.7-4,2.4-8.6,4.1-11.9c0.9-1.7-1.7-3.2-2.6-1.5c-2.2,4.3-5.7,9.8-4.2,14.9c1.6,5.4,7.1,9.4,9.7,14.3
			c4.2,8,3.5,17.8,1.5,26.3c-1.9,8.6-3.4,17.5-6.3,25.8c-6,17-22,28.2-34.3,40.4c-6.3,6.3-10.9,13.3-14.9,21.2
			c-4.1,8-8.3,16.1-11.3,24.6c-5.7,16.2-6.9,33.5-7,50.5c-0.2,19.3-1.1,39,1.5,58.1c2.7,19.9,1.6,40.5,0.9,60.5
			c-0.3,8.8-0.5,17.9,1.8,26.5c2.1,7.6,7.1,13.6,11,20.3c5.3,9.1,5.8,20.6,2.7,30.6c-1.4,4.7-3.3,9-3.9,13.9
			c-0.7,5.4-0.5,10.9-0.4,16.3c0.5,23.4,0.1,46.9,0.1,70.4C330.9,786.5,333.9,786.5,333.9,784.6L333.9,784.6z"/>
	</g>
</g>
<g>
	<g>
		<path d="M325.6,182.5c2.8,6.6,4.9,13.5,8.5,19.7c3.7,6.5,8.5,12.3,13,18.2c7.5,9.5,13.5,20.5,21.7,29.5
			c6.7,7.4,15.2,10.8,25.1,11.3c12.9,0.7,26.6,0.7,38.7-4.4c12.3-5.2,20.8-15.8,30.9-24.2c12.7-10.6,29-11.9,44.5-16
			c15.2-4,29.6-10,44.2-15.8c13.7-5.4,27.4-10.7,40.8-16.5c27.3-11.8,53-26.4,76.5-44.7C693.4,121,711.1,96,737.2,80
			c24.5-15,52.1-15.2,79.9-13.7c14.9,0.8,29.3,4.1,44.1,5.4c15.4,1.4,30.7,2.6,45.6,7c14.3,4.2,26.4,13.4,41,16.4
			c6.4,1.3,12.5,2.8,18.6,5.2c7.6,2.9,15.1,4.7,22.9,6.9c15.1,4.3,30.1,8.5,45.7,10.7c15.3,2.2,30.6,1,46,1.2
			c7.9,0.1,15.5,1.3,23.3,2.3c7.5,1,15,0.8,22.4,3c13.9,4,24,13.7,34,23.7c22,22,40.9,46.2,52.9,75.2c4.5,11,10,21.2,18.6,29.6
			c4.6,4.4,9.8,7.8,15,11.4c6.7,4.6,12.9,9.7,18.9,15.3c11.3,10.5,22.7,21.1,32.9,32.7c4.7,5.3,10.4,11.4,12.6,18.3
			c2.6,8.2-3.2,14.7-8.6,20.1c-2.7,2.7-5.5,5.2-5.7,9.3c-0.2,4.5,2.6,7.8,5.9,10.4c3.6,2.9,7.8,4.9,11.8,7.3
			c6.8,4.1,13.5,8.3,20.2,12.4c27.7,17,55.5,34.1,82,53c21.6,15.4,31.2,41,32.8,66.8c0.9,15.3,0.2,30.8,0.2,46.2
			c0,16.4-0.1,32.9,0,49.3c0.1,16.7,0.8,33.4,0.8,50.2c0,7.2-0.1,14.5-0.5,21.7c-0.4,7.9-3.1,15.4-3.3,23.4
			c-0.5,14.8,0.4,29.3,4.5,43.6c4.1,14.7,10.6,28.6,13.6,43.6c3.2,16.3,2.5,33-1.1,49.1c-0.4,1.9,2.5,2.7,2.9,0.8
			c3.3-14.6,4.2-29.6,2.2-44.5c-2.1-15.3-8.2-29.3-12.8-43.9c-4.9-15.5-6.3-30.5-6.2-46.6c0-7.3,2.5-14,3.1-21.2
			c0.7-8.6,0.7-17.4,0.7-26c0-32.4-0.9-64.8-0.9-97.2c0-27.4,2.8-56.1-7.3-82.3c-4.1-10.6-10-20.5-18.2-28.3
			c-10.4-10-23.8-17.6-35.8-25.5c-25.8-17-52.1-33.9-79-49.2c-4.5-2.6-12.4-6.2-12.6-12.3c-0.2-5.8,8.8-11.5,11.8-16.2
			c6.6-10.2,0.9-19.5-5.7-28.1c-8.9-11.4-19.6-21.6-30.1-31.6c-5.4-5.1-10.8-10.4-16.5-15.1c-5.6-4.5-11.6-8.3-17.5-12.5
			c-11.7-8.4-19.6-19.7-25-32.9c-5.6-13.5-12.2-26.4-20.5-38.5c-8.3-12.2-18-23.4-28.3-34.1c-9-9.3-18-19.2-29.5-25.5
			c-12.3-6.7-25.1-6.5-38.6-8.4c-15.5-2.2-30.7-1.4-46.3-1.4c-31.6,0-62.8-11.3-92.4-21c-6.1-2-12.6-2.8-18.8-4.5
			c-8.1-2.2-15.3-7.2-23-10.5c-12.4-5.4-25.7-8.1-39-9.9c-7.3-1-14.6-1.2-22-2c-8.4-0.9-16.7-2.7-25-3.8c-13.3-1.7-27-2.1-40.4-2
			c-12.8,0.1-25.8,1.3-38.1,5.2c-12.8,4.1-24.4,11.8-34.9,20c-11.5,9-20.7,19.8-30.9,30.1c-10.7,10.7-22.5,20.2-34.9,28.9
			c-26.1,18.4-54.5,31.7-84.1,43.6c-14.3,5.7-28.5,11.8-43,17.1c-15.1,5.6-30.9,8.4-46.4,12.5c-13.1,3.5-21.8,12.1-31.6,21.1
			c-5.9,5.5-12,10.7-19.7,13.6c-6.7,2.6-13.9,3.5-21.1,3.7c-13.3,0.5-27.4,0.7-37.2-9.6c-8.2-8.5-14-19.6-21.3-28.9
			c-4.8-6.2-9.9-12.4-13.8-19.2c-3.6-6.2-5.7-13.1-8.5-19.7C327.4,179.3,324.8,180.8,325.6,182.5L325.6,182.5z"/>
	</g>
</g>
<g>
	<g>
		<path d="M414.3,98.4c-0.9,10-6.7,18.6-11.8,27c-5,8.3-9.9,16.5-14.9,24.8c-4.9,8.1-9.5,16.4-13.1,25.2c-2.6,6.2-5.2,12.9-5.3,19.7
			c-0.4,16.9,18.5,19.5,31.6,17.9c20.4-2.4,40.2-8.1,60.2-12.6c20.6-4.6,41.1-10,61.2-16.6c17-5.6,35.7-10.6,49.7-22.2
			c12.8-10.6,22.4-24.6,35.7-34.6c7.4-5.5,15.8-8.4,24.4-11.2c3.8-1.2,7.5-2.5,11.1-4.2c4.8-2.2,9.4-4.9,14.6-5.9
			c5.4-1,11.3-0.8,16.7-1c5.6-0.2,11.2-0.5,16.9-0.7c10.9-0.4,21.8-0.7,32.8-0.9c22.2-0.4,44.4-0.6,66.6-0.6
			c43.8,0,87.7,0.1,131.5,0.1c21.7,0,43.3,0.4,65,0.1c21.2-0.3,42.2-3.9,63.4-5.2c10.4-0.6,20.8-0.5,31.2-0.7
			c10-0.1,20.3,0.1,29.9,3.4c19.2,6.7,35.4,20.5,52.5,31.1c17.4,10.8,36.7,19.8,51.5,34.1c13.5,13,27.5,25.8,39.3,40.4
			c12.7,15.7,23.2,33.4,32.3,51.3c9.4,18.5,16.4,37.7,19.5,58.2c1,6.8,0.6,14.5,5.1,20.2c1.2,1.5,3.3-0.6,2.1-2.1
			c-2.9-3.7-3-8.8-3.5-13.2c-0.5-4.3-1.2-8.6-2-12.9c-1.8-9.9-4.7-19.4-8.3-28.8c-7.1-18.3-16.6-35.5-27-52.1
			c-9.8-15.6-21.3-29.9-34.4-42.8c-13.5-13.2-26.5-26.5-42.6-36.5c-17.2-10.7-34.6-20.9-51.5-32.1c-15.7-10.4-31.5-19.8-50.7-21
			c-9.4-0.6-18.8,0-28.1,0c-10.6,0-21.1,0.8-31.7,1.8c-21.3,2.1-42.3,3.9-63.8,3.9c-86.7-0.2-173.6-1.5-260.3,0.7
			c-11.3,0.3-22.5,0.7-33.7,1.1c-8.7,0.4-17.8-0.1-26,3.3c-4.4,1.8-8.6,4.2-13,5.9c-4.7,1.7-9.4,3.1-14.1,4.7
			c-7.3,2.6-13.8,6-19.8,10.9c-12.5,10.1-21.8,23.4-34.2,33.5c-7.6,6.1-16.1,9.6-25.2,13c-9.9,3.7-19.9,7.1-30,10.3
			c-20.2,6.3-40.7,11.1-61.2,15.9c-10.3,2.4-20.5,5-30.8,7.2c-10.2,2.1-21.5,5.1-32,4.2c-9.4-0.8-18.3-5.8-17.8-16.1
			c0.4-8.4,4.4-17.1,8-24.6c8.3-17.3,19.4-33.3,29-49.9c3.9-6.7,7.3-13.7,8-21.6C417.5,96.5,414.5,96.5,414.3,98.4L414.3,98.4z"/>
	</g>
</g>
<g>
	<g>
		<path d="M506,237.7c2.1,12.3-13.6,16.3-22.7,17.9c-17.1,2.9-35.1,1.6-52.1-0.9c-17-2.5-34.5-6.5-49.9-14.3
			c-5.4-2.7-11-6.1-14.7-11c-8.8-11.9-12.7-28.3-14.5-42.7c-1.1-8.9-1.4-17.7-1.4-26.7c-0.1-9.8-1.4-19.8,0.1-29.5
			c0.8-5,2.5-10,4.4-14.7c1.9-4.8,5.2-13.3,10.9-14.6c-0.6-0.5-1.3-1-1.9-1.4c0.6,6.2-3.7,11.3-6.6,16.4c-3.3,5.8-5.7,12.1-8.1,18.3
			c-4.7,11.7-11.7,22.8-15.2,35c-3.6,12.5-5.2,26.2-6,39.2c-0.8,13.4-0.2,27.1,3,40.2c3,12.4,7.9,24.2,11.2,36.5
			c1.6,6.1,3.4,12,5.4,18c2.6,7.8,3.2,14.4,1.4,22.5c-6,26.5-19.1,50.8-24.1,77.6c-2.7,14.6-2.9,29.2-2.6,44
			c0.3,16.4,4.4,32,5.9,48.2c0.2,1.9,3.2,1.9,3,0c-1.3-14.3-5.3-28.2-5.8-42.6c-0.4-14.1-0.7-28.5,1.3-42.6
			c4-27.4,16.8-52,23.9-78.6c1.4-5.4,3.1-11.1,2.8-16.7c-0.3-6.1-2.6-11.8-4.5-17.5c-2.1-6-3.3-12.2-5.1-18.2
			c-2-6.7-4.3-13.2-6.4-19.8c-8.7-27.5-7.4-55.4-1.7-83.4c2.9-14,10.6-26.2,15.9-39.3c3-7.4,5.9-14.9,10-21.8
			c2.9-4.7,6.1-9.7,5.5-15.4c-0.1-1-0.9-1.7-1.9-1.4c-9,2-13.3,16.6-15.6,24.2c-2,6.3-2.5,12.8-2.5,19.4c0.1,9.2,0.4,18.5,0.7,27.7
			c0.5,16.8,3,33.8,9.8,49.3c3.7,8.5,7.8,15.1,15.5,20.3c15,9.9,33.8,14.4,51.3,17.5c18.7,3.3,38.5,5,57.4,2.3
			c11.6-1.7,29.8-6.7,27.2-22C508.6,235,505.7,235.8,506,237.7L506,237.7z"/>
	</g>
</g>
<g>
	<g>
		<path d="M464.3,81.8c-0.4,18.2-11.2,34.4-20.8,49.2c-9.7,14.9-19.2,30.1-26.5,46.4c-3.6,8-6.7,16.3-8.9,24.8
			c-1.4,5.3-3.9,12.6,0.1,17.4c8.6,10.3,25-3.5,31.4-9.5c6.2-5.7,11.6-12.2,18.1-17.7c7.7-6.6,16.6-11.7,24.9-17.5
			c15.3-10.6,28.2-24.5,42.3-36.6c14.7-12.5,30.2-25.1,47.6-33.7c8.1-4,17-6.3,25.9-7.8c8.7-1.5,18.3-2.9,27.1-2
			c10,1,19.3,5.2,28.5,9c8.5,3.6,17.1,6.8,25.8,9.8c19.5,6.8,38.4,14.5,57.3,22.7c37.2,16.1,75.3,30.3,112.9,45.5
			c18.5,7.5,37.6,11.8,57.2,15.2c20.2,3.5,40.3,7.5,60.5,11.1c20.4,3.7,40.8,7,61.3,9.8c20,2.7,39.9,4.7,60.1,3.1
			c19.2-1.5,38.1-5.8,56.6-11.2c4.8-1.4,9.5-2.9,14.2-4.4c4.6-1.5,8.8-4.1,13.6-1.8c7.4,3.5,13.4,10.2,18.9,16.2
			c12.3,13.5,25.6,25.9,38.1,39.2c13.3,14.2,25.6,29.4,38.9,43.7c6.4,6.8,12.7,13.7,17.5,21.7c1,1.7,3.6,0.1,2.6-1.5
			c-9-15-22.7-27.3-34.1-40.5c-12.9-15.1-26.4-29.8-40.7-43.7c-6.1-5.9-11.9-11.8-17.6-18.1c-5.2-5.8-10.5-11.6-16.8-16.2
			c-5.6-4.1-10.1-6-16.7-3.5c-9,3.4-18.4,6.1-27.7,8.6c-19.8,5.4-40.1,8.9-60.7,9.2c-20.8,0.3-41.6-3-62.1-6
			c-20.7-3.1-41.4-6.8-62-10.6c-19.6-3.7-39.2-6.9-58.7-10.8c-19.6-3.9-37.7-10.7-56.1-18.4c-19.1-7.9-38.4-15-57.6-22.6
			c-19.5-7.8-38.8-15.9-57.9-24.4c-17.7-7.9-36.3-13.4-54.5-20.2c-16.7-6.3-32.2-15-50.6-13.8c-16.3,1.1-33.1,3.9-47.6,11.8
			c-16.2,8.7-30.7,20.2-44.7,32c-14.7,12.4-28,26.9-43.9,37.7c-7.7,5.2-15.6,10.1-22.8,15.9c-6.5,5.3-12,11.7-18.1,17.5
			c-5.8,5.5-13.8,13.1-22.4,13.1c-11.7,0-5.8-15.6-3.9-22c5.4-17.9,14.5-34.3,24.1-50.2c8.8-14.5,19.3-28.1,25.9-43.9
			c2.9-7,4.8-14.3,5-22C467.3,79.8,464.3,79.8,464.3,81.8L464.3,81.8z"/>
	</g>
</g>
<g>
	<g>
		<path d="M367.5,386.3c-6.4,6.6-9.7,15.1-12.4,23.7c-3.1,9.8-6.8,19.8-8.6,29.9c-2,11.4-2.2,23.5-1.9,35
			c0.3,11.8,5.6,22.9,9.6,33.8c4.3,11.6,7.7,23.3,10.7,35.4c3,12.1,7,24,10,36.2c3,12.2,5.4,24.6,7.5,37c2,11.7,5,23.6,5.7,35.4
			c1.7,28.3-21.5,46.5-42.5,61.2c-1.6,1.1-0.1,3.7,1.5,2.6c16.3-11.5,34.5-24.7,41.5-44.3c3.4-9.6,2.9-19.6,1.3-29.5
			c-2-12.5-4.3-25-6.6-37.4c-4.6-24.6-11.9-48.6-18.2-72.8c-3.3-12.6-8.1-24.5-12.5-36.8c-2-5.6-4.3-11.2-4.8-17.1
			c-0.6-6.6,0-13.4,0.1-20.1c0.1-13.7,3.5-25.7,7.4-38.7c3.3-11,6.1-22.9,14.3-31.4C371,387,368.8,384.9,367.5,386.3L367.5,386.3z"
			/>
	</g>
</g>
<g>
	<g>
		<path d="M378.9,436c-17.2,10.6-34.4,21.2-51.7,31.6c-15,9-30.7,17.5-44.1,28.9c-3.4,2.9-8,6.2-7.3,11.3c0.5,4.4,4.3,7.8,7.6,10.4
			c9.8,7.6,21.7,12.5,33.5,16c9.4,2.8,18.1,6.3,27,10.3c8.2,3.7,16.5,7,24.4,11.4c8.1,4.5,16,9.5,24.2,13.7c2.7,1.4,8,3.4,8.8,6.8
			c0.8,3.5-3.4,7.6-5.5,9.8c-10.1,10.9-25.3,14.6-36.2,24.5c-4.5,4.1-8.6,9.5-8,15.9c0.6,6.6,5.7,11.8,10.3,16.1
			c12.7,11.8,29.8,22.7,35.2,40.1c4.4,14.2,1.5,34.7-12.7,42.3c-1.7,0.9-0.2,3.5,1.5,2.6c10.7-5.7,15.2-17.9,15.9-29.5
			c0.8-13.7-4.5-25.3-13.5-35.4c-5.1-5.7-11-10.7-16.8-15.7c-5.8-5-14.3-10.8-16.6-18.6c-4.5-16,23.2-25.6,33.3-32.2
			c5.9-3.8,21.3-15.1,14.4-23.5c-1.8-2.2-4.6-3.6-7-4.9c-4.2-2.2-8.4-4.4-12.6-6.8c-8-4.6-15.9-9.5-24.4-13.3
			c-7.7-3.5-15.5-7.1-23.3-10.4c-8.5-3.6-17.5-5.5-26.1-8.6c-5.9-2.1-11.6-5-17.1-8.2c-4.5-2.6-11.4-6.4-13.1-11.7
			c-1.3-4.1,2.2-6.6,4.9-9c4-3.5,8.3-6.7,12.7-9.7c8.2-5.6,16.8-10.6,25.4-15.7c19.6-11.7,39-23.7,58.4-35.6
			C382.1,437.6,380.6,435,378.9,436L378.9,436z"/>
	</g>
</g>
<g>
	<g>
		<path d="M1341.5,430.3c9.7-4.7,19.3-5.1,29.9-5.8c4.2-0.3,8.6-0.6,12.8,0.3c5.8,1.2,8.6,5,11.6,9.7c4.8,7.5,12.6,12.2,18.1,19
			c6.5,8,12.1,16.9,17.9,25.3c11,16,16.8,35.1,18.5,54.4c1.8,20.9-1.6,40.7-7.7,60.6c-3.2,10.6-6.2,21.2-8.9,31.9
			c-1.7,6.8-4.6,14.9,0.4,21c1.2,1.5,3.3-0.6,2.1-2.1c-3.3-4-1.8-9.8-0.6-14.3c1.2-4.6,2.2-9.3,3.4-13.9c2.8-10.8,6.6-21.4,9.5-32.2
			c5.2-19.2,6.7-38.9,3.9-58.6c-2.8-19.4-9.8-37.1-21.4-52.8c-5.8-7.9-10.7-16.5-17.2-23.9c-3.3-3.7-7.3-6.6-10.8-10.1
			c-3.6-3.5-5.5-8.1-8.9-11.8c-5.9-6.5-15.5-5.9-23.5-5.4c-10.9,0.7-20.7,1.3-30.7,6.2C1338.3,428.6,1339.8,431.1,1341.5,430.3
			L1341.5,430.3z"/>
	</g>
</g>
<g>
	<g>
		<path d="M1427.6,608.3c-23.9-18.2-41.9-43.3-59-67.7c-15.3-21.9-28.6-44.7-40.7-68.5c-4-7.8-7.8-15.7-10.6-24.1
			c-2.4-7.2-5.9-17.8-1.3-24.9c3.1-4.8,10-5.9,15.2-6.4c6.3-0.7,12.7-0.3,19-0.5c5.4-0.2,10.7-2.1,16.1-2c6,0.2,9.2,5.3,11.3,10.3
			c4.1,9.3,5.4,19.9,6.6,29.9c1.7,13.9,2.5,29-1.2,42.7c-1.7,6.1-5.6,11.3-7.2,17.5c-1.2,4.7-1,9.6,0.6,14.2
			c3.1,9.4,10.2,17,16.2,24.6c8.3,10.4,12.9,21.2,14.9,34.4c2.2,13.9,1.6,28.2,0.2,42.2c-0.7,7.2-1.7,14.4-2.7,21.5
			c-0.8,5.9-2.2,11.9-2.2,17.9c-0.1,8.4,3.2,16.4,7.9,23.2c12.5,17.8,32.8,28.2,45.5,45.7c17.4,23.9,13.4,57.4,13.3,85.2
			c0,1.9,3,1.9,3,0c0.1-26.1,2.9-54.4-8.9-78.6c-9-18.5-27.9-29.6-42-43.9c-7.2-7.3-13.9-16-15.5-26.4c-1-6.3,0.4-12.7,1.3-19
			c1-6.8,1.9-13.6,2.7-20.4c2.9-25.5,4.7-56.4-11.2-78.3c-6.8-9.4-16.4-18.1-19.9-29.4c-2.2-7-0.4-13.2,2.7-19.7
			c3-6.2,4.8-12.1,5.7-19c1.7-13.2,0.8-26.3-0.9-39.4c-1.3-9.9-2.9-20.5-7.8-29.3c-1.8-3.2-4.5-6.7-8.1-8c-4.6-1.7-10-0.3-14.6,0.5
			c-12.2,2.1-26.1-1.5-37.5,4.4c-15.3,7.9-4.6,32.2,0.3,43.3c9.8,22.2,21.9,43.7,35,64c16.5,25.5,34.5,51.6,56.2,72.9
			c5,4.9,10.3,9.5,15.9,13.7C1427.7,612,1429.2,609.4,1427.6,608.3L1427.6,608.3z"/>
	</g>
</g>
<g>
	<g>
		<path d="M706.1,778.2c-0.4,0.8-0.7,1.7-1.1,2.5c-0.3,0.8-0.2,2.1,0.9,2.2c10.3,1.5,9.5-12.7,16.4-16.7c6.2-3.6,14.1,3.7,19.7,6
			c6.6,2.7,10.8,0.6,17.2-1.3c4.1-1.2,7.3,0.3,11.3,0.9c3.7,0.5,7.4,0.8,11.1,0.4c7.7-0.9,13-6.1,20.1-8.7c4.5-1.7,8-1.1,11.8,1.6
			c2.2,1.6,4.1,2.8,6.9,2.8c4.8-0.1,6.3-6.2,9.5-9c4.1-3.7,8.4-3.9,13.4-2c2.7,1,5.3,1.6,8.2,0.5c2.5-1,3.6-2.9,5.4-4.8
			c4.3-4.6,8.9-1,13.9,0.1c1.9,0.4,2.7-2.5,0.8-2.9c-5.5-1.2-10.3-5-15.4-0.7c-1.9,1.6-2.9,4.1-5.1,5.2c-4,2.1-7.9-1.4-11.8-1.8
			c-5.8-0.6-10.7,3-14.2,7.2c-2.2,2.6-2.8,5.9-7,4.7c-2.8-0.9-4.7-3.7-7.6-4.6c-6.4-1.8-12.6,2.1-17.9,5.1
			c-8.4,4.8-16.6,5.3-25.9,2.9c-6.9-1.8-11.9,3.3-18.6,2.8c-6.9-0.5-12.1-6.2-18.6-7.9c-4.8-1.3-9,0.2-12,4.2
			c-2.6,3.6-5,13.8-10.6,13c0.3,0.7,0.6,1.5,0.9,2.2c0.4-0.8,0.7-1.7,1.1-2.5C709.5,778,706.9,776.5,706.1,778.2L706.1,778.2z"/>
	</g>
</g>
<g>
	<g>
		<path d="M790.4,866.6c4.8,0.8,9.4,3.1,14,0.6c4.8-2.7,7.8-7.9,11.8-11.6c5.5-5,13.9-6.2,20.9-7.6c3.8-0.7,7.7-0.9,11.5-1.7
			c3.9-0.8,7.7-2,11.7-2c1.9,0,1.9-3,0-3c-6.8,0-13.8,2.2-20.5,3.1c-6.5,0.9-13.8,2.2-19.8,5c-4.3,2-7.2,5.3-10.3,8.7
			c-2.2,2.4-5.2,6.4-8.6,7.1c-3.2,0.6-6.8-1.1-9.9-1.6C789.3,863.3,788.5,866.2,790.4,866.6L790.4,866.6z"/>
	</g>
</g>
<g>
	<g>
		<path d="M1161.3,713.4c8-8.7,18.2-13.7,28.6-18.8c4.7-2.3,9.6-4.4,14.2-6.8c4.8-2.5,8.2-6,12.1-9.6c4.8-4.4,8.8-5.6,15.1-5.1
			c3.6,0.3,7.3,0.1,10.2-2.1c2.6-1.9,4-4.9,5.9-7.4c4.2-5.5,8.9-5,14.5-1.8c3.8,2.2,7.1,5,10.7,7.4c3.3,2.2,6.8,3.9,10,6.1
			c2.6,1.8,11.3,9.8,3,10.3c-4.5,0.3-9.1-2.5-12.8-4.7c-8.4-4.8-17-10.2-25.8-14.2c-7.6-3.4-11.9-1.3-15.7,5.8
			c-4.1,7.5-13.6,6.4-20.9,4.8c-3.8-0.9-8-2.8-12-2.2c-4,0.6-6.9,3.9-9.8,6.5c-5.1,4.8-10.2,7.8-17.4,7c-1.9-0.2-1.9,2.8,0,3
			c5,0.6,9.6-0.4,13.9-3.2c4.3-2.8,7.9-8.8,12.9-10.2c4.6-1.3,10.8,2,15.3,2.7c4.9,0.8,12,1.2,16.3-1.6c3.7-2.4,4.1-7.3,7.2-10
			c4.7-4.1,12.5,2,16.8,4.5c5.3,3.1,10.8,5.7,16.2,8.8c4,2.3,8,4.8,12.6,5.6c5.7,1.1,12.4-2,8.9-8.8c-3.5-6.9-13.1-10-19.1-14.2
			c-6.1-4.3-15.3-12.7-23.2-7.5c-3.4,2.2-4.9,6.1-7.4,9c-4.5,5.2-10.3,2.2-16.2,2.9c-5.5,0.7-9.6,4.7-13.4,8.4
			c-5.3,5.2-11.3,7.9-17.9,11.1c-12.5,6-25.4,11.6-35,22C1157.9,712.7,1160,714.8,1161.3,713.4L1161.3,713.4z"/>
	</g>
</g>
<g>
	<g>
		<path d="M1223.1,796.7c5,4.4,18.3,13.1,22.6,3.7c2.6-5.7,2-12.7,5.3-18c2.2-3.6,6.9-6.1,11.1-5.9c3.7,0.1,7.5,2.5,10.7,4.2
			c8,4.2,17.1,14.3,26.9,12.6c4.6-0.8,7.5-4.7,8.7-9c1.2-4.1,1.4-8,4.9-11c4-3.4,9.4-4.1,12.3,0.9c1,1.7,3.6,0.2,2.6-1.5
			c-6.1-10.6-19.5-2.9-21.8,6.5c-0.9,3.8-1.2,8.4-5.2,10.5c-2.9,1.5-6.3,0.4-9.1-0.8c-5.5-2.4-10.2-6.3-15.2-9.4
			c-4.6-2.8-10.7-6.5-16.3-6c-4.8,0.4-9.7,3.2-12.3,7.4c-3,5-2.9,11.2-4.8,16.6c-1.3,3.8-2.9,4.9-6.7,3.5c-4.1-1.5-8.4-3.6-11.7-6.4
			C1223.7,793.3,1221.6,795.5,1223.1,796.7L1223.1,796.7z"/>
	</g>
</g>
<g>
	<g>
		<path d="M810.2,763.6c-9.2-1-17.2,8.9-22.1,15.3c-6.5,8.5-11.5,18.7-12.7,29.5c-1.2,11,7.2,17.2,16,21.9
			c10.8,5.8,22.9,12.3,35.5,11.2c1.9-0.2,1.9-3.2,0-3c-11.3,0.9-21.4-4.5-31.2-9.4c-8.8-4.4-18.8-10-17.2-21.3
			c1.2-9,5.1-17.6,10.4-25c4.5-6.3,12.5-17.3,21.4-16.3C812.1,766.8,812.1,763.8,810.2,763.6L810.2,763.6z"/>
	</g>
</g>
<g>
	<g>
		<path d="M838,841.6c4.1,0.2,8.1,0.1,11.5-2.4c4.6-3.4,8.3-8.7,12.1-12.9c4.4-4.9,9.3-9.4,12-15.5c2.5-5.7,3.3-11.9,4.4-18
			c0.9-4.7,1.8-9.5-0.2-14c-1.8-4.1-5.6-6.8-9.4-9.1c-13.1-7.7-26.9-14.6-41.1-19.9c-1.8-0.7-2.6,2.2-0.8,2.9
			c12.2,4.6,23.8,10.6,35.3,16.8c4.2,2.3,9.3,4.5,12.1,8.5c3.4,4.7,1.9,10.3,0.9,15.5c-0.8,4.7-1.5,9.6-3.2,14.1
			c-2.3,6.1-6.7,10.4-11,15.1c-3.5,3.9-6.9,7.8-10.4,11.6c-3.6,3.8-7.1,4.4-12.2,4.2C836.1,838.5,836.1,841.5,838,841.6L838,841.6z"
			/>
	</g>
</g>
<g>
	<g>
		<path d="M826.1,788.8c-7.9,4.4-23.1,19.9-8.9,26.3c5.8,2.6,12.7,3.3,15.7-3.3c3.9-8.5-1.4-11.6-7.1-16.8c-0.1,0.8-0.2,1.6-0.3,2.4
			c8-3.4,14.4,13.3,6.4,17.6c-6.6,3.5-16.6,2-17.2-6.7c-0.3-3.6,3.8-16.2,8.3-11.5c1.3,1.4,3.5-0.7,2.1-2.1c-6.6-7-12.4,5-13.3,10.6
			c-1.7,10.8,7.8,16,17.3,13.9c7.8-1.7,11.8-8.2,8.9-15.8c-2.1-5.4-7.8-11.1-13.9-8.5c-0.9,0.4-0.9,1.8-0.3,2.4
			c4,3.7,9.1,5.8,7,12.2c-1.4,4.1-3.8,5.1-7.7,4.4c-2.5-0.5-5.8-1.3-7.5-3.4c-5.2-6.5,7.3-16.2,12.1-18.9
			C829.3,790.5,827.8,787.9,826.1,788.8L826.1,788.8z"/>
	</g>
</g>
<g>
	<g>
		<path d="M1141.8,724.5c11.3-11.1,27.9-14.6,42.3-20.1c7.9-3,15.8-5.9,23.8-8.8c8.2-3,16.2-6.1,24.9-6.9c13.9-1.3,28,0.4,42-0.1
			c11.8-0.4,26.2-0.8,33.4,10.4c0.3-0.7,0.6-1.5,0.9-2.2c-2.7,0.7-7.7-1.8-10.6-2.2c-4.2-0.6-8.4-0.4-12.7-0.4
			c-8.4,0-16.8,0.1-25.2,0c-16-0.1-32.2-1.1-48.1,1.9c-14.5,2.8-29.3,6.8-42.7,13.2c-12.8,6-27.3,9.7-38.5,18.7
			c-1.5,1.2,0.6,3.3,2.1,2.1c6.3-5,13.5-8,20.9-10.8c6.3-2.4,12.3-5.3,18.5-8.1c14-6.3,29.7-10.7,44.8-12.9
			c16.1-2.3,32.5-1.1,48.6-1.1c8.4,0,16.8-0.1,25.3-0.1c3.8,0,7.8,0.2,11.5,1.4c2.7,0.9,3.9,1.9,6.8,1.1c0.9-0.2,1.4-1.4,0.9-2.2
			c-6.5-10.2-18.3-12.1-29.6-12c-6.5,0-12.9,0.5-19.4,0.4c-9.1-0.2-18.2-0.9-27.2-0.3c-8.7,0.6-16.5,3.2-24.7,6.2
			c-9.2,3.3-18.4,6.6-27.5,10.2c-14.7,5.7-31.2,9.2-42.7,20.5C1138.3,723.7,1140.5,725.9,1141.8,724.5L1141.8,724.5z"/>
	</g>
</g>
<g>
	<g>
		<path d="M1238,702.5c-14.2-1.6-28,8.5-37.6,17.9c-4.6,4.5-5.4,8.7-7.5,14.6c-2.5,7.4-4.8,15-5.2,22.8c-0.8,15.5,8.7,27.5,24,30.5
			c8.4,1.7,17.1,1.1,25.6,0.7c7.6-0.3,15.3,0.2,22.6-2.2c27.6-9.3,27.1-50.3,11.4-69.8c-10.9-13.6-28.9-16.3-45.3-14.7
			c-9.3,0.9-18.5,3-27.5,5.6c-7.6,2.2-15.2,4.1-21,9.8c-5.5,5.4-10.9,14.3-10.3,22.4c0.6,7.4,7.5,12,13.4,15.3
			c10.4,5.9,21.3,10.9,31.8,16.7c8.1,4.5,15.8,12.6,25.1,13.9c1.9,0.3,2.7-2.6,0.8-2.9c-7.4-1-12.9-6.8-19-10.5
			c-7.3-4.5-15.1-8.2-22.8-12.1c-6.6-3.4-13.8-6.6-19.8-11c-2.9-2.1-5.7-4.9-6.4-8.6c-0.8-3.9,1-8.4,2.7-11.8
			c3.6-7.4,9.4-12.9,17.2-15.5c7.5-2.4,15-4.7,22.7-6.3c15.4-3.2,34-4.8,47.8,4.2c11.7,7.7,17.1,21.7,17.8,35.3
			c0.7,12.6-2,26.8-13.3,34.1c-5.2,3.4-11.5,4.7-17.6,4.9c-7,0.2-13.9,0.5-20.9,0.6c-14.9,0.2-32.3-3.4-35.6-20.5
			c-1.5-7.7,0.2-15.7,2.3-23.1c1-3.4,2.2-6.7,3.3-10.1c1.1-3.2,1.3-5.6,3.7-8.2c8.8-9.9,23.4-20.6,37.4-19
			C1239.9,705.7,1239.9,702.7,1238,702.5L1238,702.5z"/>
	</g>
</g>
<g>
	<g>
		<path d="M1232.4,738.6c-20.6-0.8-16.8,40,4.2,38.6c12.4-0.8,18-15.8,16-26.4c-1.9-9.5-8.8-22.8-20.4-20.9
			c-10.8,1.7-14.8,16.3-15.3,25.5c-0.6,12.3,9.4,23.6,22.2,22.5c11.7-1,16.2-14.6,17-24.5c0.4-5.2,0-10.6-4.3-14.2
			c-4.1-3.5-10.8-5.6-16.1-6.3c-10-1.4-18,11.5-19.1,20.1c-0.5,3.7,0.5,7.5,4.2,8.9c6.5,2.5,9.1-6.3,10.4-11c-1-0.1-2-0.3-2.9-0.4
			c-0.1,2.3-0.2,4.7-0.3,7c1,0,2,0,3,0c-0.1-4.1,1-7.4,2.6-11.1c0.8-1.7-1.8-3.3-2.6-1.5c-1.8,4.1-3.2,8-3,12.6c0.1,1.9,2.9,1.9,3,0
			c0.1-2.3,0.2-4.7,0.3-7c0.1-1.7-2.5-2-2.9-0.4c-0.8,2.8-4,13.2-8.2,7.8c-1.8-2.3-0.5-6.2,0.4-8.6c2.1-5.4,7.2-14,13.9-13.6
			c4,0.3,8.7,2.1,12.3,3.9c5.2,2.6,6.6,6.6,6.3,12.1c-0.3,7.6-2.9,18.6-10.5,22.1c-10.6,4.9-22.4-5.7-22.8-16.1
			c-0.3-7.4,2-17.2,7.7-22.4c8.6-7.8,17.4,2.4,20.4,10.3c3.3,8.6,2.9,19-4.5,25.4c-9.3,8-19.7-0.9-21.2-10.9
			c-1.1-7.4,0.5-19,10.2-18.6C1234.4,741.7,1234.4,738.7,1232.4,738.6L1232.4,738.6z"/>
	</g>
</g>
<g>
	<g>
		<path d="M1228.2,742.9c0.6,6.4-1.6,12.5-3.5,18.6c1,0,1.9,0,2.9,0c-1.6-5.7,0.8-11.9,3-17.1c0.3-0.7,1.5-4,2.6-4.3
			c2.9-0.9,3.4,2.2,3.7,3.8c0.3,1.6,0.4,3.3,0.5,4.9c0.2,4.1,0.2,8.3-0.2,12.4c-0.3,3.1-0.4,8.5-3,10.7c0.6-0.1,1.2-0.2,1.8-0.2
			c-10-6.8,8.9-20.9,8.4-29.7c-0.1-1.3-2.2-2.2-2.8-0.8c-3.5,8.3,0.1,18,0.4,26.7c0.1,1.9,3.1,1.9,3,0c-0.3-7.8-4-17.6-0.8-25.1
			c-0.9-0.3-1.9-0.5-2.8-0.8c0.6,10.4-20.8,22.9-7,32.3c0.6,0.4,1.3,0.2,1.8-0.2c3.7-3.1,3.7-10.2,4-14.6c0.4-6,0.9-13.4-1.3-19.1
			c-1.9-4.9-6.3-5-9.2-0.9c-4.2,5.8-7.1,15.9-5.1,22.8c0.4,1.5,2.4,1.4,2.9,0c2-6.3,4.2-12.7,3.6-19.4
			C1231,741,1228,741,1228.2,742.9L1228.2,742.9z"/>
	</g>
</g>
<g>
	<g>
		<path d="M823.1,793.9c5.3,5.3,3.1,21.4-4.4,24c0.6,0.3,1.2,0.7,1.8,1c-1-4.1-1.5-8.5-1.2-12.7c0.3-4.7,3.6-11.8,9.4-7.6
			c3.5,2.5,5.1,8,4.8,12.1c-0.3,4-5.3,4.4-8,2.1c-4.1-3.5-5.1-12.4-2.2-16.9c3.3-5.3,8.8,0.3,10.3,4.4c2.3,6.4-3.8,12.1-7.7,16.5
			c-1.3,1.4,0.8,3.6,2.1,2.1c3.9-4.4,9.6-9.9,9.1-16.3c-0.4-4.6-3.8-10.4-8.5-11.6c-8.3-2.2-10.3,8.7-9.5,14.6
			c1,7.3,6.3,14.2,14.3,10.9c8.1-3.4,1-19.7-5.6-21.5c-13.8-3.9-11.8,17.7-10.1,24.9c0.2,0.8,1.1,1.3,1.8,1c9.7-3.4,12.7-22,5.7-29
			C823.8,790.5,821.7,792.6,823.1,793.9L823.1,793.9z"/>
	</g>
</g>
<g>
	<g>
		<path d="M1228.4,732.5c2.4,4.8,3.9,10.1,5.2,15.2c1.5,5.6,3.8,13,2.1,18.9c-2.5,8.8-15.9-5.2-12-11.3c3.2-5,11.4,2.9,15.6-3.3
			c1.1-1.6-1.5-3.1-2.6-1.5c-2.4,3.6-8.6-0.9-12.3,0.4c-3.5,1.2-4.9,5.7-4.1,9c1.3,5.5,9,16.6,15.9,11.6c5.2-3.8,2.7-13.9,1.7-19
			c-1.5-7.2-3.5-14.9-6.9-21.5C1230.1,729.3,1227.5,730.8,1228.4,732.5L1228.4,732.5z"/>
	</g>
</g>
<g>
	<g>
		<path d="M524.1,1786.1c4.4-0.1,8.9,0,12.4,3c2.9,2.5,5,6,7.5,8.9c3.4,4,7.6,7.2,10.9,11.3c4.2,5.2,6.7,11.7,9.6,17.7
			c0.8,1.7,3.4,0.2,2.6-1.5c-2.9-6-5.4-12.4-9.5-17.7c-4-5.1-9.1-9-13.1-14.1c-2.3-2.9-4.5-6.3-7.8-8.3c-3.7-2.3-8.3-2.4-12.5-2.4
			C522.2,1783.1,522.2,1786.1,524.1,1786.1L524.1,1786.1z"/>
	</g>
</g>
<g>
	<g>
		<path d="M567.8,1780.5c-9.2,6.6-15.3,16.6-20.8,26.3c-3.1,5.3-4.3,11.4-7.4,16.7c-2.7,4.5-5.3,8.5-5.8,13.9c-0.2,1.9,2.8,1.9,3,0
			c0.5-5.7,4.3-9.9,6.8-14.9c2.3-4.6,3.4-9.7,6-14.2c5.3-9.2,11-19,19.8-25.2C570.9,1782,569.4,1779.4,567.8,1780.5L567.8,1780.5z"
			/>
	</g>
</g>
<g>
	<g>
		<path d="M592.3,1793.6c2.3,4.5,0.6,9.2,0,13.9c-0.5,3.9-0.7,7.9-0.5,11.8c0.2,4.8,1.2,9.3,3.2,13.6c3.6,7.5,9.1,15.8,16.3,20.4
			c7,4.4,13.1,1.3,16.2-5.9c4.3-10.1,6.9-24.4,1.3-34.5c-3.4-6.3-10.3-11.1-16.2-14.9c-7.5-4.8-15.6-8.5-23.8-12
			c-1.8-0.8-3.3,1.8-1.5,2.6c7.4,3.2,14.9,6.5,21.8,10.7c6.8,4.1,15.5,9.9,18.3,17.7c2.5,7.1,1.5,15.2-0.4,22.3
			c-1.2,4.6-3.1,13.1-9,13.3c-8.8,0.3-16.5-13.4-19.8-19.9c-3.1-6.2-3.7-12.8-3.4-19.6c0.3-7,3.5-14.3,0.1-20.9
			C594,1790.4,591.4,1791.9,592.3,1793.6L592.3,1793.6z"/>
	</g>
</g>
</svg>
