<?xml version="1.0" encoding="utf-8"?>
<!-- Generator: Adobe Illustrator 18.1.1, SVG Export Plug-In . SVG Version: 6.00 Build 0)  -->
<!DOCTYPE svg PUBLIC "-//W3C//DTD SVG 1.1//EN" "http://www.w3.org/Graphics/SVG/1.1/DTD/svg11.dtd">
<svg version="1.1" id="Layer_1" xmlns="http://www.w3.org/2000/svg" xmlns:xlink="http://www.w3.org/1999/xlink" x="0px" y="0px"
	 viewBox="0 0 2000 4633" enable-background="new 0 0 2000 4633" xml:space="preserve">
<rect x="-25.8" y="-25.5" fill="#FFFFFF" width="2045.5" height="4675.4"/>
<path fill="none" stroke="#000000" stroke-width="3" stroke-miterlimit="10" d="M1819.7,4576.5L1819.7,4576.5
	c-7.1,0-12.9-4.3-17.5-7.2c-1.1-0.7-2.2-1.8-3.2-2.3c-0.9-0.5-1.9-1.5-2.9-2.2c-0.5-0.3-1.1-0.9-1.5-1.2L526.4,4403.4
	c-41.3-5.1-79.5-23.2-110.6-52.5c-30.6-28.8-51.2-65.8-59.6-107c-8.4-41.1-3.8-83.1,13.4-121.5c17.2-38.5,45.4-69.9,81.6-90.9
	l814.5-472.2l-830.9-174.9c-38.8-8.2-74-27.6-101.7-56.2c-27.6-28.5-45.9-64.3-52.9-103.5c-6.9-39.1-2.1-79,14.1-115.3
	c16.1-36.3,42.5-66.7,76.2-87.7l621.6-388.5l-665.4-38.8c-85.5-5-157.9-63.9-180.1-146.6c-22.2-82.7,10.8-170,82.3-217.2
	l941.9-622.2L217.8,1448c-39.1-6.6-75-24.5-103.7-51.8c-28.8-27.3-48.5-62.2-57.1-100.9c-8.6-38.7-5.5-78.7,9-115.6
	c14.5-36.9,39.4-68.3,72-90.9l801.5-553.3L339,461.8c-108.6-13.4-186.2-112.6-172.8-221.2c12.2-99.4,96.8-174.3,196.9-174.3
	c8.1,0,16.3,0.5,24.4,1.5l1118.8,137.5c40.1,4.9,77.3,21.7,107.6,48.6c30.2,26.8,51.3,61.8,61,101.1c9.6,39.3,7.2,80-7.2,117.8
	c-14.4,37.8-39.5,69.9-72.8,92.9l-828.6,572l967.5,162.6c39.5,6.6,75.6,24.8,104.5,52.5c28.9,27.7,48.5,63,56.8,102.2
	c8.3,39.1,4.6,79.4-10.5,116.4c-15.2,37-40.9,68.2-74.3,90.3l-864.3,570.9l691.5,40.3c42.3,2.5,82,18,114.7,45
	c32.7,27,55.6,62.9,66.1,104c10.5,41.1,7.7,83.6-8.1,123c-15.8,39.4-43.1,72-79.1,94.5l-732.1,457.6l855.3,179.8
	c39.5,8.3,75,28.1,102.9,57.3c27.8,29.2,45.9,65.7,52.3,105.5c6.4,39.8,0.6,80.1-16.7,116.6c-17.3,36.4-44.9,66.4-79.8,86.6
	l-750.6,434.8l681.7,83.9c52.3,6.4,99.4,34.5,132.4,78.9c32,43.1,46.8,97.6,40.4,149.6c-6,48.9-29.7,96.8-65.1,130.1
	C1913.3,4556,1866.6,4576.5,1819.7,4576.5L1819.7,4576.5z M363.1,73.2c-96.5,0-178.1,72.3-189.9,168.2
	c-12.9,104.8,61.9,200.5,166.7,213.4l618.7,76L142,1094.7c-31.5,21.7-55.5,52-69.5,87.7c-14,35.6-17,74.2-8.7,111.5
	c8.3,37.3,27.4,71,55.1,97.3c27.7,26.3,62.4,43.6,100.1,49.9l970.4,163.1l-7.4,4.9l-949.3,627.1c-68.9,45.5-100.8,129.7-79.4,209.5
	c21.5,79.8,91.3,136.6,173.8,141.4l687.4,40l-640.2,400.1c-32.5,20.3-57.9,49.6-73.5,84.6c-15.6,35-20.3,73.5-13.6,111.3
	c6.7,37.8,24.4,72.3,51,99.8c26.8,27.6,60.7,46.4,98.1,54.3l848.8,178.7l-830.3,481.4c-34.9,20.2-62.2,50.6-78.7,87.7
	c-16.5,37.1-21,77.6-12.9,117.3c8.1,39.8,28,75.5,57.6,103.3c30,28.2,66.8,45.7,106.6,50.6l1268.9,160.3l0.2,0.1
	c1.2,0.3,2.2,1,3.8,2.3c0.7,0.5,1.6,1.2,2.1,1.5c1.1,0.6,2.3,1.4,3.5,2.1c4.1,2.5,8.7,5.4,13.8,5.4c45.1,0,90.2-19.1,127-53.7
	c34.2-32.2,57.1-77.8,62.9-125.1c6.2-50.2-8-102.9-39-144.6c-31.9-42.9-77.2-69.9-127.6-76.1l-702.4-86.5l9-5.2l759.7-440
	c33.7-19.5,60.3-48.4,77-83.5c16.7-35.1,22.3-74,16.1-112.5c-6.2-38.4-23.6-73.6-50.4-101.8c-26.8-28.2-61.2-47.3-99.2-55.3
	l-872.3-183.4l7.4-4.6l739.5-462.2c34.7-21.7,61.1-53.2,76.3-91.2c15.2-38,17.9-79,7.8-118.6c-10.1-39.6-32.2-74.3-63.7-100.4
	c-31.6-26-69.8-41-110.7-43.4l-712.5-41.5l881.9-582.5c32.2-21.3,57-51.4,71.6-87.1c14.6-35.7,18.2-74.6,10.2-112.3
	c-8-37.8-26.9-71.9-54.8-98.6c-27.9-26.7-62.7-44.2-100.8-50.6L748,1141.7l7.1-4.9l835.7-576.9c32.1-22.2,56.4-53.2,70.2-89.6
	c13.8-36.5,16.2-75.8,6.9-113.7c-9.3-37.9-29.7-71.6-58.8-97.5c-29.2-25.9-65.1-42.1-103.8-46.9L386.6,74.7
	C378.8,73.7,370.9,73.2,363.1,73.2z M1819.6,4541.5l-0.5-0.2c-1.3-0.4-3.3-1.5-5.6-2.8c-4-2.2-8.9-4.9-14.5-5.6L530.1,4373.1
	c-35.1-4.3-67.5-19.6-93.7-44.3c-26.1-24.5-43.6-56-50.8-91.1c-7.1-34.9-3.2-70.6,11.4-103.2c14.6-32.7,38.5-59.4,69.3-77.2
	l882.2-511.4l-907.4-191c-32.9-6.9-62.8-23.4-86.3-47.8c-23.5-24.2-39-54.6-44.9-87.9c-5.9-33.2-1.8-67.1,11.9-97.9
	c13.7-30.8,36.1-56.6,64.7-74.5l701.5-438.4l-759.4-44.2c-72.6-4.2-134-54.2-152.9-124.4c-18.9-70.2,9.2-144.3,69.8-184.4
	l1005.5-664.2l-1028-172.8c-33.2-5.6-63.6-20.8-88.1-43.9c-24.4-23.2-41.2-52.8-48.5-85.6c-7.3-32.9-4.7-66.8,7.6-98.1
	c12.3-31.3,33.4-58,61.1-77.1l866.5-598.2L342.7,432c-44.6-5.5-84.4-28.1-112.2-63.6c-27.7-35.5-40-79.6-34.5-124.2
	c10.4-84.3,82.2-148,167.1-148c6.9,0,13.8,0.4,20.7,1.3L1502.6,235c34.1,4.2,65.6,18.4,91.3,41.2c25.7,22.8,43.6,52.5,51.8,85.8
	c8.2,33.3,6.1,67.9-6.1,100c-12.2,32.1-33.6,59.4-61.8,78.9l-889.4,614l1040.4,174.9c33.5,5.6,64.2,21,88.7,44.5
	c24.5,23.5,41.2,53.5,48.2,86.7c7,33.2,3.9,67.4-8.9,98.8c-12.9,31.4-34.7,57.9-63,76.7L854,2257.3l781.5,45.5
	c35.9,2.1,69.6,15.3,97.4,38.2c27.8,22.9,47.2,53.4,56.1,88.3c8.9,34.9,6.5,71-6.8,104.4c-13.4,33.4-36.6,61.2-67.1,80.2l-795.3,497
	l928.1,195.2c33.5,7,63.7,23.9,87.3,48.7c23.6,24.8,39,55.8,44.4,89.6c5.4,33.8,0.5,68-14.2,99c-14.7,30.9-38.1,56.3-67.7,73.5
	l-828,479.6l770.4,94.9c44.1,5.4,83.9,29.2,112,67c27.5,37,40.1,83.6,34.6,128.1c-5.1,41.4-24.9,80.3-55.9,109.4
	c-31.2,29.4-70.5,45.6-110.8,45.7L1819.6,4541.5z M363.1,103.2c-81.4,0-150.2,61-160.1,141.8c-5.3,42.7,6.5,85,33.1,119.1
	s64.8,55.7,107.5,60.9l697.1,85.7L159,1119.3c-26.5,18.3-46.8,43.9-58.6,73.9c-11.8,30-14.3,62.6-7.3,94c7,31.5,23.1,59.9,46.5,82.1
	c23.4,22.2,52.6,36.8,84.4,42.1l1045.6,175.8l-1020.3,674c-58.1,38.4-85,109.4-66.9,176.7c18.1,67.3,77,115.2,146.6,119.3
	l781.4,45.5l-720.1,450.1c-27.4,17.1-48.8,41.8-62,71.4c-13.1,29.5-17.1,62-11.4,93.9c5.7,31.9,20.5,61,43,84.2
	c22.6,23.3,51.2,39.1,82.8,45.8l925.3,194.8l-7.9,4.6l-890.1,516c-29.5,17.1-52.4,42.6-66.4,74c-14,31.3-17.7,65.5-10.9,99
	c6.9,33.6,23.7,63.8,48.7,87.4c25.1,23.6,56.2,38.3,89.8,42.5L1799.8,4526c6.9,0.9,12.5,3.9,17,6.4c0.9,0.5,2.9,1.6,3.9,2
	c38.2-0.3,75.6-15.8,105.3-43.8c29.7-28,48.8-65.4,53.7-105.2c5.3-42.7-6.9-87.5-33.3-123c-26.9-36.2-65-59-107.2-64.2l-791.1-97.4
	l846-490c28.4-16.4,50.9-40.8,64.9-70.5c14.1-29.6,18.8-62.4,13.6-94.8c-5.2-32.4-19.9-62.1-42.5-85.9
	c-22.6-23.8-51.6-39.9-83.7-46.6l-945.2-198.7l7.4-4.6l802.6-501.7c29.3-18.3,51.5-44.9,64.3-76.9c12.8-32,15.1-66.6,6.6-100
	c-8.5-33.4-27.1-62.7-53.7-84.6c-26.6-21.9-58.9-34.6-93.3-36.6L832.6,2263l957.2-632.3c27.2-17.9,48.1-43.4,60.4-73.5
	c12.4-30.1,15.3-62.9,8.6-94.7c-6.7-31.9-22.7-60.6-46.2-83.1c-23.5-22.5-52.9-37.3-85-42.7L670.1,1159l903.6-623.8
	c27.1-18.7,47.6-44.8,59.2-75.6s13.7-63.9,5.8-95.9c-7.9-32-25-60.4-49.6-82.2c-24.6-21.8-54.9-35.5-87.5-39.5L382.9,104.5
	C376.4,103.6,369.7,103.2,363.1,103.2z M1819.7,4471.5c-9,0-14.7-5.5-17.7-8.7L538.6,4300c-42-5.2-75.9-36.5-84.4-78.1
	c-8.5-41.5,10.5-83.7,47.1-104.9l969.1-561.3c11.2-6.5,17.4-19.4,15.3-32.2c-2-12.8-11.9-23.2-24.6-25.8L455.5,3286.1
	c-39.5-8.3-69.7-39.4-76.7-79.2c-7.1-39.8,10.5-79.3,44.8-100.7l803.9-502.5c11.7-7.3,17.2-21.2,13.8-34.5
	c-3.4-13.3-14.9-22.8-28.7-23.6l-880.1-51.3c-42.4-2.5-78.3-31.7-89.4-72.7c-11-41,5.4-84.4,40.8-107.8L1371,1595.8
	c10.9-7.2,16.2-20.1,13.5-32.8c-2.7-12.7-12.7-22.4-25.6-24.5l-1124.5-189c-39.7-6.7-71.1-36.4-79.8-75.8
	c-8.8-39.3,7-79.5,40.2-102.4l949.8-655.7c10.7-7.4,15.8-20.8,12.7-33.4c-3.1-12.6-13.8-22.2-26.7-23.7l-779.3-95.8
	c-26.1-3.2-49.4-16.4-65.6-37.2s-23.4-46.5-20.2-72.6c6.1-49.3,48-86.5,97.6-86.5c4,0,8.1,0.3,12.2,0.7L1494,304.5
	c40.3,5,73.9,34.8,83.6,74.3c9.7,39.5-6.3,81.5-39.7,104.6l-967.5,667.9c-10.6,7.3-15.7,20.2-12.9,32.8s12.8,22.1,25.5,24.2
	l1134,190.6c40.2,6.8,71.6,36.9,80,76.7c8.4,39.9-8.1,80.1-42.1,102.6L718.8,2262.7c-11.3,7.5-16.6,21.3-13.1,34.5
	c3.5,13.1,15,22.5,28.6,23.3l897.1,52.3c43,2.5,79,32.2,89.7,73.9c10.7,41.7-6.7,85.1-43.2,107.9l-876.3,547.7
	c-11,6.8-16.6,19.5-14.3,32.2c2.3,12.7,11.9,22.7,24.5,25.3l1021.7,214.9c39.6,8.3,70.6,40.8,77,80.9c6.4,40.1-12.8,80.6-47.9,100.9
	l-927.3,537.3c-11.6,6.7-17.8,20.7-15.1,34c2.8,13.6,13.9,24.3,27,25.9l884.3,110.7c25.8,3.2,49,16.9,65.4,38.6
	c16.4,21.7,23.6,48.3,20.3,74.8C1910.9,4429.5,1867.1,4471.5,1819.7,4471.5z M363.1,173.2c-46.1,0-85,34.5-90.7,80.4
	c-3,24.2,3.7,48.2,18.7,67.5c15.1,19.3,36.7,31.5,60.9,34.5l779.3,95.8c15.8,1.9,28.9,13.6,32.7,29c3.8,15.4-2.4,31.8-15.5,40.9
	L198.8,1177c-30.8,21.3-45.5,58.6-37.3,95.2c8.1,36.5,37.2,64.2,74.1,70.4l1124.5,189c15.7,2.6,28,14.4,31.3,30
	c3.3,15.6-3.2,31.3-16.4,40.1L287.8,2319.7c-32.9,21.8-48.2,62-37.9,100.1c10.3,38.1,43.6,65.3,83,67.6l880.1,51.3
	c16.8,1,30.9,12.6,35.1,28.9c4.2,16.3-2.6,33.3-16.9,42.2l-803.9,502.5c-31.8,19.9-48.2,56.6-41.6,93.6c6.6,37,34.5,65.8,71.3,73.5
	l1005.7,211.5c15.5,3.3,27.6,16,30.1,31.6c2.5,15.6-5,31.5-18.7,39.4l-969.1,561.3c-34.1,19.7-51.7,58.9-43.8,97.5
	c7.9,38.6,39.4,67.7,78.4,72.5l1266,163.1l0.9,1c3.2,3.6,7.2,7.3,13.3,7.3c44,0,84.7-39.3,90.7-87.6c3-24.7-3.7-49.5-19-69.7
	c-15.2-20.2-36.8-32.9-60.7-35.9l-884.3-110.7c-16.1-2-29.6-14.9-33-31.4c-3.3-16.2,4.3-33.3,18.4-41.5l927.3-537.3
	c32.6-18.9,50.5-56.5,44.5-93.8c-6-37.2-34.7-67.4-71.5-75.1L810.4,3166.6c-15.5-3.2-27.2-15.4-30-31c-2.8-15.6,4.1-31,17.5-39.4
	l876.3-547.7c33.9-21.2,50.1-61.5,40.2-100.2c-9.9-38.8-43.4-66.4-83.3-68.7l-897.1-52.3c-16.6-1-30.6-12.4-34.9-28.4
	c-4.3-16,2.1-33,16-42.1l1036.2-684.5c31.6-20.9,46.9-58.3,39.1-95.3s-37-65-74.3-71.3l-1134-190.6c-15.5-2.6-27.8-14.2-31.2-29.6
	c-3.4-15.4,2.7-31.1,15.7-40L1534,477.5c31.1-21.4,45.9-60.5,36.9-97.1c-9-36.7-40.2-64.4-77.7-69L374.4,173.9
	C370.7,173.5,366.8,173.2,363.1,173.2z M1823.2,4441.4l-1.2-1.3c-2.4-2.6-5.8-5.8-10.8-6.4L542.4,4270.2
	c-29.2-3.6-52.8-25.4-58.7-54.3c-5.9-28.9,7.3-58.2,32.8-73l969.1-561.3c21.9-12.7,33.9-38,29.9-62.9c-4-25-23.3-45.2-48.1-50.5
	L461.7,3256.8c-27.5-5.8-48.4-27.4-53.4-55.1c-4.9-27.7,7.3-55.2,31.1-70.1l803.9-502.5c22.8-14.2,33.6-41.3,27-67.4
	c-6.7-26.1-29.2-44.6-56-46.2l-880.1-51.3c-29.5-1.7-54.5-22-62.2-50.6c-7.7-28.5,3.7-58.7,28.4-75l1087.1-718.1
	c21.2-14,31.5-39.2,26.3-64.1c-5.3-24.9-24.9-43.7-50-47.9l-1124.5-189c-27.6-4.6-49.4-25.3-55.5-52.7c-6.1-27.4,4.9-55.3,27.9-71.2
	l949.8-655.7c20.9-14.4,30.8-40.6,24.8-65.3c-6.1-24.6-27-43.3-52.2-46.4l-779.3-95.8c-18.1-2.2-34.3-11.4-45.6-25.8
	c-11.3-14.4-16.3-32.4-14-50.5c4.2-34.3,33.4-60.2,67.8-60.2c2.8,0,5.7,0.2,8.5,0.5l1118.8,137.5c28,3.4,51.4,24.2,58.2,51.6
	c6.7,27.4-4.3,56.7-27.6,72.7l-967.5,667.9c-20.7,14.3-30.6,39.4-25.1,64c5.5,24.6,25,43.1,49.8,47.3l1134,190.6
	c27.9,4.7,49.8,25.6,55.7,53.4c5.9,27.7-5.6,55.7-29.3,71.3L702.3,2237.6c-22.1,14.6-32.4,41.7-25.5,67.3
	c6.9,25.6,29.3,43.9,55.8,45.4l897.1,52.3c29.9,1.7,55,22.4,62.4,51.4c7.4,29-4.7,59.2-30.1,75.1l-876.3,547.7
	c-21.4,13.4-32.4,38.1-28,62.9c4.4,24.8,23.2,44.3,47.9,49.5L1827.3,3404c27.6,5.8,49.1,28.4,53.5,56.3c4.5,27.9-8.9,56.1-33.3,70.2
	l-927.3,537.3c-22.9,13.3-34.8,39.8-29.4,66c5.3,26.1,27,46.5,52.7,49.6l884.3,110.7c36.4,4.5,64.3,41.9,59.6,80
	c-3.7,29.7-28.6,63.9-62.6,67.1L1823.2,4441.4z M363.1,203.2c-30.9,0-57.1,23.2-60.9,54c-2,16.3,2.5,32.4,12.6,45.3
	c10.1,13,24.7,21.2,40.9,23.2l779.3,95.8c28,3.4,51.4,24.2,58.2,51.6c6.7,27.4-4.4,56.7-27.6,72.7l-949.8,655.7
	c-20.7,14.3-30.6,39.4-25.1,64c5.5,24.6,25,43.1,49.8,47.3l1124.5,189c27.9,4.7,49.8,25.6,55.7,53.4c5.9,27.7-5.6,55.7-29.3,71.3
	L304.4,2344.7c-22.1,14.6-32.4,41.7-25.5,67.3c6.9,25.6,29.3,43.9,55.8,45.4l880.1,51.3c29.9,1.7,55,22.4,62.4,51.4
	c7.4,29-4.7,59.2-30.1,75l-803.9,502.5c-21.4,13.4-32.4,38.1-28,62.9c4.4,24.8,23.2,44.2,47.9,49.4l1005.7,211.5
	c27.6,5.8,49.1,28.4,53.5,56.2c4.5,27.8-8.9,56-33.3,70.1L519.9,4149c-22.9,13.3-34.7,39.6-29.4,65.5c5.3,25.9,26.5,45.5,52.7,48.7
	l1268.9,163.5c6.4,0.8,10.8,4.3,13.8,7.3c29.6-3.9,51.3-34.3,54.6-60.8c4.2-34.4-20.8-68.1-53.5-72.2l-884.3-110.7
	c-28.7-3.5-52.8-26.2-58.7-55.2c-5.9-29.1,7.2-58.6,32.8-73.4l927.3-537.3c21.9-12.7,33.9-38,29.9-63.1c-4-25-23.3-45.3-48.1-50.5
	L804.2,3196c-27.5-5.8-48.4-27.4-53.3-55.1c-4.9-27.7,7.3-55.2,31.1-70.1l876.3-547.7c22.8-14.2,33.6-41.3,27-67.4
	c-6.7-26.1-29.2-44.6-56-46.2l-897.1-52.3c-29.5-1.7-54.5-22-62.2-50.6c-7.7-28.5,3.7-58.7,28.4-74.9l1036.2-684.5
	c21.2-14,31.5-39.2,26.3-64c-5.3-24.9-24.9-43.7-50-47.9L577,1244.7c-27.6-4.6-49.4-25.3-55.5-52.7c-6.1-27.4,4.9-55.3,27.9-71.2
	l967.5-667.9c20.9-14.4,30.8-40.6,24.8-65.3c-6.1-24.6-27-43.3-52.2-46.4L370.8,203.7C368.2,203.4,365.6,203.2,363.1,203.2z"/>
<path fill="#FFFFFF" stroke="#000000" stroke-width="36" stroke-miterlimit="10" d="M104.3,253.3c0.7-2.6,1.5-5.3,2.6-7.9
	l43.2-109.8c10.5-26.8,37-43.8,65.7-42.4c20.9,1.1,39.6,11.7,51.2,28.1c12.3-8.4,27.3-12.6,42.8-11.4c13.6,1,26.2,6.2,36.4,14.3
	c9.5-5.3,20.4-8.3,31.9-8.5c25.4-0.3,48.5,13.8,60,35.9c12.6-11.5,29.5-17.9,47.2-17.3c25,0.8,47.3,15.5,58.1,37.8
	c15.4-6.3,33.2-6.9,49.9-0.4c34.4,13.5,51.3,52.4,37.8,86.8L593,355.4c-10.2,25.9-35.3,42.8-63.1,42.5c-21.3-0.2-40.7-10.5-53-27
	c-13.1,14.1-32,22.2-52,21.3c-23.6-1-44.7-14.4-55.8-34.7c-8.3,3.6-17.4,5.6-26.9,5.6c-19.5,0-37.5-8.5-49.9-22.5
	c-13.5,11.6-31.4,17.6-49.9,15.9c-18.6-1.7-35.2-11.1-46.4-25.2c-15.7,6.9-34.1,7.8-51.4,1C112.9,319.7,96,285.6,104.3,253.3z"/>
<polyline fill="none" stroke="#FF69F4" stroke-width="180" stroke-linecap="round" stroke-linejoin="round" stroke-miterlimit="10" points="
	1341,1044.7 1468.3,1067.6 1328.2,1209.3 1493.1,1249.9 1338.2,1400 1484.6,1412.5 1353.8,1532.3 1505.9,1579.2 1362.4,1701.1 
	1506.7,1727.1 "/>
<path fill="#FFFFFF" stroke="#000000" stroke-width="36" stroke-miterlimit="10" d="M126,337.4c0.7-2.6,1.5-5.3,2.6-7.9l43.2-109.8
	c10.5-26.8,37-43.8,65.7-42.4c20.9,1.1,39.6,11.7,51.2,28.1c12.3-8.4,27.3-12.6,42.8-11.4c13.6,1,26.2,6.2,36.4,14.3
	c9.5-5.3,20.4-8.3,31.9-8.5c25.4-0.3,48.5,13.8,60,35.9c12.6-11.5,29.5-17.9,47.2-17.3c25,0.8,47.3,15.5,58.1,37.8
	c15.4-6.3,33.2-6.9,49.9-0.4c34.4,13.5,51.3,52.4,37.8,86.8l-38.1,96.9c-10.2,25.9-35.3,42.8-63.1,42.5c-21.3-0.2-40.7-10.5-53-27
	c-13.1,14.1-32,22.2-52,21.3c-23.6-1-44.7-14.4-55.8-34.7c-8.3,3.6-17.4,5.6-26.9,5.6c-19.5,0-37.5-8.5-49.9-22.5
	c-13.5,11.6-31.4,17.6-49.9,15.9c-18.6-1.7-35.2-11.1-46.4-25.2c-15.7,6.9-34.1,7.8-51.4,1C134.6,403.8,117.7,369.7,126,337.4z"/>
<path fill="#FFFFFF" stroke="#000000" stroke-width="36" stroke-miterlimit="10" d="M154.6,419.1c0.7-2.6,1.5-5.3,2.6-7.9
	l43.2-109.8c10.5-26.8,37-43.8,65.7-42.4c20.9,1.1,39.6,11.7,51.2,28.1c12.3-8.4,27.3-12.6,42.8-11.4c13.6,1,26.2,6.2,36.4,14.3
	c9.5-5.3,20.4-8.3,31.9-8.5c25.4-0.3,48.5,13.8,60,35.9c12.6-11.5,29.5-17.9,47.2-17.3c25,0.8,47.3,15.5,58.1,37.8
	c15.4-6.3,33.2-6.9,49.9-0.4c34.4,13.5,51.3,52.4,37.8,86.8l-38.1,96.9c-10.2,25.9-35.3,42.8-63.1,42.5c-21.3-0.2-40.7-10.5-53-27
	c-13.1,14.1-32,22.2-52,21.3c-23.6-1-44.7-14.4-55.8-34.7c-8.3,3.6-17.4,5.6-26.9,5.6c-19.5,0-37.5-8.5-49.9-22.5
	c-13.5,11.6-31.4,17.6-49.9,15.9c-18.6-1.7-35.2-11.1-46.4-25.2c-15.7,6.9-34.1,7.8-51.4,1C163.1,485.5,146.2,451.4,154.6,419.1z"/>
<path fill="#FFFFFF" stroke="#000000" stroke-width="36" stroke-miterlimit="10" d="M175.6,497.8c0.7-2.6,1.5-5.3,2.6-7.9
	l43.2-109.8c10.5-26.8,37-43.8,65.7-42.4c20.9,1.1,39.6,11.7,51.2,28.1c12.3-8.4,27.3-12.6,42.8-11.4c13.6,1,26.2,6.2,36.4,14.3
	c9.5-5.3,20.4-8.3,31.9-8.5c25.4-0.3,48.5,13.8,60,35.9c12.6-11.5,29.5-17.9,47.2-17.3c25,0.8,47.3,15.5,58.1,37.8
	c15.4-6.3,33.2-6.9,49.9-0.4c34.4,13.5,51.3,52.4,37.8,86.8l-38.1,96.9c-10.2,25.9-35.3,42.8-63.1,42.5c-21.3-0.2-40.7-10.5-53-27
	c-13.1,14.1-32,22.2-52,21.3c-23.6-1-44.7-14.4-55.8-34.7c-8.3,3.6-17.4,5.6-26.9,5.6c-19.5,0-37.5-8.5-49.9-22.5
	c-13.5,11.6-31.4,17.6-49.9,15.9c-18.6-1.7-35.2-11.1-46.4-25.2c-15.7,6.9-34.1,7.8-51.4,1C184.1,564.3,167.3,530.1,175.6,497.8z"/>
<path fill="#FFFFFF" stroke="#000000" stroke-width="36" stroke-miterlimit="10" d="M199.5,581.4c0.7-2.6,1.5-5.3,2.6-7.9
	l43.2-109.8c10.5-26.8,37-43.8,65.7-42.4c20.9,1.1,39.6,11.7,51.2,28.1c12.3-8.4,27.3-12.6,42.8-11.4c13.6,1,26.2,6.2,36.4,14.3
	c9.5-5.3,20.4-8.3,31.9-8.5c25.4-0.3,48.5,13.8,60,35.9c12.6-11.5,29.5-17.9,47.2-17.3c25,0.8,47.3,15.5,58.1,37.8
	c15.4-6.3,33.2-6.9,49.9-0.4c34.4,13.5,51.3,52.4,37.8,86.8l-38.1,96.9c-10.2,25.9-35.3,42.8-63.1,42.5c-21.3-0.2-40.7-10.5-53-27
	c-13.1,14.1-32,22.2-52,21.3c-23.6-1-44.7-14.4-55.8-34.7c-8.3,3.6-17.4,5.6-26.9,5.6c-19.5,0-37.5-8.5-49.9-22.5
	c-13.5,11.6-31.4,17.6-49.9,15.9c-18.6-1.7-35.2-11.1-46.4-25.2c-15.7,6.9-34.1,7.8-51.4,1C208,647.9,191.1,613.7,199.5,581.4z"/>
<path fill="#FFFFFF" stroke="#000000" stroke-width="36" stroke-miterlimit="10" d="M228,663.1c0.7-2.6,1.5-5.3,2.6-7.9l43.2-109.8
	c10.5-26.8,37-43.8,65.7-42.4c20.9,1.1,39.6,11.7,51.2,28.1c12.3-8.4,27.3-12.6,42.8-11.4c13.6,1,26.2,6.2,36.4,14.3
	c9.5-5.3,20.4-8.3,31.9-8.5c25.4-0.3,48.5,13.8,60,35.9c12.6-11.5,29.5-17.9,47.2-17.3c25,0.8,47.3,15.5,58.1,37.8
	c15.4-6.3,33.2-6.9,49.9-0.4c34.4,13.5,51.3,52.4,37.8,86.8l-38.1,96.9c-10.2,25.9-35.3,42.8-63.1,42.5c-21.3-0.2-40.7-10.5-53-27
	c-13.1,14.1-32,22.2-52,21.3c-23.6-1-44.7-14.4-55.8-34.7c-8.3,3.6-17.4,5.6-26.9,5.6c-19.5,0-37.5-8.5-49.9-22.5
	c-13.5,11.6-31.4,17.6-49.9,15.9c-18.6-1.7-35.2-11.1-46.4-25.2c-15.7,6.9-34.1,7.8-51.4,1C236.5,729.6,219.7,695.4,228,663.1z"/>
<path fill="#FFFFFF" stroke="#000000" stroke-width="36" stroke-miterlimit="10" d="M242.4,747.4c0.7-2.6,1.5-5.3,2.6-7.9
	l43.2-109.8c10.5-26.8,37-43.8,65.7-42.4c20.9,1.1,39.6,11.7,51.2,28.1c12.3-8.4,27.3-12.6,42.8-11.4c13.6,1,26.2,6.2,36.4,14.3
	c9.5-5.3,20.4-8.3,31.9-8.5c25.4-0.3,48.5,13.8,60,35.9c12.6-11.5,29.5-17.9,47.2-17.3c25,0.8,47.3,15.5,58.1,37.8
	c15.4-6.3,33.2-6.9,49.9-0.4c34.4,13.5,51.3,52.4,37.8,86.8l-38.1,96.9c-10.2,25.9-35.3,42.8-63.1,42.5c-21.3-0.2-40.7-10.5-53-27
	c-13.1,14.1-32,22.2-52,21.3c-23.6-1-44.7-14.4-55.8-34.7c-8.3,3.6-17.4,5.6-26.9,5.6c-19.5,0-37.5-8.5-49.9-22.5
	c-13.5,11.6-31.4,17.6-49.9,15.9c-18.6-1.7-35.2-11.1-46.4-25.2c-15.7,6.9-34.1,7.8-51.4,1C251,813.8,234.1,779.7,242.4,747.4z"/>
<path fill="#FFFFFF" stroke="#000000" stroke-width="36" stroke-miterlimit="10" d="M264.1,831.5c0.7-2.6,1.5-5.3,2.6-7.9
	l43.2-109.8c10.5-26.8,37-43.8,65.7-42.4c20.9,1.1,39.6,11.7,51.2,28.1c12.3-8.4,27.3-12.6,42.8-11.4c13.6,1,26.2,6.2,36.4,14.3
	c9.5-5.3,20.4-8.3,31.9-8.5c25.4-0.3,48.5,13.8,60,35.9c12.6-11.5,29.5-17.9,47.2-17.3c25,0.8,47.3,15.5,58.1,37.8
	c15.4-6.3,33.2-6.9,49.9-0.4c34.4,13.5,51.3,52.4,37.8,86.8l-38.1,96.9c-10.2,25.9-35.3,42.8-63.1,42.5c-21.3-0.2-40.7-10.5-53-27
	c-13.1,14.1-32,22.2-52,21.3c-23.6-1-44.7-14.4-55.8-34.7c-8.3,3.6-17.4,5.6-26.9,5.6c-19.5,0-37.5-8.5-49.9-22.5
	c-13.5,11.6-31.4,17.6-49.9,15.9c-18.6-1.7-35.2-11.1-46.4-25.2c-15.7,6.9-34.1,7.8-51.4,1C272.7,897.9,255.8,863.8,264.1,831.5z"/>
<path fill="#FFFFFF" stroke="#000000" stroke-width="36" stroke-miterlimit="10" d="M292.6,913.2c0.7-2.6,1.5-5.3,2.6-7.9
	l43.2-109.8c10.5-26.8,37-43.8,65.7-42.4c20.9,1.1,39.6,11.7,51.2,28.1c12.3-8.4,27.3-12.6,42.8-11.4c13.6,1,26.2,6.2,36.4,14.3
	c9.5-5.3,20.4-8.3,31.9-8.5c25.4-0.3,48.5,13.8,60,35.9c12.6-11.5,29.5-17.9,47.2-17.3c25,0.8,47.3,15.5,58.1,37.8
	c15.4-6.3,33.2-6.9,49.9-0.4c34.4,13.5,51.3,52.4,37.8,86.8l-38.1,96.9c-10.2,25.9-35.3,42.8-63.1,42.5c-21.3-0.2-40.7-10.5-53-27
	c-13.1,14.1-32,22.2-52,21.3c-23.6-1-44.7-14.4-55.8-34.7c-8.3,3.6-17.4,5.6-26.9,5.6c-19.5,0-37.5-8.5-49.9-22.5
	c-13.5,11.6-31.4,17.6-49.9,15.9c-18.6-1.7-35.2-11.1-46.4-25.2c-15.7,6.9-34.1,7.8-51.4,1C301.2,979.6,284.3,945.5,292.6,913.2z"/>
<path fill="#FFFFFF" stroke="#000000" stroke-width="36" stroke-miterlimit="10" d="M313.6,991.9c0.7-2.6,1.5-5.3,2.6-7.9
	l43.2-109.8c10.5-26.8,37-43.8,65.7-42.4c20.9,1.1,39.6,11.7,51.2,28.1c12.3-8.4,27.3-12.6,42.8-11.4c13.6,1,26.2,6.2,36.4,14.3
	c9.5-5.3,20.4-8.3,31.9-8.5c25.4-0.3,48.5,13.8,60,35.9c12.6-11.5,29.5-17.9,47.2-17.3c25,0.8,47.3,15.5,58.1,37.8
	c15.4-6.3,33.2-6.9,49.9-0.4c34.4,13.5,51.3,52.4,37.8,86.8l-38.1,96.9c-10.2,25.9-35.3,42.8-63.1,42.5c-21.3-0.2-40.7-10.5-53-27
	c-13.1,14.1-32,22.2-52,21.3c-23.6-1-44.7-14.4-55.8-34.7c-8.3,3.6-17.4,5.6-26.9,5.6c-19.5,0-37.5-8.5-49.9-22.5
	c-13.5,11.6-31.4,17.6-49.9,15.9c-18.6-1.7-35.2-11.1-46.4-25.2c-15.7,6.9-34.1,7.8-51.4,1C322.2,1058.3,305.3,1024.2,313.6,991.9z"
	/>
<path fill="#FFFFFF" stroke="#000000" stroke-width="36" stroke-miterlimit="10" d="M337.5,1075.5c0.7-2.6,1.5-5.3,2.6-7.9
	l43.2-109.8c10.5-26.8,37-43.8,65.7-42.4c20.9,1.1,39.6,11.7,51.2,28.1c12.3-8.4,27.3-12.6,42.8-11.4c13.6,1,26.2,6.2,36.4,14.3
	c9.5-5.3,20.4-8.3,31.9-8.5c25.4-0.3,48.5,13.8,60,35.9c12.6-11.5,29.5-17.9,47.2-17.3c25,0.8,47.3,15.5,58.1,37.8
	c15.4-6.3,33.2-6.9,49.9-0.4c34.4,13.5,51.3,52.4,37.8,86.8l-38.1,96.9c-10.2,25.9-35.3,42.8-63.1,42.5c-21.3-0.2-40.7-10.5-53-27
	c-13.1,14.1-32,22.2-52,21.3c-23.6-1-44.7-14.4-55.8-34.7c-8.3,3.6-17.4,5.6-26.9,5.6c-19.5,0-37.5-8.5-49.9-22.5
	c-13.5,11.6-31.4,17.6-49.9,15.9c-18.6-1.7-35.2-11.1-46.4-25.2c-15.7,6.9-34.1,7.8-51.4,1C346.1,1142,329.2,1107.8,337.5,1075.5z"
	/>
<path fill="#FFFFFF" stroke="#000000" stroke-width="36" stroke-miterlimit="10" d="M366,1157.2c0.7-2.6,1.5-5.3,2.6-7.9l43.2-109.8
	c10.5-26.8,37-43.8,65.7-42.4c20.9,1.1,39.6,11.7,51.2,28.1c12.3-8.4,27.3-12.6,42.8-11.4c13.6,1,26.2,6.2,36.4,14.3
	c9.5-5.3,20.4-8.3,31.9-8.5c25.4-0.3,48.5,13.8,60,35.9c12.6-11.5,29.5-17.9,47.2-17.3c25,0.8,47.3,15.5,58.1,37.8
	c15.4-6.3,33.2-6.9,49.9-0.4c34.4,13.5,51.3,52.4,37.8,86.8l-38.1,96.9c-10.2,25.9-35.3,42.8-63.1,42.5c-21.3-0.2-40.7-10.5-53-27
	c-13.1,14.1-32,22.2-52,21.3c-23.6-1-44.7-14.4-55.8-34.7c-8.3,3.6-17.4,5.6-26.9,5.6c-19.5,0-37.5-8.5-49.9-22.5
	c-13.5,11.6-31.4,17.6-49.9,15.9c-18.6-1.7-35.2-11.1-46.4-25.2c-15.7,6.9-34.1,7.8-51.4,1C374.6,1223.7,357.7,1189.5,366,1157.2z"
	/>
<path fill="#FFFFFF" stroke="#000000" stroke-width="36" stroke-miterlimit="10" d="M386.6,1225.5c0.7-2.6,1.5-5.3,2.6-7.9
	l43.2-109.8c10.5-26.8,37-43.8,65.7-42.4c20.9,1.1,39.6,11.7,51.2,28.1c12.3-8.4,27.3-12.6,42.8-11.4c13.6,1,26.2,6.2,36.4,14.3
	c9.5-5.3,20.4-8.3,31.9-8.5c25.4-0.3,48.5,13.8,60,35.9c12.6-11.5,29.5-17.9,47.2-17.3c25,0.8,47.3,15.5,58.1,37.8
	c15.4-6.3,33.2-6.9,49.9-0.4c34.4,13.5,51.3,52.4,37.8,86.8l-38.1,96.9c-10.2,25.9-35.3,42.8-63.1,42.5c-21.3-0.2-40.7-10.5-53-27
	c-13.1,14.1-32,22.2-52,21.3c-23.6-1-44.7-14.4-55.8-34.7c-8.3,3.6-17.4,5.6-26.9,5.6c-19.5,0-37.5-8.5-49.9-22.5
	c-13.5,11.6-31.4,17.6-49.9,15.9c-18.6-1.7-35.2-11.1-46.4-25.2c-15.7,6.9-34.1,7.8-51.4,1C395.2,1292,378.3,1257.8,386.6,1225.5z"
	/>
<path fill="#FFFFFF" stroke="#000000" stroke-width="36" stroke-miterlimit="10" d="M408.4,1309.6c0.7-2.6,1.5-5.3,2.6-7.9
	l43.2-109.8c10.5-26.8,37-43.8,65.7-42.4c20.9,1.1,39.6,11.7,51.2,28.1c12.3-8.4,27.3-12.6,42.8-11.4c13.6,1,26.2,6.2,36.4,14.3
	c9.5-5.3,20.4-8.3,31.9-8.5c25.4-0.3,48.5,13.8,60,35.9c12.6-11.5,29.5-17.9,47.2-17.3c25,0.8,47.3,15.5,58.1,37.8
	c15.4-6.3,33.2-6.9,49.9-0.4c34.4,13.5,51.3,52.4,37.8,86.8l-38.1,96.9c-10.2,25.9-35.3,42.8-63.1,42.5c-21.3-0.2-40.7-10.5-53-27
	c-13.1,14.1-32,22.2-52,21.3c-23.6-1-44.7-14.4-55.8-34.7c-8.3,3.6-17.4,5.6-26.9,5.6c-19.5,0-37.5-8.5-49.9-22.5
	c-13.5,11.6-31.4,17.6-49.9,15.9c-18.6-1.7-35.2-11.1-46.4-25.2c-15.7,6.9-34.1,7.8-51.4,1C416.9,1376,400,1341.9,408.4,1309.6z"/>
<path fill="#FFFFFF" stroke="#000000" stroke-width="36" stroke-miterlimit="10" d="M436.9,1391.3c0.7-2.6,1.5-5.3,2.6-7.9
	l43.2-109.8c10.5-26.8,37-43.8,65.7-42.4c20.9,1.1,39.6,11.7,51.2,28.1c12.3-8.4,27.3-12.6,42.8-11.4c13.6,1,26.2,6.2,36.4,14.3
	c9.5-5.3,20.4-8.3,31.9-8.5c25.4-0.3,48.5,13.8,60,35.9c12.6-11.5,29.5-17.9,47.2-17.3c25,0.8,47.3,15.5,58.1,37.8
	c15.4-6.3,33.2-6.9,49.9-0.4c34.4,13.5,51.3,52.4,37.8,86.8l-38.1,96.9c-10.2,25.9-35.3,42.8-63.1,42.5c-21.3-0.2-40.7-10.5-53-27
	c-13.1,14.1-32,22.2-52,21.3c-23.6-1-44.7-14.4-55.8-34.7c-8.3,3.6-17.4,5.6-26.9,5.6c-19.5,0-37.5-8.5-49.9-22.5
	c-13.5,11.6-31.4,17.6-49.9,15.9c-18.6-1.7-35.2-11.1-46.4-25.2c-15.7,6.9-34.1,7.8-51.4,1C445.4,1457.7,428.6,1423.6,436.9,1391.3z
	"/>
<path fill="#FFFFFF" stroke="#000000" stroke-width="36" stroke-miterlimit="10" d="M457.9,1470c0.7-2.6,1.5-5.3,2.6-7.9l43.2-109.8
	c10.5-26.8,37-43.8,65.7-42.4c20.9,1.1,39.6,11.7,51.2,28.1c12.3-8.4,27.3-12.6,42.8-11.4c13.6,1,26.2,6.2,36.4,14.3
	c9.5-5.3,20.4-8.3,31.9-8.5c25.4-0.3,48.5,13.8,60,35.9c12.6-11.5,29.5-17.9,47.2-17.3c25,0.8,47.3,15.5,58.1,37.8
	c15.4-6.3,33.2-6.9,49.9-0.4c34.4,13.5,51.3,52.4,37.8,86.8l-38.1,96.9c-10.2,25.9-35.3,42.8-63.1,42.5c-21.3-0.2-40.7-10.5-53-27
	c-13.1,14.1-32,22.2-52,21.3c-23.6-1-44.7-14.4-55.8-34.7c-8.3,3.6-17.4,5.6-26.9,5.6c-19.5,0-37.5-8.5-49.9-22.5
	c-13.5,11.6-31.4,17.6-49.9,15.9c-18.6-1.7-35.2-11.1-46.4-25.2c-15.7,6.9-34.1,7.8-51.4,1C466.4,1536.5,449.6,1502.3,457.9,1470z"
	/>
<path fill="#FFFFFF" stroke="#000000" stroke-width="36" stroke-miterlimit="10" d="M481.8,1553.7c0.7-2.6,1.5-5.3,2.6-7.9
	l43.2-109.8c10.5-26.8,37-43.8,65.7-42.4c20.9,1.1,39.6,11.7,51.2,28.1c12.3-8.4,27.3-12.6,42.8-11.4c13.6,1,26.2,6.2,36.4,14.3
	c9.5-5.3,20.4-8.3,31.9-8.5c25.4-0.3,48.5,13.8,60,35.9c12.6-11.5,29.5-17.9,47.2-17.3c25,0.8,47.3,15.5,58.1,37.8
	c15.4-6.3,33.2-6.9,49.9-0.4c34.4,13.5,51.3,52.4,37.8,86.8l-38.1,96.9c-10.2,25.9-35.3,42.8-63.1,42.5c-21.3-0.2-40.7-10.5-53-27
	c-13.1,14.1-32,22.2-52,21.3c-23.6-1-44.7-14.4-55.8-34.7c-8.3,3.6-17.4,5.6-26.9,5.6c-19.5,0-37.5-8.5-49.9-22.5
	c-13.5,11.6-31.4,17.6-49.9,15.9c-18.6-1.7-35.2-11.1-46.4-25.2c-15.7,6.9-34.1,7.8-51.4,1C490.3,1620.1,473.5,1585.9,481.8,1553.7z
	"/>
<path fill="#FFFFFF" stroke="#000000" stroke-width="36" stroke-miterlimit="10" d="M510.3,1635.4c0.7-2.6,1.5-5.3,2.6-7.9
	l43.2-109.8c10.5-26.8,37-43.8,65.7-42.4c20.9,1.1,39.6,11.7,51.2,28.1c12.3-8.4,27.3-12.6,42.8-11.4c13.6,1,26.2,6.2,36.4,14.3
	c9.5-5.3,20.4-8.3,31.9-8.5c25.4-0.3,48.5,13.8,60,35.9c12.6-11.5,29.5-17.9,47.2-17.3c25,0.8,47.3,15.5,58.1,37.8
	c15.4-6.3,33.2-6.9,49.9-0.4c34.4,13.5,51.3,52.4,37.8,86.8l-38.1,96.9c-10.2,25.9-35.3,42.8-63.1,42.5c-21.3-0.2-40.7-10.5-53-27
	c-13.1,14.1-32,22.2-52,21.3c-23.6-1-44.7-14.4-55.8-34.7c-8.3,3.6-17.4,5.6-26.9,5.6c-19.5,0-37.5-8.5-49.9-22.5
	c-13.5,11.6-31.4,17.6-49.9,15.9c-18.6-1.7-35.2-11.1-46.4-25.2c-15.7,6.9-34.1,7.8-51.4,1C518.8,1701.8,502,1667.6,510.3,1635.4z"
	/>
<path fill="#FFFFFF" stroke="#000000" stroke-width="36" stroke-miterlimit="10" d="M524.7,1719.6c0.7-2.6,1.5-5.3,2.6-7.9
	l43.2-109.8c10.5-26.8,37-43.8,65.7-42.4c20.9,1.1,39.6,11.7,51.2,28.1c12.3-8.4,27.3-12.6,42.8-11.4c13.6,1,26.2,6.2,36.4,14.3
	c9.5-5.3,20.4-8.3,31.9-8.5c25.4-0.3,48.5,13.8,60,35.9c12.6-11.5,29.5-17.9,47.2-17.3c25,0.8,47.3,15.5,58.1,37.8
	c15.4-6.3,33.2-6.9,49.9-0.4c34.4,13.5,51.3,52.4,37.8,86.8l-38.1,96.9c-10.2,25.9-35.3,42.8-63.1,42.5c-21.3-0.2-40.7-10.5-53-27
	c-13.1,14.1-32,22.2-52,21.3c-23.6-1-44.7-14.4-55.8-34.7c-8.3,3.6-17.4,5.6-26.9,5.6c-19.5,0-37.5-8.5-49.9-22.5
	c-13.5,11.6-31.4,17.6-49.9,15.9c-18.6-1.7-35.2-11.1-46.4-25.2c-15.7,6.9-34.1,7.8-51.4,1C533.3,1786,516.4,1751.9,524.7,1719.6z"
	/>
<path fill="#FFFFFF" stroke="#000000" stroke-width="36" stroke-miterlimit="10" d="M546.4,1803.7c0.7-2.6,1.5-5.3,2.6-7.9
	l43.2-109.8c10.5-26.8,37-43.8,65.7-42.4c20.9,1.1,39.6,11.7,51.2,28.1c12.3-8.4,27.3-12.6,42.8-11.4c13.6,1,26.2,6.2,36.4,14.3
	c9.5-5.3,20.4-8.3,31.9-8.5c25.4-0.3,48.5,13.8,60,35.9c12.6-11.5,29.5-17.9,47.2-17.3c25,0.8,47.3,15.5,58.1,37.8
	c15.4-6.3,33.2-6.9,49.9-0.4c34.4,13.5,51.3,52.4,37.8,86.8l-38.1,96.9c-10.2,25.9-35.3,42.8-63.1,42.5c-21.3-0.2-40.7-10.5-53-27
	c-13.1,14.1-32,22.2-52,21.3c-23.6-1-44.7-14.4-55.8-34.7c-8.3,3.6-17.4,5.6-26.9,5.6c-19.5,0-37.5-8.5-49.9-22.5
	c-13.5,11.6-31.4,17.6-49.9,15.9c-18.6-1.7-35.2-11.1-46.4-25.2c-15.7,6.9-34.1,7.8-51.4,1C555,1870.1,538.1,1836,546.4,1803.7z"/>
<path fill="#FFFFFF" stroke="#000000" stroke-width="36" stroke-miterlimit="10" d="M574.9,1885.4c0.7-2.6,1.5-5.3,2.6-7.9
	l43.2-109.8c10.5-26.8,37-43.8,65.7-42.4c20.9,1.1,39.6,11.7,51.2,28.1c12.3-8.4,27.3-12.6,42.8-11.4c13.6,1,26.2,6.2,36.4,14.3
	c9.5-5.3,20.4-8.3,31.9-8.5c25.4-0.3,48.5,13.8,60,35.9c12.6-11.5,29.5-17.9,47.2-17.3c25,0.8,47.3,15.5,58.1,37.8
	c15.4-6.3,33.2-6.9,49.9-0.4c34.4,13.5,51.3,52.4,37.8,86.8l-38.1,96.9c-10.2,25.9-35.3,42.8-63.1,42.5c-21.3-0.2-40.7-10.5-53-27
	c-13.1,14.1-32,22.2-52,21.3c-23.6-1-44.7-14.4-55.8-34.7c-8.3,3.6-17.4,5.6-26.9,5.6c-19.5,0-37.5-8.5-49.9-22.5
	c-13.5,11.6-31.4,17.6-49.9,15.9c-18.6-1.7-35.2-11.1-46.4-25.2c-15.7,6.9-34.1,7.8-51.4,1C583.5,1951.8,566.6,1917.7,574.9,1885.4z
	"/>
<path fill="#FFFFFF" stroke="#000000" stroke-width="36" stroke-miterlimit="10" d="M595.9,1964.1c0.7-2.6,1.5-5.3,2.6-7.9
	l43.2-109.8c10.5-26.8,37-43.8,65.7-42.4c20.9,1.1,39.6,11.7,51.2,28.1c12.3-8.4,27.3-12.6,42.8-11.4c13.6,1,26.2,6.2,36.4,14.3
	c9.5-5.3,20.4-8.3,31.9-8.5c25.4-0.3,48.5,13.8,60,35.9c12.6-11.5,29.5-17.9,47.2-17.3c25,0.8,47.3,15.5,58.1,37.8
	c15.4-6.3,33.2-6.9,49.9-0.4c34.4,13.5,51.3,52.4,37.8,86.8l-38.1,96.9c-10.2,25.9-35.3,42.8-63.1,42.5c-21.3-0.2-40.7-10.5-53-27
	c-13.1,14.1-32,22.2-52,21.3c-23.6-1-44.7-14.4-55.8-34.7c-8.3,3.6-17.4,5.6-26.9,5.6c-19.5,0-37.5-8.5-49.9-22.5
	c-13.5,11.6-31.4,17.6-49.9,15.9c-18.6-1.7-35.2-11.1-46.4-25.2c-15.7,6.9-34.1,7.8-51.4,1C604.5,2030.6,587.6,1996.4,595.9,1964.1z
	"/>
<path fill="#FFFFFF" stroke="#000000" stroke-width="36" stroke-miterlimit="10" d="M619.8,2047.7c0.7-2.6,1.5-5.3,2.6-7.9
	l43.2-109.8c10.5-26.8,37-43.8,65.7-42.4c20.9,1.1,39.6,11.7,51.2,28.1c12.3-8.4,27.3-12.6,42.8-11.4c13.6,1,26.2,6.2,36.4,14.3
	c9.5-5.3,20.4-8.3,31.9-8.5c25.4-0.3,48.5,13.8,60,35.9c12.6-11.5,29.5-17.9,47.2-17.3c25,0.8,47.3,15.5,58.1,37.8
	c15.4-6.3,33.2-6.9,49.9-0.4c34.4,13.5,51.3,52.4,37.8,86.8l-38.1,96.9c-10.2,25.9-35.3,42.8-63.1,42.5c-21.3-0.2-40.7-10.5-53-27
	c-13.1,14.1-32,22.2-52,21.3c-23.6-1-44.7-14.4-55.8-34.7c-8.3,3.6-17.4,5.6-26.9,5.6c-19.5,0-37.5-8.5-49.9-22.5
	c-13.5,11.6-31.4,17.6-49.9,15.9c-18.6-1.7-35.2-11.1-46.4-25.2c-15.7,6.9-34.1,7.8-51.4,1C628.4,2114.2,611.5,2080,619.8,2047.7z"
	/>
<path fill="#FFFFFF" stroke="#000000" stroke-width="36" stroke-miterlimit="10" d="M648.3,2129.4c0.7-2.6,1.5-5.3,2.6-7.9
	l43.2-109.8c10.5-26.8,37-43.8,65.7-42.4c20.9,1.1,39.6,11.7,51.2,28.1c12.3-8.4,27.3-12.6,42.8-11.4c13.6,1,26.2,6.2,36.4,14.3
	c9.5-5.3,20.4-8.3,31.9-8.5c25.4-0.3,48.5,13.8,60,35.9c12.6-11.5,29.5-17.9,47.2-17.3c25,0.8,47.3,15.5,58.1,37.8
	c15.4-6.3,33.2-6.9,49.9-0.4c34.4,13.5,51.3,52.4,37.8,86.8l-38.1,96.9c-10.2,25.9-35.3,42.8-63.1,42.5c-21.3-0.2-40.7-10.5-53-27
	c-13.1,14.1-32,22.2-52,21.3c-23.6-1-44.7-14.4-55.8-34.7c-8.3,3.6-17.4,5.6-26.9,5.6c-19.5,0-37.5-8.5-49.9-22.5
	c-13.5,11.6-31.4,17.6-49.9,15.9c-18.6-1.7-35.2-11.1-46.4-25.2c-15.7,6.9-34.1,7.8-51.4,1C656.9,2195.9,640,2161.7,648.3,2129.4z"
	/>
<path fill="#FFFFFF" stroke="#000000" stroke-width="36" stroke-miterlimit="10" d="M670.3,2212.6c0.7-2.6,1.5-5.3,2.6-7.9
	l43.2-109.8c10.5-26.8,37-43.8,65.7-42.4c20.9,1.1,39.6,11.7,51.2,28.1c12.3-8.4,27.3-12.6,42.8-11.4c13.6,1,26.2,6.2,36.4,14.3
	c9.5-5.3,20.4-8.3,31.9-8.5c25.4-0.3,48.5,13.8,60,35.9c12.6-11.5,29.5-17.9,47.2-17.3c25,0.8,47.3,15.5,58.1,37.8
	c15.4-6.3,33.2-6.9,49.9-0.4c34.4,13.5,51.3,52.4,37.8,86.8l-38.1,96.9c-10.2,25.9-35.3,42.8-63.1,42.5c-21.3-0.2-40.7-10.5-53-27
	c-13.1,14.1-32,22.2-52,21.3c-23.6-1-44.7-14.4-55.8-34.7c-8.3,3.6-17.4,5.6-26.9,5.6c-19.5,0-37.5-8.5-49.9-22.5
	c-13.5,11.6-31.4,17.6-49.9,15.9c-18.6-1.7-35.2-11.1-46.4-25.2c-15.7,6.9-34.1,7.8-51.4,1C678.9,2279,662,2244.8,670.3,2212.6z"/>
<path fill="#FFFFFF" stroke="#000000" stroke-width="36" stroke-miterlimit="10" d="M692,2296.6c0.7-2.6,1.5-5.3,2.6-7.9l43.2-109.8
	c10.5-26.8,37-43.8,65.7-42.4c20.9,1.1,39.6,11.7,51.2,28.1c12.3-8.4,27.3-12.6,42.8-11.4c13.6,1,26.2,6.2,36.4,14.3
	c9.5-5.3,20.4-8.3,31.9-8.5c25.4-0.3,48.5,13.8,60,35.9c12.6-11.5,29.5-17.9,47.2-17.3c25,0.8,47.3,15.5,58.1,37.8
	c15.4-6.3,33.2-6.9,49.9-0.4c34.4,13.5,51.3,52.4,37.8,86.8l-38.1,96.9c-10.2,25.9-35.3,42.8-63.1,42.5c-21.3-0.2-40.7-10.5-53-27
	c-13.1,14.1-32,22.2-52,21.3c-23.6-1-44.7-14.4-55.8-34.7c-8.3,3.6-17.4,5.6-26.9,5.6c-19.5,0-37.5-8.5-49.9-22.5
	c-13.5,11.6-31.4,17.6-49.9,15.9c-18.6-1.7-35.2-11.1-46.4-25.2c-15.7,6.9-34.1,7.8-51.4,1C700.6,2363.1,683.7,2328.9,692,2296.6z"
	/>
<path fill="#FFFFFF" stroke="#000000" stroke-width="36" stroke-miterlimit="10" d="M720.5,2378.3c0.7-2.6,1.5-5.3,2.6-7.9
	l43.2-109.8c10.5-26.8,37-43.8,65.7-42.4c20.9,1.1,39.6,11.7,51.2,28.1c12.3-8.4,27.3-12.6,42.8-11.4c13.6,1,26.2,6.2,36.4,14.3
	c9.5-5.3,20.4-8.3,31.9-8.5c25.4-0.3,48.5,13.8,60,35.9c12.6-11.5,29.5-17.9,47.2-17.3c25,0.8,47.3,15.5,58.1,37.8
	c15.4-6.3,33.2-6.9,49.9-0.4c34.4,13.5,51.3,52.4,37.8,86.8l-38.1,96.9c-10.2,25.9-35.3,42.8-63.1,42.5c-21.3-0.2-40.7-10.5-53-27
	c-13.1,14.1-32,22.2-52,21.3c-23.6-1-44.7-14.4-55.8-34.7c-8.3,3.6-17.4,5.6-26.9,5.6c-19.5,0-37.5-8.5-49.9-22.5
	c-13.5,11.6-31.4,17.6-49.9,15.9c-18.6-1.7-35.2-11.1-46.4-25.2c-15.7,6.9-34.1,7.8-51.4,1C729.1,2444.8,712.2,2410.6,720.5,2378.3z
	"/>
<path fill="#FFFFFF" stroke="#000000" stroke-width="36" stroke-miterlimit="10" d="M741.5,2457.1c0.7-2.6,1.5-5.3,2.6-7.9
	l43.2-109.8c10.5-26.8,37-43.8,65.7-42.4c20.9,1.1,39.6,11.7,51.2,28.1c12.3-8.4,27.3-12.6,42.8-11.4c13.6,1,26.2,6.2,36.4,14.3
	c9.5-5.3,20.4-8.3,31.9-8.5c25.4-0.3,48.5,13.8,60,35.9c12.6-11.5,29.5-17.9,47.2-17.3c25,0.8,47.3,15.5,58.1,37.8
	c15.4-6.3,33.2-6.9,49.9-0.4c34.4,13.5,51.3,52.4,37.8,86.8l-38.1,96.9c-10.2,25.9-35.3,42.8-63.1,42.5c-21.3-0.2-40.7-10.5-53-27
	c-13.1,14.1-32,22.2-52,21.3c-23.6-1-44.7-14.4-55.8-34.7c-8.3,3.6-17.4,5.6-26.9,5.6c-19.5,0-37.5-8.5-49.9-22.5
	c-13.5,11.6-31.4,17.6-49.9,15.9c-18.6-1.7-35.2-11.1-46.4-25.2c-15.7,6.9-34.1,7.8-51.4,1C750.1,2523.5,733.2,2489.3,741.5,2457.1z
	"/>
<path fill="#FFFFFF" stroke="#000000" stroke-width="36" stroke-miterlimit="10" d="M765.4,2540.7c0.7-2.6,1.5-5.3,2.6-7.9
	l43.2-109.8c10.5-26.8,37-43.8,65.7-42.4c20.9,1.1,39.6,11.7,51.2,28.1c12.3-8.4,27.3-12.6,42.8-11.4c13.6,1,26.2,6.2,36.4,14.3
	c9.5-5.3,20.4-8.3,31.9-8.5c25.4-0.3,48.5,13.8,60,35.9c12.6-11.5,29.5-17.9,47.2-17.3c25,0.8,47.3,15.5,58.1,37.8
	c15.4-6.3,33.2-6.9,49.9-0.4c34.4,13.5,51.3,52.4,37.8,86.8l-38.1,96.9c-10.2,25.9-35.3,42.8-63.1,42.5c-21.3-0.2-40.7-10.5-53-27
	c-13.1,14.1-32,22.2-52,21.3c-23.6-1-44.7-14.4-55.8-34.7c-8.3,3.6-17.4,5.6-26.9,5.6c-19.5,0-37.5-8.5-49.9-22.5
	c-13.5,11.6-31.4,17.6-49.9,15.9c-18.6-1.7-35.2-11.1-46.4-25.2c-15.7,6.9-34.1,7.8-51.4,1C774,2607.1,757.1,2572.9,765.4,2540.7z"
	/>
<path fill="#FFFFFF" stroke="#000000" stroke-width="36" stroke-miterlimit="10" d="M793.9,2622.4c0.7-2.6,1.5-5.3,2.6-7.9
	l43.2-109.8c10.5-26.8,37-43.8,65.7-42.4c20.9,1.1,39.6,11.7,51.2,28.1c12.3-8.4,27.3-12.6,42.8-11.4c13.6,1,26.2,6.2,36.4,14.3
	c9.5-5.3,20.4-8.3,31.9-8.5c25.4-0.3,48.5,13.8,60,35.9c12.6-11.5,29.5-17.9,47.2-17.3c25,0.8,47.3,15.5,58.1,37.8
	c15.4-6.3,33.2-6.9,49.9-0.4c34.4,13.5,51.3,52.4,37.8,86.8l-38.1,96.9c-10.2,25.9-35.3,42.8-63.1,42.5c-21.3-0.2-40.7-10.5-53-27
	c-13.1,14.1-32,22.2-52,21.3c-23.6-1-44.7-14.4-55.8-34.7c-8.3,3.6-17.4,5.6-26.9,5.6c-19.5,0-37.5-8.5-49.9-22.5
	c-13.5,11.6-31.4,17.6-49.9,15.9c-18.6-1.7-35.2-11.1-46.4-25.2c-15.7,6.9-34.1,7.8-51.4,1C802.5,2688.8,785.6,2654.6,793.9,2622.4z
	"/>
<path fill="#FFFFFF" stroke="#000000" stroke-width="36" stroke-miterlimit="10" d="M808.4,2706.6c0.7-2.6,1.5-5.3,2.6-7.9
	l43.2-109.8c10.5-26.8,37-43.8,65.7-42.4c20.9,1.1,39.6,11.7,51.2,28.1c12.3-8.4,27.3-12.6,42.8-11.4c13.6,1,26.2,6.2,36.4,14.3
	c9.5-5.3,20.4-8.3,31.9-8.5c25.4-0.3,48.5,13.8,60,35.9c12.6-11.5,29.5-17.9,47.2-17.3c25,0.8,47.3,15.5,58.1,37.8
	c15.4-6.3,33.2-6.9,49.9-0.4c34.4,13.5,51.3,52.4,37.8,86.8l-38.1,96.9c-10.2,25.9-35.3,42.8-63.1,42.5c-21.3-0.2-40.7-10.5-53-27
	c-13.1,14.1-32,22.2-52,21.3c-23.6-1-44.7-14.4-55.8-34.7c-8.3,3.6-17.4,5.6-26.9,5.6c-19.5,0-37.5-8.5-49.9-22.5
	c-13.5,11.6-31.4,17.6-49.9,15.9c-18.6-1.7-35.2-11.1-46.4-25.2c-15.7,6.9-34.1,7.8-51.4,1C816.9,2773.1,800.1,2738.9,808.4,2706.6z
	"/>
<path fill="#FFFFFF" stroke="#000000" stroke-width="36" stroke-miterlimit="10" d="M830.1,2790.7c0.7-2.6,1.5-5.3,2.6-7.9
	l43.2-109.8c10.5-26.8,37-43.8,65.7-42.4c20.9,1.1,39.6,11.7,51.2,28.1c12.3-8.4,27.3-12.6,42.8-11.4c13.6,1,26.2,6.2,36.4,14.3
	c9.5-5.3,20.4-8.3,31.9-8.5c25.4-0.3,48.5,13.8,60,35.9c12.6-11.5,29.5-17.9,47.2-17.3c25,0.8,47.3,15.5,58.1,37.8
	c15.4-6.3,33.2-6.9,49.9-0.4c34.4,13.5,51.3,52.4,37.8,86.8l-38.1,96.9c-10.2,25.9-35.3,42.8-63.1,42.5c-21.3-0.2-40.7-10.5-53-27
	c-13.1,14.1-32,22.2-52,21.3c-23.6-1-44.7-14.4-55.8-34.7c-8.3,3.6-17.4,5.6-26.9,5.6c-19.5,0-37.5-8.5-49.9-22.5
	c-13.5,11.6-31.4,17.6-49.9,15.9c-18.6-1.7-35.2-11.1-46.4-25.2c-15.7,6.9-34.1,7.8-51.4,1C838.6,2857.1,821.8,2823,830.1,2790.7z"
	/>
<path fill="#FFFFFF" stroke="#000000" stroke-width="36" stroke-miterlimit="10" d="M858.6,2872.4c0.7-2.6,1.5-5.3,2.6-7.9
	l43.2-109.8c10.5-26.8,37-43.8,65.7-42.4c20.9,1.1,39.6,11.7,51.2,28.1c12.3-8.4,27.3-12.6,42.8-11.4c13.6,1,26.2,6.2,36.4,14.3
	c9.5-5.3,20.4-8.3,31.9-8.5c25.4-0.3,48.5,13.8,60,35.9c12.6-11.5,29.5-17.9,47.2-17.3c25,0.8,47.3,15.5,58.1,37.8
	c15.4-6.3,33.2-6.9,49.9-0.4c34.4,13.5,51.3,52.4,37.8,86.8l-38.1,96.9c-10.2,25.9-35.3,42.8-63.1,42.5c-21.3-0.2-40.7-10.5-53-27
	c-13.1,14.1-32,22.2-52,21.3c-23.6-1-44.7-14.4-55.8-34.7c-8.3,3.6-17.4,5.6-26.9,5.6c-19.5,0-37.5-8.5-49.9-22.5
	c-13.5,11.6-31.4,17.6-49.9,15.9c-18.6-1.7-35.2-11.1-46.4-25.2c-15.7,6.9-34.1,7.8-51.4,1C867.1,2938.8,850.3,2904.7,858.6,2872.4z
	"/>
<path fill="#FFFFFF" stroke="#000000" stroke-width="36" stroke-miterlimit="10" d="M879.6,2951.2c0.7-2.6,1.5-5.3,2.6-7.9
	l43.2-109.8c10.5-26.8,37-43.8,65.7-42.4c20.9,1.1,39.6,11.7,51.2,28.1c12.3-8.4,27.3-12.6,42.8-11.4c13.6,1,26.2,6.2,36.4,14.3
	c9.5-5.3,20.4-8.3,31.9-8.5c25.4-0.3,48.5,13.8,60,35.9c12.6-11.5,29.5-17.9,47.2-17.3c25,0.8,47.3,15.5,58.1,37.8
	c15.4-6.3,33.2-6.9,49.9-0.4c34.4,13.5,51.3,52.4,37.8,86.8l-38.1,96.9c-10.2,25.9-35.3,42.8-63.1,42.5c-21.3-0.2-40.7-10.5-53-27
	c-13.1,14.1-32,22.2-52,21.3c-23.6-1-44.7-14.4-55.8-34.7c-8.3,3.6-17.4,5.6-26.9,5.6c-19.5,0-37.5-8.5-49.9-22.5
	c-13.5,11.6-31.4,17.6-49.9,15.9c-18.6-1.7-35.2-11.1-46.4-25.2c-15.7,6.9-34.1,7.8-51.4,1C888.2,3017.6,871.3,2983.4,879.6,2951.2z
	"/>
<path fill="#FFFFFF" stroke="#000000" stroke-width="36" stroke-miterlimit="10" d="M903.5,3034.8c0.7-2.6,1.5-5.3,2.6-7.9
	l43.2-109.8c10.5-26.8,37-43.8,65.7-42.4c20.9,1.1,39.6,11.7,51.2,28.1c12.3-8.4,27.3-12.6,42.8-11.4c13.6,1,26.2,6.2,36.4,14.3
	c9.5-5.3,20.4-8.3,31.9-8.5c25.4-0.3,48.5,13.8,60,35.9c12.6-11.5,29.5-17.9,47.2-17.3c25,0.8,47.3,15.5,58.1,37.8
	c15.4-6.3,33.2-6.9,49.9-0.4c34.4,13.5,51.3,52.4,37.8,86.8l-38.1,96.9c-10.2,25.9-35.3,42.8-63.1,42.5c-21.3-0.2-40.7-10.5-53-27
	c-13.1,14.1-32,22.2-52,21.3c-23.6-1-44.7-14.4-55.8-34.7c-8.3,3.6-17.4,5.6-26.9,5.6c-19.5,0-37.5-8.5-49.9-22.5
	c-13.5,11.6-31.4,17.6-49.9,15.9c-18.6-1.7-35.2-11.1-46.4-25.2c-15.7,6.9-34.1,7.8-51.4,1C912,3101.2,895.2,3067,903.5,3034.8z"/>
<path fill="#FFFFFF" stroke="#000000" stroke-width="36" stroke-miterlimit="10" d="M932,3116.5c0.7-2.6,1.5-5.3,2.6-7.9l43.2-109.8
	c10.5-26.8,37-43.8,65.7-42.4c20.9,1.1,39.6,11.7,51.2,28.1c12.3-8.4,27.3-12.6,42.8-11.4c13.6,1,26.2,6.2,36.4,14.3
	c9.5-5.3,20.4-8.3,31.9-8.5c25.4-0.3,48.5,13.8,60,35.9c12.6-11.5,29.5-17.9,47.2-17.3c25,0.8,47.3,15.5,58.1,37.8
	c15.4-6.3,33.2-6.9,49.9-0.4c34.4,13.5,51.3,52.4,37.8,86.8l-38.1,96.9c-10.2,25.9-35.3,42.8-63.1,42.5c-21.3-0.2-40.7-10.5-53-27
	c-13.1,14.1-32,22.2-52,21.3c-23.6-1-44.7-14.4-55.8-34.7c-8.3,3.6-17.4,5.6-26.9,5.6c-19.5,0-37.5-8.5-49.9-22.5
	c-13.5,11.6-31.4,17.6-49.9,15.9c-18.6-1.7-35.2-11.1-46.4-25.2c-15.7,6.9-34.1,7.8-51.4,1C940.6,3182.9,923.7,3148.7,932,3116.5z"
	/>
<path fill="#FFFFFF" stroke="#000000" stroke-width="36" stroke-miterlimit="10" d="M958.3,3197.6c0.7-2.6,1.5-5.3,2.6-7.9
	l43.2-109.8c10.5-26.8,37-43.8,65.7-42.4c20.9,1.1,39.6,11.7,51.2,28.1c12.3-8.4,27.3-12.6,42.8-11.4c13.6,1,26.2,6.2,36.4,14.3
	c9.5-5.3,20.4-8.3,31.9-8.5c25.4-0.3,48.5,13.8,60,35.9c12.6-11.5,29.5-17.9,47.2-17.3c25,0.8,47.3,15.5,58.1,37.8
	c15.4-6.3,33.2-6.9,49.9-0.4c34.4,13.5,51.3,52.4,37.8,86.8l-38.1,96.9c-10.2,25.9-35.3,42.8-63.1,42.5c-21.3-0.2-40.7-10.5-53-27
	c-13.1,14.1-32,22.2-52,21.3c-23.6-1-44.7-14.4-55.8-34.7c-8.3,3.6-17.4,5.6-26.9,5.6c-19.5,0-37.5-8.5-49.9-22.5
	c-13.5,11.6-31.4,17.6-49.9,15.9c-18.6-1.7-35.2-11.1-46.4-25.2c-15.7,6.9-34.1,7.8-51.4,1C966.9,3264,950,3229.8,958.3,3197.6z"/>
<path fill="#FFFFFF" stroke="#000000" stroke-width="36" stroke-miterlimit="10" d="M980,3281.6c0.7-2.6,1.5-5.3,2.6-7.9l43.2-109.8
	c10.5-26.8,37-43.8,65.7-42.4c20.9,1.1,39.6,11.7,51.2,28.1c12.3-8.4,27.3-12.6,42.8-11.4c13.6,1,26.2,6.2,36.4,14.3
	c9.5-5.3,20.4-8.3,31.9-8.5c25.4-0.3,48.5,13.8,60,35.9c12.6-11.5,29.5-17.9,47.2-17.3c25,0.8,47.3,15.5,58.1,37.8
	c15.4-6.3,33.2-6.9,49.9-0.4c34.4,13.5,51.3,52.4,37.8,86.8l-38.1,96.9c-10.2,25.9-35.3,42.8-63.1,42.5c-21.3-0.2-40.7-10.5-53-27
	c-13.1,14.1-32,22.2-52,21.3c-23.6-1-44.7-14.4-55.8-34.7c-8.3,3.6-17.4,5.6-26.9,5.6c-19.5,0-37.5-8.5-49.9-22.5
	c-13.5,11.6-31.4,17.6-49.9,15.9c-18.6-1.7-35.2-11.1-46.4-25.2c-15.7,6.9-34.1,7.8-51.4,1C988.6,3348.1,971.7,3313.9,980,3281.6z"
	/>
<path fill="#FFFFFF" stroke="#000000" stroke-width="36" stroke-miterlimit="10" d="M1008.5,3363.3c0.7-2.6,1.5-5.3,2.6-7.9
	l43.2-109.8c10.5-26.8,37-43.8,65.7-42.4c20.9,1.1,39.6,11.7,51.2,28.1c12.3-8.4,27.3-12.6,42.8-11.4c13.6,1,26.2,6.2,36.4,14.3
	c9.5-5.3,20.4-8.3,31.9-8.5c25.4-0.3,48.5,13.8,60,35.9c12.6-11.5,29.5-17.9,47.2-17.3c25,0.8,47.3,15.5,58.1,37.8
	c15.4-6.3,33.2-6.9,49.9-0.4c34.4,13.5,51.3,52.4,37.8,86.8l-38.1,96.9c-10.2,25.9-35.3,42.8-63.1,42.5c-21.3-0.2-40.7-10.5-53-27
	c-13.1,14.1-32,22.2-52,21.3c-23.6-1-44.7-14.4-55.8-34.7c-8.3,3.6-17.4,5.6-26.9,5.6c-19.5,0-37.5-8.5-49.9-22.5
	c-13.5,11.6-31.4,17.6-49.9,15.9c-18.6-1.7-35.2-11.1-46.4-25.2c-15.7,6.9-34.1,7.8-51.4,1
	C1017.1,3429.8,1000.2,3395.6,1008.5,3363.3z"/>
<path fill="#FFFFFF" stroke="#000000" stroke-width="36" stroke-miterlimit="10" d="M1029.5,3442.1c0.7-2.6,1.5-5.3,2.6-7.9
	l43.2-109.8c10.5-26.8,37-43.8,65.7-42.4c20.9,1.1,39.6,11.7,51.2,28.1c12.3-8.4,27.3-12.6,42.8-11.4c13.6,1,26.2,6.2,36.4,14.3
	c9.5-5.3,20.4-8.3,31.9-8.5c25.4-0.3,48.5,13.8,60,35.9c12.6-11.5,29.5-17.9,47.2-17.3c25,0.8,47.3,15.5,58.1,37.8
	c15.4-6.3,33.2-6.9,49.9-0.4c34.4,13.5,51.3,52.4,37.8,86.8l-38.1,96.9c-10.2,25.9-35.3,42.8-63.1,42.5c-21.3-0.2-40.7-10.5-53-27
	c-13.1,14.1-32,22.2-52,21.3c-23.6-1-44.7-14.4-55.8-34.7c-8.3,3.6-17.4,5.6-26.9,5.6c-19.5,0-37.5-8.5-49.9-22.5
	c-13.5,11.6-31.4,17.6-49.9,15.9c-18.6-1.7-35.2-11.1-46.4-25.2c-15.7,6.9-34.1,7.8-51.4,1
	C1038.1,3508.5,1021.2,3474.3,1029.5,3442.1z"/>
<path fill="#FFFFFF" stroke="#000000" stroke-width="36" stroke-miterlimit="10" d="M1053.4,3525.7c0.7-2.6,1.5-5.3,2.6-7.9
	l43.2-109.8c10.5-26.8,37-43.8,65.7-42.4c20.9,1.1,39.6,11.7,51.2,28.1c12.3-8.4,27.3-12.6,42.8-11.4c13.6,1,26.2,6.2,36.4,14.3
	c9.5-5.3,20.4-8.3,31.9-8.5c25.4-0.3,48.5,13.8,60,35.9c12.6-11.5,29.5-17.9,47.2-17.3c25,0.8,47.3,15.5,58.1,37.8
	c15.4-6.3,33.2-6.9,49.9-0.4c34.4,13.5,51.3,52.4,37.8,86.8l-38.1,96.9c-10.2,25.9-35.3,42.8-63.1,42.5c-21.3-0.2-40.7-10.5-53-27
	c-13.1,14.1-32,22.2-52,21.3c-23.6-1-44.7-14.4-55.8-34.7c-8.3,3.6-17.4,5.6-26.9,5.6c-19.5,0-37.5-8.5-49.9-22.5
	c-13.5,11.6-31.4,17.6-49.9,15.9c-18.6-1.7-35.2-11.1-46.4-25.2c-15.7,6.9-34.1,7.8-51.4,1C1062,3592.1,1045.1,3557.9,1053.4,3525.7
	z"/>
<path fill="#FFFFFF" stroke="#000000" stroke-width="36" stroke-miterlimit="10" d="M1081.9,3607.4c0.7-2.6,1.5-5.3,2.6-7.9
	l43.2-109.8c10.5-26.8,37-43.8,65.7-42.4c20.9,1.1,39.6,11.7,51.2,28.1c12.3-8.4,27.3-12.6,42.8-11.4c13.6,1,26.2,6.2,36.4,14.3
	c9.5-5.3,20.4-8.3,31.9-8.5c25.4-0.3,48.5,13.8,60,35.9c12.6-11.5,29.5-17.9,47.2-17.3c25,0.8,47.3,15.5,58.1,37.8
	c15.4-6.3,33.2-6.9,49.9-0.4c34.4,13.5,51.3,52.4,37.8,86.8l-38.1,96.9c-10.2,25.9-35.3,42.8-63.1,42.5c-21.3-0.2-40.7-10.5-53-27
	c-13.1,14.1-32,22.2-52,21.3c-23.6-1-44.7-14.4-55.8-34.7c-8.3,3.6-17.4,5.6-26.9,5.6c-19.5,0-37.5-8.5-49.9-22.5
	c-13.5,11.6-31.4,17.6-49.9,15.9c-18.6-1.7-35.2-11.1-46.4-25.2c-15.7,6.9-34.1,7.8-51.4,1
	C1090.5,3673.8,1073.6,3639.6,1081.9,3607.4z"/>
<path fill="#FFFFFF" stroke="#000000" stroke-width="36" stroke-miterlimit="10" d="M1096.4,3691.6c0.7-2.6,1.5-5.3,2.6-7.9
	l43.2-109.8c10.5-26.8,37-43.8,65.7-42.4c20.9,1.1,39.6,11.7,51.2,28.1c12.3-8.4,27.3-12.6,42.8-11.4c13.6,1,26.2,6.2,36.4,14.3
	c9.5-5.3,20.4-8.3,31.9-8.5c25.4-0.3,48.5,13.8,60,35.9c12.6-11.5,29.5-17.9,47.2-17.3c25,0.8,47.3,15.5,58.1,37.8
	c15.4-6.3,33.2-6.9,49.9-0.4c34.4,13.5,51.3,52.4,37.8,86.8l-38.1,96.9c-10.2,25.9-35.3,42.8-63.1,42.5c-21.3-0.2-40.7-10.5-53-27
	c-13.1,14.1-32,22.2-52,21.3c-23.6-1-44.7-14.4-55.8-34.7c-8.3,3.6-17.4,5.6-26.9,5.6c-19.5,0-37.5-8.5-49.9-22.5
	c-13.5,11.6-31.4,17.6-49.9,15.9c-18.6-1.7-35.2-11.1-46.4-25.2c-15.7,6.9-34.1,7.8-51.4,1
	C1104.9,3758.1,1088.1,3723.9,1096.4,3691.6z"/>
<path fill="#FFFFFF" stroke="#000000" stroke-width="36" stroke-miterlimit="10" d="M1118.1,3775.7c0.7-2.6,1.5-5.3,2.6-7.9
	l43.2-109.8c10.5-26.8,37-43.8,65.7-42.4c20.9,1.1,39.6,11.7,51.2,28.1c12.3-8.4,27.3-12.6,42.8-11.4c13.6,1,26.2,6.2,36.4,14.3
	c9.5-5.3,20.4-8.3,31.9-8.5c25.4-0.3,48.5,13.8,60,35.9c12.6-11.5,29.5-17.9,47.2-17.3c25,0.8,47.3,15.5,58.1,37.8
	c15.4-6.3,33.2-6.9,49.9-0.4c34.4,13.5,51.3,52.4,37.8,86.8l-38.1,96.9c-10.2,25.9-35.3,42.8-63.1,42.5c-21.3-0.2-40.7-10.5-53-27
	c-13.1,14.1-32,22.2-52,21.3c-23.6-1-44.7-14.4-55.8-34.7c-8.3,3.6-17.4,5.6-26.9,5.6c-19.5,0-37.5-8.5-49.9-22.5
	c-13.5,11.6-31.4,17.6-49.9,15.9c-18.6-1.7-35.2-11.1-46.4-25.2c-15.7,6.9-34.1,7.8-51.4,1C1126.6,3842.1,1109.8,3808,1118.1,3775.7
	z"/>
<path fill="#FFFFFF" stroke="#000000" stroke-width="36" stroke-miterlimit="10" d="M1146.6,3857.4c0.7-2.6,1.5-5.3,2.6-7.9
	l43.2-109.8c10.5-26.8,37-43.8,65.7-42.4c20.9,1.1,39.6,11.7,51.2,28.1c12.3-8.4,27.3-12.6,42.8-11.4c13.6,1,26.2,6.2,36.4,14.3
	c9.5-5.3,20.4-8.3,31.9-8.5c25.4-0.3,48.5,13.8,60,35.9c12.6-11.5,29.5-17.9,47.2-17.3c25,0.8,47.3,15.5,58.1,37.8
	c15.4-6.3,33.2-6.9,49.9-0.4c34.4,13.5,51.3,52.4,37.8,86.8l-38.1,96.9c-10.2,25.9-35.3,42.8-63.1,42.5c-21.3-0.2-40.7-10.5-53-27
	c-13.1,14.1-32,22.2-52,21.3c-23.6-1-44.7-14.4-55.8-34.7c-8.3,3.6-17.4,5.6-26.9,5.6c-19.5,0-37.5-8.5-49.9-22.5
	c-13.5,11.6-31.4,17.6-49.9,15.9c-18.6-1.7-35.2-11.1-46.4-25.2c-15.7,6.9-34.1,7.8-51.4,1
	C1155.1,3923.8,1138.3,3889.7,1146.6,3857.4z"/>
<path fill="#FFFFFF" stroke="#000000" stroke-width="36" stroke-miterlimit="10" d="M1167.6,3936.2c0.7-2.6,1.5-5.3,2.6-7.9
	l43.2-109.8c10.5-26.8,37-43.8,65.7-42.4c20.9,1.1,39.6,11.7,51.2,28.1c12.3-8.4,27.3-12.6,42.8-11.4c13.6,1,26.2,6.2,36.4,14.3
	c9.5-5.3,20.4-8.3,31.9-8.5c25.4-0.3,48.5,13.8,60,35.9c12.6-11.5,29.5-17.9,47.2-17.3c25,0.8,47.3,15.5,58.1,37.8
	c15.4-6.3,33.2-6.9,49.9-0.4c34.4,13.5,51.3,52.4,37.8,86.8l-38.1,96.9c-10.2,25.9-35.3,42.8-63.1,42.5c-21.3-0.2-40.7-10.5-53-27
	c-13.1,14.1-32,22.2-52,21.3c-23.6-1-44.7-14.4-55.8-34.7c-8.3,3.6-17.4,5.6-26.9,5.6c-19.5,0-37.5-8.5-49.9-22.5
	c-13.5,11.6-31.4,17.6-49.9,15.9c-18.6-1.7-35.2-11.1-46.4-25.2c-15.7,6.9-34.1,7.8-51.4,1
	C1176.2,4002.6,1159.3,3968.4,1167.6,3936.2z"/>
<path fill="#FFFFFF" stroke="#000000" stroke-width="36" stroke-miterlimit="10" d="M1191.5,4019.8c0.7-2.6,1.5-5.3,2.6-7.9
	l43.2-109.8c10.5-26.8,37-43.8,65.7-42.4c20.9,1.1,39.6,11.7,51.2,28.1c12.3-8.4,27.3-12.6,42.8-11.4c13.6,1,26.2,6.2,36.4,14.3
	c9.5-5.3,20.4-8.3,31.9-8.5c25.4-0.3,48.5,13.8,60,35.9c12.6-11.5,29.5-17.9,47.2-17.3c25,0.8,47.3,15.5,58.1,37.8
	c15.4-6.3,33.2-6.9,49.9-0.4c34.4,13.5,51.3,52.4,37.8,86.8l-38.1,96.9c-10.2,25.9-35.3,42.8-63.1,42.5c-21.3-0.2-40.7-10.5-53-27
	c-13.1,14.1-32,22.2-52,21.3c-23.6-1-44.7-14.4-55.8-34.7c-8.3,3.6-17.4,5.6-26.9,5.6c-19.5,0-37.5-8.5-49.9-22.5
	c-13.5,11.6-31.4,17.6-49.9,15.9c-18.6-1.7-35.2-11.1-46.4-25.2c-15.7,6.9-34.1,7.8-51.4,1C1200,4086.2,1183.2,4052,1191.5,4019.8z"
	/>
<path fill="#FFFFFF" stroke="#000000" stroke-width="36" stroke-miterlimit="10" d="M1220,4101.5c0.7-2.6,1.5-5.3,2.6-7.9
	l43.2-109.8c10.5-26.8,37-43.8,65.7-42.4c20.9,1.1,39.6,11.7,51.2,28.1c12.3-8.4,27.3-12.6,42.8-11.4c13.6,1,26.2,6.2,36.4,14.3
	c9.5-5.3,20.4-8.3,31.9-8.5c25.4-0.3,48.5,13.8,60,35.9c12.6-11.5,29.5-17.9,47.2-17.3c25,0.8,47.3,15.5,58.1,37.8
	c15.4-6.3,33.2-6.9,49.9-0.4c34.4,13.5,51.3,52.4,37.8,86.8l-38.1,96.9c-10.2,25.9-35.3,42.8-63.1,42.5c-21.3-0.2-40.7-10.5-53-27
	c-13.1,14.1-32,22.2-52,21.3c-23.6-1-44.7-14.4-55.8-34.7c-8.3,3.6-17.4,5.6-26.9,5.6c-19.5,0-37.5-8.5-49.9-22.5
	c-13.5,11.6-31.4,17.6-49.9,15.9c-18.6-1.7-35.2-11.1-46.4-25.2c-15.7,6.9-34.1,7.8-51.4,1C1228.6,4167.9,1211.7,4133.7,1220,4101.5
	z"/>
<g>
	<g>
		<path fill="#DEFFC2" d="M69.6,105.7c-0.8,13.3,10,20.9,18.6,29.1c12.1,11.5,24.2,23.2,36.3,34.8c23.1,22.3,46.3,44.3,71.1,64.6
			c11.7,9.6,23.2,19.1,34.1,29.7c10.6,10.3,21.2,20.6,33.2,29.3c23.3,16.9,49.7,29.8,74.6,44c29.6,16.8,62.7,26.3,92.8,42
			c6.8,3.5,12.9-6.8,6.1-10.4c-26-13.5-53.9-22.4-80.1-35.3c-12.6-6.2-24.4-13.7-36.6-20.5c-12.7-7.1-25.6-13.9-37.9-21.7
			c-11.8-7.4-22.6-15.9-32.7-25.5c-10.2-9.7-20-20-30.9-28.9c-24.2-19.8-47.7-39.8-70.2-61.5c-12.8-12.3-25.5-24.7-38.3-36.9
			c-6.4-6.1-12.7-12.3-19.2-18.2c-4.7-4.3-9.2-7.8-8.8-14.6C82.1,97.9,70.1,98,69.6,105.7L69.6,105.7z"/>
	</g>
</g>
<g>
	<g>
		<path fill="#DEFFC2" d="M1580.2,298.2c-42.5,37.3-73.3,84.2-106.3,129.6c-39.2,54.1-81.4,106.1-123.7,157.8
			c-79.4,96.9-162.8,190.2-244.3,285.3c-77.9,91-151.2,185.1-213.3,287.7c-28.4,46.9-52.9,95.9-65.4,149.5
			c-9.2,39.5-15.5,86.4,4.5,123.7c25.3,47.3,74.6,84.7,114.4,119.1c20.4,17.6,39.2,37.6,60,54.5c15.9,12.9,34.2,17.9,54.3,20.2
			c56.8,6.5,115.6,7,172.8,9.5c57.7,2.5,118.1,8.1,175.2-3.3c111-22.2,167.8-124.4,218.7-215.7c56.7-101.8,100.2-207.9,126.9-321.5
			c10.3-43.9,16.7-92.6-3.4-134.8c-19.4-40.6-60.2-70.7-99.3-90.7c-44.4-22.8-93.3-35.7-142.2-44.4c-55.3-9.9-111.9-14.1-167.2-1.7
			c-109.1,24.4-211.4,103.6-286.8,183.3c-80.7,85.3-149.7,189.2-201.5,294.4c-52.6,106.9-62.8,221.7-69.4,339
			c-7.3,131.1,3.1,263-8.5,393.7c-5.6,63.5-21,125.9-50.4,182.7c-28.8,55.6-68.6,105-111,150.8c-85.7,92.8-177.8,174.8-288.1,237.2
			c-22.1,12.5-44.1,26.1-67,37.2c-9.2,4.5-19.9,9.7-30.3,9.6c-21.5-0.2-28.6-20.7-33.9-38.3c-16.6-55.7-13.1-117.8-16.6-175.4
			c-1.7-28.4-5.6-56.5-7.5-84.8c-2.3-33.7,11.6-63.4,33.2-88.7c15-17.6,38-41.7,62.8-41.8c21-0.1,39.6,15.7,53.6,29.7
			c68.8,69.1,114.5,176,118.4,272.6c4.7,116.9-65.2,211.3-135.1,297.8c-67.5,83.6-129.6,165.9-156.2,272
			c-14.3,57-20.6,116.9-19.1,175.7c1.5,57,17.5,106.8,48.5,154.6c29.4,45.4,64.4,88,108.2,120.1c44.9,33,95.9,58.3,145.7,83
			c107.3,53,226.7,104.3,349,95.2c53.2-4,105-19.2,153.5-41c48.4-21.7,96-48.4,128.6-91.3c27.1-35.7,43.5-78.1,54.7-121.2
			c5.6-21.3,11.2-43.5,13.9-65.4c1.9-15.5-2.8-26-17.4-32.4c-20.8-9.2-51.8-7.5-73.9-8.5c-27.6-1.2-55.2,1.2-82.6,4.9
			c-48.5,6.6-90.6,20.9-122.7,59.4c-72.4,86.9-72.7,211.6-63.1,318.2c5.6,62.2,14.6,124.1,18.8,186.5c4.5,66.3,12.4,136-5.5,201
			c-15.6,56.7-51.2,104.2-99.2,137.9c-46.3,32.4-104.6,40-159.9,39.2c-42.1-0.6-87.3-7.8-123-31.5c-46-30.5-54.5-80.7-54-132.5
			c0.3-30.7,3.9-61.4,9.4-91.6c4.9-26.3,9.1-56.5,25.1-78.7c32.4-45.1,100.1-41.7,145.4-21.1c53.1,24.2,96,69.3,135,111.5
			c42.3,45.8,80.9,94.7,120.3,142.9c36.8,45,73.9,91,115.1,132.1c41.8,41.6,92.6,74.2,145.9,99.1c96.4,45.1,213.9,47.7,315.1,16.1
			c100.7-31.5,175-104.4,221.8-197.5c24.5-48.7,49.5-103.2,58.2-157.3c8.3-51.5-7-102.6-27.7-149.5c-22.1-50.2-52.9-107-93-145.3
			c-36.4-34.9-91.5-43.6-139.7-48.9c-61.7-6.8-124.9-6.7-187-7.5c-66.8-0.9-133.6,0.3-200.3,2c-132.8,3.4-265.6,3.4-398.3,3.2
			c-64.6-0.1-129.2-0.3-193.8-0.2c-31.5,0.1-62.9,0.3-94.4,0.7c-13.3,0.2-26.7,0.2-40,0.5c-17,0.4-30.3,6.5-43.6-8.8
			c-0.4,3.1-0.8,6.3-1.2,9.4c188.7-101.2,404.9-127.7,614.5-151.7c227.1-26,455.1-45.6,682.7-66.8c56.2-5.2,111.9-13,164.6-33.9
			c25-9.9,50.5-21.1,74.3-33.5c14.9-7.8,21-18.8,19.3-35.7c-0.3-2.8-1.7-4.8-4.4-5.8c-116.1-41.4-236.6-68-357.3-92
			c-122.3-24.3-244.5-48.7-366.5-74.7c-249.3-53.2-497.1-112.3-743.9-176.3c-121.4-31.5-241.9-66.9-363.5-97.7
			c-26.5-6.7-52.6-14.7-78.2-24.1c-26.6-9.7-57.1-18.2-80.1-34.9c-15.8-11.5-19.6-16.8-9.3-34.1c6.3-10.6,14.9-18.8,25.9-24.4
			c10.5-5.4,21.5-5.3,32.3-8.9c12.8-4.2,25.1-12.1,37.5-17.5c53-23.1,108.8-39.6,165.7-49.7c61.2-10.8,122.8-21.1,184.2-30.3
			c125-18.8,251.4-30.2,377.3-40.3c140.2-11.2,280.9-16.5,421.3-22c144.8-5.7,289.6-9.3,434.5-8.7c7.8,0,7.6-11.4,0-12
			c-47.4-3.8-95.1-1.7-142.7-2.8c-51.8-1.2-103.6-3-155.4-5.4c-102.1-4.6-204-11.3-305.8-19.5c-199.7-16.1-398.8-39-597.8-61.5
			c-55.3-6.2-110.6-13.1-166.1-17.9c-31.2-2.7-62.1-6.5-92.9-12c-26.2-4.7-46.5,0-64.1-25.1c-1.2,2.9-2.4,5.9-3.6,8.8
			c63.4-20.5,128.6-34.3,195-40c63.1-5.4,126.4-1.9,189.6-4.6c134-5.7,268.1-10.1,402.2-13.2c264.4-6,528.9-7.5,793.3-10.2
			c151.2-1.5,302.5-3.2,453.7-5.6c7.7-0.1,7.7-12,0-12c-590.2,1.4-1180.4,1.4-1770.6-6.9c-83.5-1.2-167.1-2.4-250.6-3.9
			c-41.2-0.7-82,0.9-123.2-3.7c-8.4-0.9-17.9-3.7-26.1-3.4c-8.3,0.3-15.7,3-24.1,2.1c-19.5-2.2-30.6-14.9-38.3-31.7
			c-0.7,2.7-1.4,5.5-2.2,8.2c57.7-41.1,123.3-68.3,193.5-78.5c38.2-5.5,76.2-8.7,114.4-14.9c41-6.6,82-12.9,123.1-18.8
			c166.5-24.1,333.8-42.1,500.9-60.8c94-10.5,187.9-21.2,281.7-33.4c7.5-1,7.9-11.4,0-12c-93.3-6.9-186.7-0.4-280.1,0.9
			c-92.8,1.3-185.7,4.7-278.4-1.6c0,4,0,8,0,12c178-19.8,357.2-20.1,536.1-21c181.2-0.9,362.4-3.5,543.6-5.8
			c104.9-1.3,209.7-3,314.6-5.6c7.8-0.2,7.7-11.5,0-12c-69.7-4.2-139.1-0.3-208.8-0.6c-70.8-0.3-141.7-1.7-212.4-4.1
			c-71.2-2.4-142.5-4.3-213.6-8.4c-33.7-1.9-68.1-6.8-101.7-6.4c-34.9,0.4-63.6-5.8-92-27.1c0.4,3.1,0.8,6.3,1.2,9.4
			c11.8-14.9,25.6-27.3,42.8-35.5c16.8-8,34.6-9.1,52.1-14.3c43.5-13,86.6-27.5,130-41c20.3-6.3,40.6-12.7,60.8-19.3
			c10.6-3.4,21.5-8.2,32.3-10.6c9.7-2.1,18.3-0.6,27.8-2c18.7-2.6,28.6-13.7,27.6-32.8c-0.1-2.6-1.8-5.2-4.4-5.8
			c-72.5-17.4-145.7-31.8-219.2-44c-36.8-6.1-73.6-11.7-110.5-16.9c-34.9-4.9-72.3-13.9-107.5-14.2c-14.3-0.1-28.4,6.7-43,2.1
			c-6.6-2.1-15.2-6.9-18.5-13.5c-5.3-10.7,1.4-12.6,10.1-18c16.3-10.1,32.3-21.2,49.6-29.3c19.2-9,39.3-16.4,58.9-24.2
			c70.7-28,142.6-52.7,213.5-80c5-1.9,6.4-10.3,0-11.6c-67.8-13.4-137.4-10.2-206.1-13.1c-71.3-3-142.6-6.4-213.8-10.1
			c-72.6-3.8-145.1-10.7-217.6-16.3c-31.2-2.4-61.7,3-92.9-3.3c-32-6.5-60.8-21.2-86.1-41.6c-0.9,3.3-1.8,6.7-2.6,10
			c76.2-29.3,155-50.9,235.7-63.8c41.8-6.6,84-8.6,125.7-15.3c42.4-6.8,84.8-13.6,127.2-20.5c173.8-28,347.7-56.1,521.6-83.7
			c23.3-3.7,46.7-7.4,70-11.1c14.2-2.2,29.2-6,43.7-4.6c7.8,0.8,15.3,2.5,23.1,2.9c32.2,1.6,61.2-9,84.7-31.1
			c3.9-3.7,0.8-10.1-4.2-10.2c-314.6-11.5-630-11.7-944.8-10.8c-41.9,0.1-85.6-3-127.3,1c-48.1,4.6-89.6,6.1-136.5-9
			c0.5,3.7,1,7.3,1.4,11c36.1-22.4,74.7-39.9,115.8-51c41.3-11.2,84.2-14.5,126.2-22.7c89.7-17.6,179.7-33.1,270.1-46.7
			c187.5-28.2,376-51.8,564.6-70.9c106.2-10.8,212.6-19.9,319-27.7c5.8-0.4,8.3-7.9,3-11.2c-12.6-7.7-26.2-4.8-40.7-4.7
			c-20.6,0.1-41.3,0.2-61.9,0.4c-39.8,0.2-79.7,0.4-119.5,0.7c-78.3,0.7-156.7,1.9-235,2.8c-159,1.9-317.9,3.6-476.8,1.2
			c-317.2-5-634.3-22.9-951-40c-88.9-4.8-177.8-10-266.7-14.3c-43.1-2.1-86.2-4.9-129.2-8.4c-19-1.6-37,2.1-55.9,0.8
			c-22.8-1.7-42.6-11.9-59.4-26.9c-0.9,3.3-1.8,6.7-2.6,10c153.9-52.1,314.5-79.3,473.7-109.9c163.3-31.5,327.2-57.2,491.8-80.3
			c92.4-12.9,184.6-26.9,275.7-46.8c7-1.5,4.7-11.2-1.6-11.8c-93.6-8.6-186.8,3.8-280.2,10.5c-91.5,6.5-183.2,16.7-275,11.9
			c0.5,3.9,1.1,7.9,1.6,11.8c38.2-15.2,77.5-27,118-34.4c44-8.1,87.7-7.7,132-11.7c91.6-8.2,183.4-15.2,275.2-21
			C742,800.6,925.6,792.8,1109,784c101.1-4.9,201.8-13.8,303.1-9.7c-0.5-3.9-1.1-7.9-1.6-11.8C1245.1,786.4,1078,796,911,803.2
			c-81.9,3.5-163.8,6.7-245.7,9.9c-81.7,3.2-163.4,12.7-245.2,7.4c0.5,3.9,1.1,7.9,1.6,11.8c138.8-34.5,279.3-61,420.8-82
			c141.6-21.1,284.8-30.2,425.9-54.7c6.8-1.2,5-11.7-1.6-11.8c-169.9-2.8-339.5-13.1-508.7-28c-85.4-7.5-170.7-16.4-255.9-25.8
			c-42.3-4.7-84.5-9.4-126.8-14.1c-40.5-4.5-81.8-12-122.4-13.6c-44.7-1.8-87.2-1.8-131.2-12.2c-42.4-10-82.7-26.3-120.8-47.3
			c0.7,2.7,1.4,5.5,2.2,8.2c15.6-30.4,38-55.4,68.9-70.8c15.9-7.9,33.2-13,50.7-16c8.6-1.5,18.2-1.3,26.7-3.2
			c10.8-2.4,21.9-8,32.4-11.8c86.4-31.3,173.4-60.6,261.1-87.9c88.9-27.7,177.8-55.6,267.1-82.3c43.4-13,86.6-24.9,130.5-35.5
			c36.7-8.9,71.2-23.9,103.2-43.6c3.6-2.2,4.2-8.4,0-10.4c-25.2-11.9-52.5-17.1-78.3-27.1c0.5,3.7,1,7.3,1.4,11
			c134.8-69.5,297.9-42.9,438.5-92.4c6.3-2.2,5.3-11.5-1.6-11.8c-181.2-8.4-362.7-9.8-544.1-10.1c-180.2-0.3-360.5-1.5-540.7-1.1
			C117,58,15.2,64.8-86.1,52.1c0,4,0,8,0,12c110.8-9.8,222.6-9,333.7-10.4c110.1-1.4,220.1-1.8,330.2-1.9
			c225.2-0.2,450.3-0.3,675.5-0.4c53.8,0,107.5,0.4,161.2-1.3c47.4-1.5,99.6-3,142.1,21.2c-0.4-3.1-0.8-6.3-1.2-9.4
			c-17.2,22.2-39,38.3-66.2,46.1c-25.8,7.4-49.6,19.3-74.5,29.5c-55.1,22.6-111.4,42.5-168.5,59.6
			c-118.1,35.4-235.7,76.5-351.3,119.6c-7.3,2.7-4.4,12.9,3.2,11.6c164-28.1,330.2-38.5,496.2-47.1c165.5-8.6,331-17.5,496.7-21.6
			c21.4-0.5,40.6-0.3,61.1-5.8c19.9-5.3,40.4-8.5,61-8.7c42.9-0.4,82.3,13.7,117.3,38c-0.4-3.1-0.8-6.3-1.2-9.4
			c-36.4,31.4-78.1,55.2-124.5,68.3c-45.8,13-94.2,13.6-141.1,21.1c-109.6,17.6-219.5,34-329.5,49.1
			c-222.6,30.6-446.1,55.8-669.4,81.1c-60.4,6.8-120.9,13.6-181.4,20.2c-28.2,3.1-54.3,9.5-82,14.2c-33.9,5.7-68.1,5-101.9-0.7
			c0,3.9,0,7.7,0,11.6c124.4-26.9,250.5-44.8,377.1-58.1c126.2-13.3,252.8-25.7,379.8-25.1c-1.9-2.5-3.9-5.1-5.8-7.6
			c-19.3,65.6-77.8,88.4-141.9,88c-38.2-0.3-79.3,19.8-115.9,30.6c-43.4,12.8-86.9,25.1-130.5,36.8
			C688,649.6,511.4,688.8,335.4,728.2c-24.5,5.5-48.9,10.9-73.4,16.3c-22.1,4.8-44.5,6-66.7,10c-41.9,7.6-81.5,23.1-118.1,44.6
			c-5.2,3-2.9,11.1,3,11.2c176.5,2.8,352.7-8.3,529-16c85.7-3.8,171.5-6.2,257.3-9c20-0.6,40.6,0.1,60.5-2c22-2.3,43.3-6,65.5-6.4
			c42.9-0.8,85,5.8,126,18.1c-0.5-3.7-1-7.3-1.4-11c-28.9,22-60.6,39.5-95.4,50.2c-18.5,5.7-37.4,9.4-56.6,11.6
			c-17.3,2-34,7.9-50.8,12.3c-76.3,20.4-153.3,38.4-230.8,53.8c-157.7,31.4-316.4,57.8-473.5,92.5c-6.5,1.4-5.2,12.6,1.6,11.8
			c164.8-18.7,329.6-37.3,494.9-52c82.6-7.4,165.4-14.4,248.2-19.3c20.7-1.2,41.4-2.3,62.2-3.2c19.9-0.9,42.9,1.7,62.2-2.3
			c30.1-6.3,58.3-24.2,76.7,12.9c0.7-2.7,1.4-5.5,2.2-8.2c-73.3,32.2-149.1,58-225.6,81.7c-65.3,20.2-136,32-197.3,63
			c-5.1,2.6-2.9,11.8,3,11.2c366.9-37,737.3-52.2,1105.9-58.2c24.8-0.4,49.6-0.7,74.4-0.9c22.8-0.2,49.1,3.3,71.6-0.5
			c21.2-3.6,38-14.7,60.6-9.7c19,4.2,30.6,18.3,38.6,35.1c0.7-2.7,1.4-5.5,2.2-8.2c-71.9,37-147,67-224.8,89
			c-80.7,22.7-161.5,46.1-242.6,67.6c-164.3,43.5-331.4,75.3-498.1,108.3c-94.4,18.7-188.8,37.8-282.5,60c-6.2,1.5-5.2,9.7,0,11.6
			c31.4,11.4,61,11.3,93.3,3.8c40.5-9.4,85.3-7,126.7-8.1c79.9-2.1,159.9-2,239.9-2.7c39.7-0.4,79.5-0.8,119.2-1.2
			c17.2-0.2,32.4-6.5,49.6-8c18.9-1.7,38.2,1,55.5,8.9c5.9,2.7,17.5,7.2,20.5,13.1c3.2,6.2-1.2,10.1-5.4,16.6
			c-8.8,13.5-18.8,26.1-30,37.6c-20.6,21.2-45.1,38.4-71.7,51.3c-31.7,15.3-66.4,25.7-99.3,38.4c-35.5,13.7-71.2,26.9-107.1,39.4
			c-71.8,25-144.4,47.7-217.7,67.9c-149.4,41.1-302,72.3-453.7,103.6c-42.9,8.8-85.8,17.4-128.7,25.8c-21.5,4.2-43,8.3-64.5,12.4
			c-21.3,4-46.8,12.7-68.6,10.3c-28.8-3.2-55.3-9.2-83.6,1.5c-22.3,8.4-38.4,24.9-49.7,45.5c-2.3,4.2,0.6,8.7,5.2,9
			c321.3,24.4,644.2,14.5,966.1,23.9c91,2.6,181.9,9,271.5,25.7c-0.9-3.3-1.8-6.7-2.6-10c-24.8,20.4-52.7,35.8-83.8,44.4
			c-28.6,8-57.7,5.8-86.4,11.7c-69.3,14.2-138.9,27.2-208.7,39c-139.5,23.5-280.7,36.4-419.8,62.7c-7.2,1.4-4.5,11,1.6,11.8
			c84.8,10.4,168,5.4,252.9,5.3c85.8-0.1,171.7,1.3,257.4,4.2c170.1,5.7,340.5,15,510,30.3c88.2,8,176.2,17.9,263.8,30.5
			c41.9,6,83.8,12.6,125.5,19.9c9.8,1.7,51.1,3.3,54.7,13.4c3.1,8.6-10.3,27.7-15.6,33.5c-17.8,19.4-46,22.3-70.9,20.9
			c-17.5-1-34.4-7.3-51.6-8.4c-17.8-1.2-40.4,5.3-57.8,7.5c-83.6,11-167.6,19.5-251.7,25.6c-187.5,13.5-378.2,29.9-566.1,17.7
			c0,4,0,8,0,12c76.8-6.7,153.8-5,230.7-1.7c77.7,3.3,155.4,6.5,233,11.2c38.2,2.3,76.3,4.9,114.4,8.1c19.1,1.6,38.1,3.4,57.2,5.3
			c8.8,0.9,17.6,1.8,26.4,2.8c7.7,0.9,27.2-0.2,33,4.3c12.6,9.6,5.6,44.1-1.7,56c-11.3,18.2-32.6,27-52.5,32.2
			c-29.4,7.7-60.2,4.1-88.7,13.9c-34.9,12.1-70.1,23.5-105.5,34.2c-72,21.8-144.9,40.8-218.4,56.9c-151,33.1-303.2,61.2-455.2,89
			c-172.1,31.5-344.3,62.3-514.9,100.7c-5.4,1.2-5.4,8.2-1.4,11c27.4,18.7,57.9,30.6,91,33.7c40.4,3.9,78.6-10.1,118.7-8.4
			c93.4,4,186.7,8.9,280,14.5c187.6,11.3,375.1,23.8,560.9,52.3c26,4,51.9,8.2,77.8,12.7c11.1,1.9,24,6.3,35.3,6.2
			c8.8,0,18.7-3.7,27.4-4.7c40.8-4.3,74.8,10.5,95.5,46.4c1.2-2.9,2.4-5.9,3.6-8.8c-168.2,60.3-343.7,87-518.7,119.3
			c-178.6,33-358.3,59.1-537.4,89c-26,4.3-52,8.7-77.9,13c-24.7,4.1-48.6,2.4-73.4,4.5c-38.8,3.3-74.9,16.5-106.9,38.5
			c-5,3.4-3,10.8,3,11.2c159.9,10.8,320.2,15.2,480.3,22.3c156,6.9,312.1,17.7,467.6,32.2c88.2,8.2,176.1,20.5,261.1,45.7
			c-0.5-3.7-1-7.3-1.4-11c-23.4,13.9-44,25.6-70.9,31.7c-22.4,5.1-44.8,10-67.3,14.6c-47.8,9.8-95.8,18.2-144,26
			c-86.6,14-175.7,23-257.5,56.8c-4.8,2-6.6,10.4,0,11.6c68,11.6,135.9,15.2,204.8,13.7c73.3-1.6,147.4,3.6,220.7,7.5
			c73.1,3.9,146.3,8.2,219.3,13.1c14.8,1,29.4,4.2,43.6-0.5c10.5-3.4,21.6-7.4,32.8-7.1c10.1,0.3,28.4,8.4,19.8,20.6
			c-2.2,3.2-21.4,5.6-25.4,6.6c-11.3,2.9-22.6,5.8-34,8.6c-280.7,69.5-567.5,113-853.5,154.2c-165.3,23.8-331,44.4-497.3,60.7
			c1.9,2.5,3.9,5.1,5.8,7.6c10.5-35.3,47.8-31.3,76.7-23.6c18,4.8,32.2,2.3,50.6,0c23.2-2.9,46.4-5.6,69.7-8.1
			c84.3-9,168.9-15.2,253.6-18.6c85-3.4,170-6.1,255-6.9c41.4-0.4,83.5,2.1,124.8-0.2c46.4-2.6,86.9-1.8,131,15.8
			c-1.2-2.9-2.4-5.9-3.6-8.8c-32.4,57.3-80.7,83.5-142.2,100.4c-73.2,20.2-144.4,45.4-218.6,62.7c-152.7,35.7-310.1,55.1-465.5,75.2
			c-45.1,5.8-90.3,11.3-135.5,16.3c-18.6,2.1-30.7,11.6-48.2,18.3c-14.8,5.6-35.7,10.9-38.4-10.5c-2,2-4,4-6,6
			c192.5-16.1,386-11.6,578.4,2.8c193.6,14.5,387.5,34.3,579.6,62.8c20.5,3,43.5,9.8,64.2,9.4c22.2-0.4,42.4-6.2,65-2.7
			c39.1,6,67.3,30.2,85,64.8c0.7-2.7,1.4-5.5,2.2-8.2c-91.1,50.7-191.7,80.3-296,85.4c-25,1.2-50.1,1.1-75.1-0.2
			c-30.5-1.6-61.7,2.1-92.3,3.7c-56.5,2.9-112.9,5.4-169.4,7.5c-231.8,8.5-464,9.2-696,10.3c-128.7,0.6-258.5,7.3-386.6-7.4
			c0.5,3.9,1.1,7.9,1.6,11.8c34.3-12.5,69.8-20.5,106.4-22.2c36.5-1.7,72.9,1,109.5-0.3c78.1-2.8,156.2-4.7,234.4-6.2
			c154.2-2.9,308.5-11.3,462.4,2.3c-1.9-2.5-3.9-5.1-5.8-7.6c-4.9,23.9-19.8,20.4-38.6,22.9c-16.1,2.1-32.7,10.1-48.5,14.2
			c-38.8,10.2-77.9,15.3-117.3,21.8c-82,13.6-164.4,25-246.1,40c-6.5,1.2-4.8,9.6,0,11.6c17.2,7.1,35,11.3,53.7,11.1
			c19.4-0.1,38.1-5.6,57.5-5.7c40.6-0.3,81.5,2.8,122.1,4.9c84.6,4.5,169.1,11.8,253.6,18.5c85.6,6.8,171,15.1,256.3,25
			c41.1,4.8,82.3,5.9,123.2,13.4c40.4,7.3,79.8,18.6,118.3,33c-0.9-3.3-1.8-6.7-2.6-10c-22.5,25.4-50.5,43-84.3,48.3
			c-35.8,5.6-69.1-8.5-104.1-5.7c-86.6,6.7-173.3,11.8-260,15.4c-171.7,7-343.8,5.9-515.4,16.6c-7.8,0.5-7.7,11.4,0,12
			c59.6,5,120-0.5,179.9,1.8c60.5,2.3,120.7,7.7,181,14c62.3,6.6,124.3,15,186.1,25.3c26.3,4.4,53.1,11.7,79.7,14.3
			c33.8,3.2,59.6,6.7,87,29.1c0.9-3.3,1.8-6.7,2.6-10c-56.6,23-112.7,30.6-173.3,32.2c-59.6,1.6-119.1,6.8-178.7,8.7
			c-59.4,1.9-118.8,2.6-178.2,4.1c-28.9,0.7-57.7,1.5-86.6,2.4c-11.3,0.3-22-0.6-32.4,3.5c-14.5,5.7-31.8,17.8-42.5-2.1
			c-1.2,2.9-2.4,5.9-3.6,8.8c90.6-16.2,181.5-23.4,273.4-24.9c91.7-1.4,183.3-6.8,275.1-7.8c181.2-1.9,363.4-0.8,544.5,6.3
			c103.9,4.1,207.6,12.5,310.1,29.9c-0.5-3.7-1-7.3-1.4-11c-34.2,15.8-70.6,23.8-108.3,22.3c-18.6-0.7-36.3-6.1-54.6-7.8
			c-16.4-1.5-34.1,0.6-50.5,0.9c-75.6,1.7-151.3,2.9-227,3.7c-74.3,0.8-148.7,1.2-223,1.3c-38.8,0.1-77.7-0.2-116.5-0.8
			c-17.2-0.3-36.8-3.6-53.8-1c-13.7,2.1-35.8,16.8-40.6-6.2c-1.4,2.5-2.8,4.9-4.2,7.4c83.8-11.6,168-19,252.4-23.9
			c40.9-2.4,81.8-4.1,122.7-6c18.2-0.8,40.8,1.8,58.4-2.7c17.8-4.5,35.6-21.8,49.2,1.2c1.2-2.9,2.4-5.9,3.6-8.8
			c-133.1,34.8-271.7,32-408.1,35.1c-143.4,3.3-286.8,4.5-430.2,8.4c0,4,0,8,0,12c189.4-8.1,379-9.3,568.5-9.2
			c188.7,0.2,377.8,4.2,565.2,29.2c-0.5-3.9-1.1-7.9-1.6-11.8c-63.3,11.7-127.5,16.8-191.9,14.5c-30.7-1.1-60.8-5.6-91.4-8.1
			c-32.4-2.7-65.1-3-97.6-5c-124.1-7.3-248-18.4-371.4-33.2c-63.1-7.6-126.3-15.5-189-26.1c-29.8-5-59.4-10.7-88.9-16.8
			c-28.5-6-56.7-14.9-85.7-16c-13.8-0.5-55.6-14.7-38.3-36.6c7.1-9.1,33.1-15.8,42.4-19.4c14.9-5.7,30.2-10.6,45.7-14.4
			c56.6-14,114.5-25.8,172-35.9c136.5-24,274.4-38.8,410.3-66.8c5.9-1.2,5.6-10.2,0-11.6c-113.8-27.9-228.9-50.1-344.9-66.1
			c-118.5-16.3-235.9-40.1-353.2-63.1c-232.3-45.5-463.7-96-695.3-144.7c-34.7-7.3-69.4-14.6-104.1-21.9c-9.5-2-19.5-5.4-29.2-5.5
			c-15.6-0.1-31.3,4-47.1,3.7c-53.4-1-98.6-23.9-131.3-66c-0.9,3.3-1.8,6.7-2.6,10c122.2-40.2,246.8-72.5,373.3-96
			c62.3-11.6,125.1-18.6,187.5-29.3c64.6-11.1,129.3-22.1,193.9-33c261.4-44.2,523-88.6,785.1-128.7c35.3-5.4,70.7-10.7,106-15.9
			c19-2.8,38.3-6.9,57.5-8.3c17-1.3,32.3,5.2,49,7.4c29,3.8,55.4-4.8,53.5-38.1c-0.2-3.5-2.6-5.6-6-6
			c-97.5-10.1-195.8-13.3-292.7-28.3c-5.7-0.9-27.3-1.4-31.7-5.3c-3.7-3.3-1.5-12.6,0.3-18.3c4.8-15.4,17.1-25.1,31.8-30.5
			c16.6-6,33.4-5.2,50.7-6.6c21.7-1.7,43-13.1,63.7-20.5c177.5-63.2,364.9-100.3,550-133.6c109.3-19.6,219-37.3,328.4-56.5
			c6.7-1.2,5.1-12.1-1.6-11.8c-176.4,8.5-352.1,26.4-527.8,44.1c-87.9,8.8-175.8,17-263.7,25.7c-42.8,4.3-87.4,13.2-130.3,9.7
			c-34.4-2.8-67.2,4.9-97.5,21c-3.2,1.7-4.2,7-1.2,9.4c52,42.3,114.1,68.6,169.8,105.5c32.7,21.6,62.2,50.6,88.4,79.8
			c11.4,12.7,21,27.2,27.2,43.1c6.6,16.9,6.4,33.1,9.1,50.6c2,13.2,7.4,24.1,3.5,37.9c-4.7,16.5-17.6,22.3-28.2,34
			c-19.9,22.3-34.4,46.7-57.8,66.3c-24.9,20.9-53.3,37.3-83.4,49.4c-30,12.1-58.3,26.6-87.4,40.8c-73.1,35.6-147.7,68.1-218.4,108.5
			c-3.6,2-3.7,6.5-1.2,9.4c17.4,20.6,39.8,34.8,66.6,39.7c13.4,2.4,26.8,2.3,40.4,1.5c22-1.3,42.5,5.1,63.8,10.3
			c85.2,21.1,170,44.1,254.2,68.9c84.2,24.9,168.1,50.6,251.8,77.1c19.5,6.2,39,12.4,58.5,18.6c21.4,6.9,44.7,18.2,66.8,21.7
			c23.5,3.7,69-7.3,70.8,29.6c0.4,7.8-0.4,10.4-6.8,13.8c-7.9,4.3-25.5,4.1-34.4,5.5c-21.6,3.3-43.2,6.5-64.8,9.4
			c-45.7,6.3-91.6,11.7-137.5,16.4c-87.1,8.8-174.6,14.8-262.1,17.7c-44,1.5-87.9,1.8-131.9,2c-19,0.1-39.6-2-58.4,0.4
			c-17.5,2.2-34.9,10.4-51.7,0.2c-6.5-3.9-13.2-11.6-14.7-19.2c-1.7-9,2.4-12.8,8.3-19.5c13.5-15.5,27.9-30.3,43-44.2
			c29.6-27.3,62.1-51.9,93.4-77.2c67.2-54.5,137.5-105.2,206.5-157.5c34.2-25.9,68.5-51.7,103.1-77c17.3-12.6,34.7-25.2,52.2-37.5
			c8.2-5.8,16.4-11.5,24.6-17.2c7.6-5.3,23-11.7,28.3-19.4c8.2-11.9-0.3-38.6-5.3-51.5c-6.4-16.6-17-31.1-31.1-42
			c-43.6-33.5-97.5-25.5-148.5-25.7c-21.5-0.1-44.4-9.9-65.1-15.6c-22.6-6.3-45.3-12.6-67.9-18.8c-42.5-11.7-85-23.3-127.5-34.8
			c-85-23-170.2-45.6-255.5-67.7c-169.8-44.1-340-86.6-509.3-132.4c-42.9-11.6-85.7-23.3-128.5-35.1c-16.4-4.5-35.1-12.6-52-12.9
			c-17.2-0.3-33.2,2.1-50.3-2.4c-12.3-3.2-23.6-9-31.8-19c-7.1-8.6-18.2-30.7-11.6-40.8c4.3-6.6,17.6-10.3,24.5-13.9
			c8.7-4.6,17.4-9.2,26.1-13.8c20.8-11,41.4-23,62.9-32.8c76.6-35.1,160.6-59.4,241.3-83c78.3-22.9,157.9-40.7,236.3-63
			c36.3-10.3,71.9-22.4,106.5-37.5c6.1-2.7,2.1-10.6-3-11.2c-354-42.5-708.1-79.4-1059.5-140.9c-97.2-17-193.8-37.2-288.9-63.9
			c1.2,2.9,2.4,5.9,3.6,8.8c38.8-52.4,92.8-87.8,156.7-101.3c33.3-7,68.4-2,100.8-10.2c41-10.4,82.1-20.3,123.3-29.9
			c166-38.5,333.7-69,501.1-100.5c92.3-17.4,187.1-27.4,276.7-56.3c6.2-2,5.4-12.1-1.6-11.8c-71.3,3.3-142.3,9.7-213.2,17.5
			c1,3.7,2,7.5,3,11.2c45.7-31.1,94.1-52.7,143.3-77c51.2-25.3,102.3-50.8,153.4-76.1c99.1-49.1,198.9-97.4,290.8-159.4
			c2.1-1.4,3.6-4.2,2.8-6.8c-16.8-49.5-55.4-78.5-107-84.8c-17-2.1-33.5-1-50.5-0.6c-25.5,0.6-52.6-10.5-77.2-16.9
			c-45.6-11.9-91.3-23.3-137-34.4c-185.6-44.8-373-82.6-559.7-122.7c-102.6-22.1-205.3-38-303.9-75.3c1.4,2.5,2.8,4.9,4.2,7.4
			c2.5-13.2,3-30.7,8.3-43.2c5.8-13.6,24.3-20.3,36.2-27.5c24.8-14.9,49.7-29.9,74.5-44.8c50.9-30.6,106.6-50,161.6-72
			c106-42.3,211.5-82.2,321.2-114c216.7-62.7,440.6-103.8,663.1-140.4c63.1-10.4,126.4-20.2,189.7-29.4
			c63-9.1,126.3-16.2,188.2-31.7c7.6-1.9,4.3-12.9-3.2-11.6c-41.2,7.4-82.2,19.8-124.5,16.1c0.5,3.9,1.1,7.9,1.6,11.8
			c131.5-50.3,270.6-73.7,408.2-100.6c72-14.1,143.7-28.5,216.4-39c71.7-10.4,142.3-12.5,212.8-31.7c4.7-1.3,6.2-8.7,1.4-11
			c-66.4-31.7-137.4-51.4-210.8-57.5c-43.6-3.6-86.1-7.1-129.4-13.8c-42.1-6.5-84.3-13.2-126.3-20
			c-169.8-27.6-339.1-58.2-507.8-91.6c-82-16.3-163.8-33.3-245-53.1c-41.8-10.2-83.6-20.9-125.1-32.2
			c-38.3-10.4-77.8-26.6-116.8-33.2c-29-4.9-56.1-1.7-81.7-19.9c-19.1-13.6-44.9-52.6-32.6-76.7c7.1-14,24.7-27.3,35.7-38.5
			c13.1-13.3,26.6-26.1,40.5-38.5c28.3-25.2,58.3-48.5,89.7-69.7c74.2-50,156-90.6,234.6-133.3c40.5-22,81.3-43.2,121.7-65.4
			c18.5-10.2,41-18.4,57.8-30.7c8.1-5.9,10.8-13.6,10.3-23.5c-2,2-4,4-6,6c136.6-15.4,275.9-9.7,413.1-5.7
			c33.4,1,66.9,3.2,99.6,10.7c6.2,1.4,16.7,2.8,22.2,5.9c8.4,0.1,10.2,4,5.4,11.9c1.3,7-1.1,11-7.4,12.1
			c-9.1,10.1-22.9,18.1-34.9,24.3c-18,9.3-38.8,15.5-57.8,23c-8.6,3.4-48.2,21.9-55.7,11.9c-0.7,2.7-1.4,5.5-2.2,8.2
			c53.6-27.5,113.1-37.3,171.6-48.8c60.2-11.9,121.5-21.5,179.9-40.7c2.5-0.8,4.5-3.1,4.4-5.8c-0.5-19.1-7.4-35.8-23.8-46.7
			c-9.2-6.1-20-9.6-30.7-11.8c-20.3-4.1-37.7-11.2-56.8-19.7c-74.3-33.3-150-63.4-226.9-90.2c-160.8-56-322.9-108-487.2-153.1
			c-94-25.8-188.5-49.5-283.4-71.8c-7.5-1.8-10.7,9.8-3.2,11.6c205,48,408.2,103.6,608,169.8c98.7,32.7,197.6,65.5,293.9,104.6
			c25.8,10.5,51.5,21.3,77,32.6c18.6,8.2,37.9,19.8,57.4,25.5c19.2,5.6,40.2,3.2,54.4,20.6c4.4,5.4,11.8,18.9,7.3,24.6
			c-4.8,6.1-30.6,9.2-37.5,10.9c-102.3,25.5-215.7,29.4-310.7,78.1c-2.6,1.4-4,5.7-2.2,8.2c9.7,12.8,29,7,42.1,3.2
			c22.7-6.6,44.6-16.6,66.7-24.6c16.3-5.9,30.9-14.4,45-24.3c8.6-6.1,20.6-11.6,26.4-20.8c18.6-29.5-18.2-35.5-38.6-40.2
			c-77.4-17.7-160.3-11.6-239.2-13.4c-92.3-2.1-184.8-2.3-276.6,8c-3.1,0.3-6.2,2.5-6,6c0.8,15.8-35.3,28.9-47.3,35.5
			c-19.9,11-39.9,21.9-60,32.6c-38.4,20.4-76.8,41-114.9,62C680.1,654.8,607.3,691,541.6,737c-27.8,19.4-54.5,40.5-79.8,63.1
			c-13.9,12.4-27.4,25.2-40.5,38.5c-12.4,12.6-28.9,26.3-38.2,41.3c-9.6,15.6,0,42.1,7.7,57.9c9.4,19.2,24.9,33.9,44.1,42.9
			c27,12.7,55.3,9.6,83.3,16.7c40.3,10.3,80,23.1,120.2,33.8c83.2,22.3,167,42.3,251.3,60.1c170.6,36,342.4,67.3,514.3,96.4
			c97.1,16.4,194.4,32.1,291.8,46.5c20.7,3.1,41.9,1.9,62.8,3.7c24.5,2,48.8,5.6,72.8,10.6c45.7,9.7,89.8,25.1,131.9,45.2
			c0.5-3.7,1-7.3,1.4-11c-70.3,19.1-141.2,21.4-212.8,31.7c-72.7,10.5-144.4,25-216.4,39c-137.6,26.9-276.7,50.3-408.2,100.6
			c-6.4,2.4-5.3,11.2,1.6,11.8c43.3,3.8,85.4-9,127.7-16.5c-1.1-3.9-2.1-7.7-3.2-11.6c-56.4,14.1-114,21.3-171.5,29.3
			c-58.8,8.2-117.6,17.4-176.2,26.8c-114.9,18.5-229.4,39.1-343.4,62.9c-114.7,23.9-228.9,47.7-341.6,80
			c-111.2,31.9-218.1,72-325.4,114.7c-31.1,12.4-62.2,24.8-93.3,37.2c-29.6,11.8-55.4,25.6-82.7,42.1c-27.3,16.4-54.7,32.9-82,49.3
			c-8,4.8-20.2,8.8-25.1,17c-2,3.3-2.5,12.9-3.3,17.3c-2.2,11.5-4.4,23-6.7,34.5c-0.7,3.4,1,6.2,4.2,7.4
			c61.3,23.1,124.3,40.8,188.9,52.1c66,11.6,131.3,26.6,196.8,40.7c133.5,28.8,267.5,56.2,400.6,86.9c66,15.2,131.7,31.2,197.3,48.2
			c28,7.2,58.4,20.1,87,22.8c10.6,1,23-2,33.8-2c15,0,30.1,1.3,44.7,4.9c19.7,4.9,38.2,14,52.4,28.7c6.3,6.5,11.6,13.9,16,21.9
			c1.7,3.1,8.5,14.4,7.7,17.2c-1.8,6.4-18.2,13.3-23.4,16.7c-53.7,34.4-110.1,64.5-167,93.3c-67.2,34-134.8,66.9-202.2,100.4
			c-64.7,32.1-130.6,59.7-190.5,100.5c-4.4,3-3.4,11.9,3,11.2c70.9-7.7,142-14.2,213.2-17.5c-0.5-3.9-1.1-7.9-1.6-11.8
			c-81.4,26.2-166.6,35.7-250.4,51.3c-88.8,16.6-177.5,34-266.4,50.7c-86,16.2-171.6,34.1-256.8,53.8
			c-42.6,9.8-84.8,21.8-127.6,30.8c-35,7.4-71.6,3.3-107,11.5c-64.6,15.1-118.4,52.4-157.7,105.4c-2.4,3.2,0.2,7.9,3.6,8.8
			c169.7,47.6,344.2,74.2,518.2,100.2c175.4,26.2,350.7,50.4,526.9,70.3c102.2,11.5,204.4,22.6,306.4,34.8c-1-3.7-2-7.5-3-11.2
			c-113.1,49.4-238.4,68.8-356.3,104.1c-60,17.9-119.4,37.9-178,59.7c-59,22-113,52.7-168.6,82.1c-1.8,0.9-3.1,3.2-3,5.2
			c1.3,27.6,10.5,53.6,35.9,67.5c11.7,6.4,25,9.2,38.2,10.4c10.3,0.9,20.3-0.3,30.5-0.1c18.7,0.3,38.5,8.4,56.5,13.3
			c114.1,31.4,228.4,62.1,343,91.9c231.8,60.4,463.9,118.9,694.7,182.7c26.9,7.4,53.8,14.9,80.6,22.4c12.2,3.4,22,6.7,34.3,6.6
			c13.5-0.2,27-2.2,40.5-2.3c35.3-0.2,75.8,4.2,103.8,28c11.6,9.9,20.1,22.7,25.1,37.1c2.8,7.9,4.5,16.2,5.4,24.5
			c1.6,13.7-6.9,16.7-17.4,24c-48.3,33.2-95.6,67.9-142.5,103c-90.6,67.9-182.6,134.5-270,206.5c-40.8,33.6-82.1,65.3-117.3,105
			c-13.6,15.4-20.6,19.3-12.1,38.7c5.1,11.6,13.6,20.8,25.6,25.2c20.1,7.5,40-0.8,60.2-2.2c32.2-2.2,65.3-0.4,97.5-0.6
			c67.1-0.4,134.2-3.3,201.1-7.6c131.6-8.5,262.6-23.7,392.7-45c2-0.3,3.7-2.3,4.2-4.2c8.3-34.3-8.5-56.1-43.2-60.6
			c-15.6-2-30.8-0.3-46.2-4.4c-18.3-4.9-36.3-11.8-54.3-17.6c-34.8-11.2-69.7-22.2-104.6-33.1c-141.1-44-282.6-86.7-425.9-123
			c-21.3-5.4-42.6-10.7-63.9-15.8c-18.4-4.4-28.7-3.4-47.4-2.8c-35.2,1.1-65.4-11.4-88.2-38.3c-0.4,3.1-0.8,6.3-1.2,9.4
			c69.5-39.7,142.7-71.8,214.6-106.7c33-16,65.7-31.4,99.3-46c28-12.2,54.3-28.2,77.7-47.9c11.7-9.9,22.5-20.6,32.5-32.2
			c10.4-12.1,18.6-26.8,30.1-37.7c17-16.1,30-31.1,28.3-56.1c-1.8-26.4-6.6-57.7-17.6-82c-14.1-31.4-39.9-53.8-63.9-77.6
			c-64.5-63.9-151.8-91.9-221.4-148.6c-0.4,3.1-0.8,6.3-1.2,9.4c21.4-11.5,44-18.6,68.3-19.8c19.2-1,37.4,2.6,56.6,0.6
			c41.1-4.3,82.1-8.4,123.2-12.5c85-8.3,169.9-16.3,254.9-24.9c169.8-17.1,339.7-34.1,510.2-42.3c-0.5-3.9-1.1-7.9-1.6-11.8
			c-161.2,28.4-323,53.1-483.3,86.2c-78.8,16.2-157.5,34-235.3,54.5c-37.7,9.9-75.2,21-112.2,33.1c-36.7,12-76.5,33.7-115,36.3
			c-46.6,3.2-91.8,16.8-89.8,71.9c0.1,2.5,1.8,5.3,4.4,5.8c110.3,20.6,222.5,23.7,333.9,35.3c-2-2-4-4-6-6
			c1.2,21.7-11.8,28-32.1,27.1c-11.6-0.6-23.2-3.4-34.3-6.6c-13.5-3.8-21.8-2.1-36.1-0.1c-61.9,8.9-123.8,18.1-185.6,27.7
			c-125.1,19.4-250,40.3-375,60.8c-123.5,20.3-247,40.8-370.4,61.7c-61.7,10.4-123.4,20.9-185.1,31.5
			c-59.8,10.2-120,17.2-179.8,27.7c-135.1,23.8-268.3,57.7-398.6,100.6c-4.6,1.5-5.4,6.4-2.6,10c24.2,31.2,56,54.2,94.6,63.8
			c19,4.7,38.9,6.3,58.5,5.5c9.9-0.4,19.8-2.6,29.6-2.9c17.3-0.5,35.1,5.4,51.8,8.9c120,25.2,239.9,50.5,359.9,75.8
			c118.9,25.1,237.6,50.5,356.8,74.2c118.9,23.7,238.3,50.2,358.2,67.9c134.9,19.9,268.3,40.8,401,73.3c0-3.9,0-7.7,0-11.6
			c-117.7,24.2-237.1,40.8-355.9,58.1c-57.3,8.3-114.1,19.3-170.3,32.9c-54.1,13.1-104.6,23.7-154.1,50.6c-1.8,1-3.1,3.2-3,5.2
			c1.2,19.1,8.2,35.9,26.4,44.3c9,4.1,18.4,4.9,28.1,5.6c22.4,1.7,43.6,7.2,65.6,12c81.1,17.6,162.9,29.8,245.1,40.4
			c88.1,11.4,176.4,20.8,264.9,28.4c42.8,3.6,85.6,6.8,128.4,9.6c45.4,2.9,91.4,2.9,136.6,7.9c93.6,10.4,185.8,9.3,278.6-7.9
			c7.3-1.4,4.5-11-1.6-11.8c-187.3-25-376.4-29-565.2-29.2c-189.5-0.2-379.2,1.1-568.5,9.2c-7.7,0.3-7.8,12.2,0,12
			c146.3-4,292.7-5.2,439-8.6c134.7-3.1,271.1-1,402.4-35.3c3.7-1,5.5-5.5,3.6-8.8c-14.4-24.4-34.2-17.3-56.7-9.8
			c-23.9,8-54.1,5-79,6.2c-24.9,1.1-49.8,2.2-74.7,3.5c-95.6,4.9-191,12.9-285.9,26c-3.3,0.5-4.8,4.6-4.2,7.4
			c3.8,18.1,17.5,23.4,34.9,20.5c21.4-3.6,40.1-5,62.1-4.6c20.9,0.4,41.8,0.6,62.7,0.8c86.3,0.7,172.7-0.1,259-0.9
			c86-0.8,172.1-2.1,258.1-4.1c23-0.5,44.5,0,67.3,3.6c16.2,2.5,32.5,3.8,48.9,3.4c34.5-0.9,67.5-9.6,98.8-24.1
			c4.5-2.1,3.5-10.1-1.4-11c-179.8-30.5-362.4-33.2-544.3-34.7c-187.6-1.5-374.7-3.5-562.2,5c-102.1,4.6-202.1,8-303,26.1
			c-4,0.7-5.3,5.7-3.6,8.8c6.7,12.5,16.8,18.3,31.1,16.8c13.1-1.4,23.8-9.7,36.8-11.7c15.2-2.3,32.2-1,47.6-1.4
			c68-1.9,136-2.9,203.9-4.7c66.9-1.7,133.7-6.1,200.5-9.1c64.9-2.9,124.3-8.5,185.3-33.2c3.7-1.5,6.5-6.9,2.6-10
			c-42.4-34.6-94.3-32.9-145.9-42c-62.7-11-125.8-20.1-189-27.3c-64.5-7.3-129.1-13.5-194-16.4c-64.3-2.8-129.2,3.1-193.2-2.3
			c0,4,0,8,0,12c180.4-11.2,361.3-9.7,541.9-17.7c45.6-2,91.1-4.5,136.7-7.4c44.3-2.8,91.2-11.5,134.9-3.4
			c60.3,11.2,117.5-2.8,159-49.5c3.2-3.6,1.7-8.4-2.6-10c-38.5-14.4-77.9-25.7-118.3-33c-36.1-6.6-72.3-8.1-108.7-11.7
			c-85.4-8.4-170.6-18.7-256.2-25.7c-84.6-6.9-169.2-14.2-253.9-19c-40.7-2.3-81.4-4.1-122.1-5.4c-18.9-0.6-34.5-0.2-52.8,3.1
			c-25.1,4.5-49.2,1.1-72.6-8.6c0,3.9,0,7.7,0,11.6c92.7-17,186.1-31.5,279.4-44.9c21.6-3.1,43-7.1,64.2-12.1
			c21.6-5.1,43.3-14,65.2-17.3c24.7-3.6,44.2-4.5,50.1-33.1c0.8-4.1-1.7-7.2-5.8-7.6c-156.9-13.8-314.1-4.9-471.2-2.1
			c-78.1,1.4-156.3,3.5-234.4,6.4c-36.2,1.3-72.5-2-108.6,0.5c-34.9,2.4-68.8,10.2-101.6,22.1c-6.6,2.4-5.1,11,1.6,11.8
			c116.5,13.3,233.9,7.9,350.9,7.5c119-0.4,238-2.4,356.9-2.9c116-0.4,232-2.6,348-6.6c59.5-2,118.9-4.5,178.4-7.5
			c29.7-1.5,59.4-4,89.1-4.8c26.8-0.7,53.6,1.7,80.5,1c111.7-3,220.1-33.4,317.6-87.7c2.9-1.6,3.6-5.4,2.2-8.2
			c-29-56.8-83.2-78.3-145-70.5c-21.7,2.7-41.7-1.2-63.2-4.5c-26.1-3.9-52.3-7.7-78.5-11.3c-48.6-6.7-97.2-12.8-145.9-18.3
			c-200.1-22.6-401.2-42.5-602.6-47.5c-115.8-2.9-231.8-0.5-347.3,9.1c-2.9,0.2-6.4,2.6-6,6c1.9,15.4,9.2,26.6,25.7,27.8
			c11.5,0.8,23.5-3.7,33.9-8.1c7.4-3.1,14.2-7.4,21.5-10.6c12.5-5.3,26.1-5.8,39.4-7.3c89.4-10.2,178.7-22,267.8-35.4
			c87.2-13.1,174.7-24.4,261.1-42.4c85.2-17.7,169.4-40.4,252-67.7c35.6-11.8,71.3-18.8,103.1-39.9c28-18.5,49.8-43.7,66.2-72.8
			c2.1-3.7,0-7.4-3.6-8.8c-65.7-26.2-132.8-16.4-201.8-16.3c-73.3,0-146.6,1.3-219.9,3.7c-74.6,2.5-149.2,5.4-223.6,11
			c-36.4,2.7-72.8,6-109.2,9.7c-36,3.7-72.8,11.6-108.9,12.9c-27.7,1-53.3-15.1-81.5-5.7c-16.7,5.5-26.4,18.3-31.3,34.7
			c-1,3.5,1.9,8,5.8,7.6c186.3-18.3,372-41.9,557.2-69.4c184.9-27.4,369.7-55.8,553.1-92.1c104.5-20.6,208.5-44,311.5-71.3
			c2.3-0.6,4.7-3.2,4.4-5.8c-1.5-14.3-6.2-27.6-20.5-33.4c-19.6-8-39.2,3.1-58.4,5.6c-19.1,2.5-40.2-1.4-59.5-2.6
			c-17.5-1.1-35-2.2-52.5-3.3c-38-2.3-76.1-4.5-114.1-6.7c-73.6-4.2-147.2-7.2-220.9-8.9c-37.1-0.9-74.2,1.5-111.4-0.3
			c-39.1-1.9-77.9-6.4-116.5-13c0,3.9,0,7.7,0,11.6c84.3-34.8,176.7-43.9,266-58.1c48.2-7.7,96.2-16.5,143.9-26.4
			c23.9-5,47.7-10.2,71.5-15.7c23-5.3,41-18.1,61.2-30c4.5-2.7,3.5-9.5-1.4-11c-145.2-43.1-297.5-48.3-447.5-60.8
			c-162.7-13.6-325.9-19.2-489-25.8c-91.9-3.7-183.9-7.9-275.7-14c1,3.7,2,7.5,3,11.2c33.5-22.9,71.1-36,111.8-37.5
			c18.2-0.7,34.6,0.9,52.7-2.1c23.1-3.8,46.2-7.7,69.3-11.5c88.1-14.7,176.2-28.8,264.5-42.5c177-27.5,353.1-60.9,529.2-92.9
			c96.7-17.6,191.6-43.4,284.1-76.6c3.6-1.3,5.6-5.3,3.6-8.8c-12.9-22.4-31.1-40.2-56.2-48.2c-32.3-10.3-64.1,2.6-96.3-3.1
			c-91.1-16.1-182.8-29.1-274.8-38.9c-191.1-20.5-383.8-30.1-575.7-39.4c-26.7-1.3-53.3-2.5-80-3.7c-12.1-0.5-25.2-2.5-37.2-1.3
			c-10.1,1-20.3,5.4-30.4,7.1c-50,8.6-98.5-1.2-140.5-29.8c-0.5,3.7-1,7.3-1.4,11c229.5-51.6,461.8-89.5,692.7-133.9
			c110.6-21.3,221.9-41.9,331.4-68.2c55.2-13.2,110.1-28.1,164.4-44.6c27.2-8.3,54.3-16.9,81.3-26c13-4.4,25.8-9.9,39.3-12.5
			c13.4-2.6,27.2-2.2,40.8-3.8c30.2-3.6,65.4-11,86.3-35.2c19.1-22.1,17.7-51.3,10-77.8c-0.8-2.8-3.1-4.1-5.8-4.4
			c-116.9-14.5-234.6-21.5-352.2-26.8c-116.1-5.3-232.9-13.7-349-3.6c-7.7,0.7-7.8,11.5,0,12c162.7,10.5,325.3-4,487.7-12.8
			c81.3-4.4,162.5-11.1,243.5-20c39.6-4.4,79.1-9.3,118.5-14.8c32-4.4,62.2,6.8,94.4,5.4c46.7-2.1,76.8-28.4,82.9-74.8
			c0.3-2.4-2.1-5.3-4.4-5.8c-187.2-35.3-376.6-57.2-566.5-71c-193.9-14.1-388.4-23.3-582.8-25c-108.2-0.9-216.2,7.7-324-5.6
			c0.5,3.9,1.1,7.9,1.6,11.8c144.7-27.3,291.7-40.7,436.8-65.6c35.6-6.1,71.1-12.5,106.6-19.3c36.7-7,73.7-16.9,110.9-19.4
			c56.1-3.7,105.8-20.7,149.5-56.7c3.4-2.8,1.6-9.2-2.6-10c-154.5-28.7-312-27-468.5-28.9c-164.6-2-329.3-3.6-493.8-7.7
			c-92.9-2.3-185.8-6.3-278.5-13.4c1.7,3,3.5,6,5.2,9c22.1-40.3,62.3-51.2,105.8-44.2c7.5,1.2,16.1,4.6,23.6,4.6
			c11.1,0,24.2-4.4,35.2-6.5c27.2-5.1,54.5-10.3,81.7-15.6c107.4-20.8,214.6-43.1,321.4-66.8c207.9-46.1,412-99.3,610.6-177
			c42.7-16.7,87.5-29.3,125.7-55.5c34.6-23.8,61.8-55.4,82.2-91.9c1.2-2.1,1.1-5.6-0.9-7.3c-37.9-30.9-75.7-33.5-122-24.5
			c-32.9,6.4-69.5,2.8-103,3.1c-33.9,0.3-67.7,0.7-101.6,1c-65.3,0.6-130.6,0.7-196,2.8c-30.5,1-64.5-1.6-94.5,3.9
			c-16.2,3-30.8,8.9-47.8,9.5c-18.1,0.6-35.3-3.2-52.2-9.3c0,3.9,0,7.7,0,11.6c167.5-39.6,337-70.6,505.5-105
			c85.1-17.4,169.9-35.9,254.1-57.8c81.7-21.2,162.4-46.3,244-67.8c85.7-22.6,168.5-54.9,247.3-95.5c3-1.6,3.5-5.4,2.2-8.2
			c-10.4-21.7-26.9-38-51.4-41.6c-12.9-1.9-26-0.2-38.5,3c-25.3,6.4-47.7,7.4-73.8,7.6c-96.2,0.6-192.5,2.7-288.6,6.4
			c-194.4,7.4-388.8,13.6-582.9,26.1c-108.9,7-217.6,15.8-326.2,26.7c1,3.7,2,7.5,3,11.2c34.2-17.3,71.1-26.7,108-36.5
			c34.6-9.1,68.7-19.7,102.9-30.4c71.9-22.6,143-47.4,212-77.7c3.1-1.4,3.5-5.6,2.2-8.2c-9.1-18.4-24.1-29.9-45.2-29.9
			c-13.8,0-25.2,5.5-38.2,9c-20.8,5.6-44.6,3.5-66,4.4c-90.3,4-180.5,11.4-270.5,19c-178.6,15.2-356.6,35.2-534.7,55.4
			c0.5,3.9,1.1,7.9,1.6,11.8C372.9,980.8,534.5,954.3,695,922c78.9-15.9,157.2-34.4,234.9-55.5c34.9-9.5,71-12.1,105.3-24
			c31.9-11.1,61.1-27.5,87.9-48c4-3,3.9-9.4-1.4-11c-36.8-11.1-74.6-17.7-113-18.5c-41.8-0.9-83.2,6.4-124.9,7.7
			c-88.6,2.9-177.2,5.3-265.7,9.1c-179.2,7.7-358.4,19.2-537.9,16.4c1,3.7,2,7.5,3,11.2c35.7-21.1,74.4-36.1,115.2-43.4
			c20.8-3.7,41.7-4.6,62.4-9.1c23-5,46.1-10.1,69.1-15.3c92.1-20.6,184-41.8,275.8-63.9c90.9-21.8,182-42.2,272.3-66.6
			c45.1-12.2,89.9-25,134.7-38.4c21-6.3,41.9-12.7,62.8-19.2c21.8-6.8,42.7-5,65.1-7.5c58.6-6.4,104.5-37.6,121.4-95.3
			c1.1-3.8-1.9-7.6-5.8-7.6c-129.9-0.6-259.4,12.2-388.4,26c-124.7,13.3-249,31.1-371.7,57.6c-5.6,1.2-5.9,10.6,0,11.6
			c24.6,4.2,49.3,6.2,74.2,4.7c28.1-1.7,54.3-10,81.9-14.3c55.5-8.7,112.3-12.3,168.1-18.6c115-12.9,230-26.2,344.9-39.9
			c227-27,453.6-56.3,679.5-92.2c32.8-5.2,65.2-9.7,98.3-12.8c24.2-2.3,48.2-6.7,71.4-13.8c45.8-14,87-38.2,123.1-69.5
			c3.1-2.7,1.7-7.4-1.2-9.4c-54.9-38.2-119.2-47.8-183.7-31.5c-42.1,10.7-88.9,6.9-132.3,8.3c-44.1,1.3-88.2,2.9-132.2,4.8
			c-170.3,7.1-341.1,14.9-511,28.3c-94.5,7.5-188.8,18-282.2,34c1.1,3.9,2.1,7.7,3.2,11.6c120.9-45.1,243.9-86.3,367.2-124.5
			c57.2-17.7,113.4-38.2,168.6-61.4c47.3-19.9,97.1-29.6,130-72c2.3-3,2.5-7.3-1.2-9.4c-33.1-18.9-71.8-22.8-109.3-23.3
			c-42.7-0.6-85.6,1.8-128.3,1.7c-115.1-0.1-230.1,0.3-345.2,0.5c-227.7,0.4-455.5-1-683.2,1.3c-127.4,1.3-255.8-0.3-382.8,11
			c-7.8,0.7-7.6,11,0,12c89.7,11.3,179,6.1,269.1,5.8c91-0.3,182.1-0.2,273.1,0.3c180,1.1,360-0.1,539.9,2.2
			c102.6,1.3,205.1,3.9,307.6,8.6c-0.5-3.9-1.1-7.9-1.6-11.8c-141.7,49.8-305.4,23.4-441.4,93.6c-5,2.6-3,9.3,1.4,11
			c24.9,9.6,51.3,14.4,75.5,25.9c0-3.5,0-6.9,0-10.4c-59.6,36.7-127,47.2-193,66.7c-72.9,21.5-145.6,43.7-218,66.6
			c-70,22.1-140.2,43.3-209.8,66.7c-66.4,22.2-131.8,50.8-200.5,63.8C61.6,463.4,18,495.3-7.4,544.8c-1.4,2.8-0.8,6.6,2.2,8.2
			c61.8,34.1,129.3,54.9,199.8,60.1c19.5,1.4,38.8,0.2,58.2,1c21.8,0.9,43.9,4.9,65.6,7.3c42.3,4.7,84.5,9.4,126.8,14.1
			c174.6,19.4,349.3,37.3,524.6,48.2c98.9,6.2,197.8,10.3,296.9,11.9c-0.5-3.9-1.1-7.9-1.6-11.8c-141.1,24.5-284.3,33.6-425.9,54.7
			c-141.4,21-282,47.5-420.8,82c-6.8,1.7-4.9,11.4,1.6,11.8c83.2,5.5,166.5-4.3,249.6-7.5c83.3-3.2,166.7-6.4,250-10.1
			c165.1-7.2,330.3-17.1,494-40.8c6.9-1,4.9-11.5-1.6-11.8c-91.1-3.6-181.2,3.9-272.1,8.2c-93.1,4.5-186.2,9.1-279.4,13.8
			c-185.2,9.5-370.3,18.8-555.1,34.9c-45.9,4-92.1,3.9-137.8,10.8c-47.3,7.1-93.2,20.1-137.6,37.7c-6.1,2.4-5.5,11.4,1.6,11.8
			c91.8,4.8,183.6-5.3,275-11.9c93.3-6.7,186.5-19.2,280.2-10.5c-0.5-3.9-1.1-7.9-1.6-11.8C424.4,880.6,260.1,896.8,97.5,923
			c-164.5,26.5-327.3,60.8-491,91c-89,16.4-176.5,39.4-262.2,68.4c-4,1.4-6.2,6.8-2.6,10c18.5,16.5,39.6,27.6,64.7,30.1
			c15.5,1.5,30.7-2,46.2-1.5c20.1,0.6,40.2,3.3,60.3,4.7c78.9,5.5,158,8.7,237.1,13c160.6,8.8,321.3,17.4,482,24.8
			c321.5,15,642.3,25,964.2,21.1c88.7-1.1,177.4-2.1,266-3.2c45.8-0.5,91.5-0.9,137.3-1.2c22.1-0.1,44.2-0.3,66.4-0.4
			c10.3-0.1,20.6-0.1,31-0.2c11.8-0.1,32.9-3.4,43.5,3c1-3.7,2-7.5,3-11.2c-378.3,27.7-758.6,69.4-1131.3,140.8
			c-47.9,9.2-97.2,13.9-144.5,25.8c-44.7,11.2-86.9,29.8-126,54.1c-4.5,2.8-3.5,9.4,1.4,11c33.4,10.7,67.8,15.9,102.8,13.9
			c38.9-2.2,77.1-5.1,116.2-5.3c78.6-0.5,157.1,0,235.7,0.5c160.4,1,320.7,0.9,481.1,3.2c92,1.3,184.1,3.5,276,6.8
			c-1.4-3.4-2.8-6.8-4.2-10.2c-13,12.2-27.7,21.3-45.3,25.2c-21.4,4.7-38.4-1.7-59.2-1.8c-15-0.1-31.3,4.6-46.2,7
			c-21.9,3.5-43.8,6.9-65.7,10.4c-83.2,13.2-166.4,26.6-249.5,40c-84.8,13.6-169.7,27.3-254.5,40.9c-41,6.6-81.9,13.2-122.9,19.8
			c-40.9,6.6-82,9.6-123,15.2c-89.2,12.3-176.4,35.1-260.4,67.4c-3.7,1.4-6.5,6.9-2.6,10c42.4,34.3,93.1,51.4,147.8,48.9
			c73.4-3.3,148.8,7.9,222.1,13.6c74.1,5.7,148.6,7.9,222.8,11.1c75.9,3.3,154.4-1,229.1,13.8c0-3.9,0-7.7,0-11.6
			c-58.7,22.7-118.1,43.7-177,65.9c-29.9,11.3-59.5,23.1-88.9,35.6c-27.7,11.7-52.5,29.3-78,45.1c-2.1,1.3-3.7,4.3-2.8,6.8
			c7.5,20.8,21.5,35.1,44.4,36.7c18.9,1.3,36.5-3.3,55.8-0.7c24.9,3.3,49.8,6.4,74.6,9.8c88,12.2,175.8,26.7,262.8,45.1
			c11.2,2.4,22.4,4.8,33.6,7.3c7,1.6,28.5,2.8,33.4,7.7c6-0.1,6.7,3.1,2.2,9.5c-4.4,5.1-9.9,7.7-16.4,7.8
			c-6.8,1.1-13.7-1.4-20.4-0.6c-18.3,2.3-38.9,12.8-56.6,18.5c-21.8,7-43.7,13.7-65.5,20.6c-43.6,13.7-86.9,29.2-131.4,39.2
			c-31.7,7.2-57.7,22.5-78,48.2c-2.6,3.3-2.1,6.9,1.2,9.4c21.5,16.2,45.7,26.4,72.6,28.7c33.1,2.9,67.1,2.7,100.5,4.9
			c74.2,4.7,148.4,6.7,222.6,9.4c73.7,2.7,147.5,4.2,221.3,4.6c72.7,0.4,145-3.7,217.7,0.7c0-4,0-8,0-12
			c-363.4,9-727.1,5.5-1090.5,13.8c-101.4,2.3-202.9,7.3-303.7,18.6c-7.6,0.8-7.8,11.5,0,12c92.7,6.3,185.6,2.9,278.4,1.6
			c93.4-1.3,186.8-7.8,280.1-0.9c0-4,0-8,0-12c-168.5,21.8-337.6,38.9-506.3,58.9c-83,9.9-165.9,19.6-248.7,31.2
			c-84,11.8-167.6,26.4-251.9,35.9c-77.3,8.7-149.6,36.8-212.9,81.9c-2.8,2-3.6,5-2.2,8.2c8.3,18.1,21.4,32.8,41.7,36.8
			c9,1.8,17.3,0.4,26.2-0.1c17.6-0.9,35.4,3,52.8,4.4c76.4,5.9,154.4,2.6,231.1,3.7c152.1,2.3,304.3,4.3,456.5,6
			c305.5,3.4,610.9,4,916.4,3.7c172.9-0.2,345.7-0.6,518.6-1c0-4,0-8,0-12c-537.8,8.6-1076,5.6-1613.5,27.5
			c-38.4,1.6-77,4.9-115.4,3.5c-33.9-1.2-67.8-0.6-101.5,2c-70.3,5.4-139.5,19.5-206.6,41.1c-3.4,1.1-5.9,5.5-3.6,8.8
			c22.9,32.6,52.5,27.7,88.4,33.6c49.3,8.1,99.3,11.2,148.9,16.6c105,11.5,209.8,23.8,314.7,35.4c210.1,23.2,420.7,42.7,631.9,53.8
			c59.2,3.1,118.4,5.5,177.6,7.2c57.8,1.6,116.1-1,173.8,3.6c0-4,0-8,0-12c-189.2-0.8-378.4,5.8-567.4,14.4
			c-185.8,8.5-371.2,20.6-556.1,42c-88.7,10.3-176.1,27.7-264.5,40.3c-41.2,5.9-81.9,14.3-121.7,26.5
			c-39.3,12.1-75.6,32.3-114.4,44.7c-26.6,8.5-49.8,13.8-65.1,39.8c-3.9,6.7-12,20.3-10,28.3c2.5,10,24,22.8,32.2,27.8
			c13.8,8.4,28.9,12.8,43.9,18.6c21.7,8.4,43.2,16.8,65.3,23.7c43.2,13.6,87.5,24.3,131.1,36.4
			c361.3,100.5,726.1,188.4,1093.2,265.4c178.9,37.5,360.8,65.9,536.9,115.2c20.4,5.7,40.8,11.8,61,18.2c9.4,3,18.9,6.1,28.2,9.3
			c1.6,0.6,14.1,3.5,16.1,5.6c6.6,7.1,2.6,15.8-7.1,21.3c-36.2,20.7-79.4,38.3-119.8,48.8c-84.5,22-174.9,23-261.5,31.8
			c-188.7,19.3-377.9,34.4-566.3,56.5c-163.1,19.2-328.6,40.7-482.7,100.2c-37.2,14.3-73.4,30.9-108.5,49.8
			c-3.6,1.9-3.6,6.6-1.2,9.4c11.4,13.2,23,15.8,39.5,14c32.6-3.6,66.2-2.4,99-2.6c65.8-0.5,131.6-0.2,197.4-0.1
			c129.8,0.2,259.7,0.6,389.5-1.9c127.3-2.4,254.2-4.7,381.6,0.3c58.8,2.3,137.1,4.3,184.7,44.4c20.5,17.3,35.4,41.3,50.1,63.6
			c17.6,26.8,33.6,54.9,46.5,84.3c26.7,60.7,36.4,120.1,15.4,184c-17.8,54.1-41.1,108.3-71.6,156.4
			c-62.6,98.4-163.7,152.7-278.4,163.5c-61,5.8-122.7,2.4-181-17.7c-58.2-20.1-115.9-54.6-161.8-95.5c-43.1-38.5-80-85-116.7-129.4
			c-38-45.9-74.7-92.9-114.1-137.6c-61.6-70-144.8-165.6-248.7-152.3c-37,4.7-67.8,24.5-82.6,59.4c-19,44.7-24.3,101.3-25.6,149.5
			c-1.1,41.4,1.2,86,27,120.3c21.7,28.8,55.3,45.7,89.6,54.5c83.2,21.3,185.7,11.1,253.7-43.8c38.6-31.1,68.3-70.3,84.3-117.4
			c19.5-57.1,16.6-116.6,13.4-175.9c-6.4-120.5-33.5-242.3-24-363.1c4.6-58.8,19.3-118.6,54.3-167c37.9-52.3,92.8-63.9,153.9-69.5
			c28.2-2.6,55.5-1,83.6,1.1c14.8,1.1,37.9-0.7,46.8,14.5c5.2,9-5.5,38.1-7.6,48c-10.6,48.5-25.7,97.2-54.9,138
			c-33.2,46.4-84.9,74.5-136.3,96.6c-57,24.5-118.3,39-180.5,36.9c-126.4-4.2-247.4-64.2-357.1-122.3
			c-50.1-26.5-100.6-55.3-139.1-97.8c-40.1-44.2-80.2-98.1-94.9-156.9c-15.2-60.7-9.2-129.9,1.1-191c9.9-58.8,28.3-116.4,57.6-168.5
			c50.5-89.8,127.2-161.2,182.2-248c26.9-42.4,49.4-89.3,57.8-139.2c8.3-49.6,3.5-100.7-9.7-149c-12.5-45.6-32.7-88.4-57.6-128.4
			c-18.6-29.8-39.5-60.6-67.7-82.2c-28.5-21.8-56.3-22.9-85.4-1.7c-33.7,24.6-64.6,64.9-67.9,107.8c-2,26,4.4,53,6.1,79
			c2.1,30.9,4,61.8,5.2,92.7c1.8,43.1-0.5,104.3,26.7,140.9c21.8,29.4,57.3,11.5,82.7-2.6c51.5-28.6,103.6-56.7,151.4-91.4
			c47.2-34.3,90.1-73.9,131.4-114.9c41.3-41,81.9-83.1,117.4-129.3c33.9-44,62.6-91.8,81.1-144.4c18.8-53.6,26.4-109.5,29.5-166
			c3.6-64.9,1.8-129.9,1.3-194.8c-0.4-62.7,2.4-125.1,6-187.6c3.5-60.8,8.1-121.8,21.2-181.4c13.8-62.5,39.3-120.1,70.7-175.7
			c58.4-103.7,128.8-207.1,218.1-286.6c92-81.9,204.6-151.5,331.9-144.2c99.2,5.8,237.8,35.2,294.4,126.4
			c29.4,47.4,16.9,106.5,3.5,157c-14.4,54.2-30.3,107.8-51.9,159.7c-24.3,58.2-53.8,114.2-85.6,168.6
			c-28.4,48.6-58.4,101.2-102.2,137.7c-45.9,38.2-103.4,48.7-161.6,48.8c-66.1,0.1-132.3-3.8-198.3-8.2c-22.5-1.5-45.1-1.5-67.5-3.2
			c-13.9-1.1-28-2.9-40.9-8.6c-16.4-7.3-27.6-21.7-40.6-33.6c-41-37.7-85.6-71.4-122.2-113.7c-20.7-23.9-34.1-46.1-35.7-78.4
			c-1.3-25.2,3.1-50.5,9.2-74.8c13.9-55.5,40.8-105.4,70.7-153.7c130.3-210.7,308.6-386,464-577.6c35.8-44.1,71.3-88.5,104.9-134.2
			c34.1-46.4,65.2-95,108.8-133.3C1594.5,301.6,1585.9,293.1,1580.2,298.2L1580.2,298.2z"/>
	</g>
</g>
</svg>
