<?xml version="1.0" encoding="utf-8"?>
<!-- Generator: Adobe Illustrator 18.1.1, SVG Export Plug-In . SVG Version: 6.00 Build 0)  -->
<!DOCTYPE svg PUBLIC "-//W3C//DTD SVG 1.1//EN" "http://www.w3.org/Graphics/SVG/1.1/DTD/svg11.dtd">
<svg version="1.1" id="Layer_1" xmlns="http://www.w3.org/2000/svg" xmlns:xlink="http://www.w3.org/1999/xlink" x="0px" y="0px"
	 viewBox="0 0 2000 2000" enable-background="new 0 0 2000 2000" xml:space="preserve">
<rect fill="#FFFFFF" width="2000" height="2000"/>
<path fill="#FFFFFF" stroke="#000000" stroke-width="8" stroke-miterlimit="10" d="M1051.1,299.8c-18.2,0-36.4-0.3-54.6-0.9
	C881.7,295,769,277.6,660.1,260.7L118,177c-49.1-7.6-82.8-53.6-75.2-102.7C50.4,25.2,96.4-8.5,145.5-0.9l542.1,83.7
	c103.7,16,211,32.6,315,36.1c82,2.8,167.3-2.4,249.9-7.3c75.4-4.5,153.3-9.2,222.3-30c24.6-7.4,49.6-17.2,76-27.6
	c37.8-14.8,76.8-30.1,119.8-40.5c73.5-17.6,145-17.7,217.8-16.2c49.7,1,89.1,42.2,88.1,91.9c-1,49-41.1,88.1-89.9,88.1
	c-0.6,0-1.3,0-1.9,0c-60.6-1.3-119.4-1.4-172,11.3c-30.9,7.4-62.5,19.8-96.1,33c-28.7,11.2-58.3,22.9-90,32.4
	c-89,26.7-177.6,32.1-263.2,37.2C1194,295.5,1122.9,299.8,1051.1,299.8z"/>
<path fill="#FFFFFF" stroke="#000000" stroke-width="8" stroke-miterlimit="10" d="M1320.2,497.6c-13.7,0-27.4-0.4-41-1.3
	c-91.6-6-176.3-31.1-258.3-55.4l-187-55.4c-27.1-8-52.8-15.6-76.8-19.2c-19.4-2.9-40.8-3.5-63.6-4.3L88,342.7
	c-49.7-1.6-88.7-43.2-87.1-92.8c1.6-49.7,43.1-88.7,92.8-87.1l605.5,19.4c26.8,0.9,54.5,1.7,84.1,6.1c36.6,5.4,71.2,15.6,101.6,24.7
	l187,55.4c72.5,21.5,147.4,43.6,219,48.3c68.9,4.5,139.4-7,203.8-33.2c24-9.8,48.6-21.9,74.7-34.8c85.4-42.1,182.1-89.8,293.7-69.3
	c48.9,9,81.2,55.9,72.3,104.8c-8,43.4-45.8,73.8-88.4,73.8c-5.4,0-10.9-0.5-16.4-1.5c-53-9.7-112.6,19.7-181.6,53.7
	c-27.8,13.7-56.5,27.9-86.4,40C1485.9,481.4,1402.9,497.6,1320.2,497.6z"/>
<path fill="#FFFFFF" stroke="#000000" stroke-width="8" stroke-miterlimit="10" d="M1135.2,619.2c-75.1,0-150.4-6.4-225.9-22.1
	c-61.6-12.8-120.9-31.5-178.2-49.5c-89.3-28.1-173.7-54.6-257.7-57c-46.3-1.3-94.5,4.7-145.4,11.1c-59.6,7.4-121.3,15.1-186.1,11.8
	C92.2,511,54,468.7,56.6,419c2.5-49.6,44.8-87.8,94.5-85.3c49,2.5,100.3-3.9,154.6-10.7c55.4-6.9,112.8-14.1,172.9-12.4
	c109,3.1,209.5,34.7,306.6,65.3c55.6,17.5,108.1,34,160.9,45c91.6,19.1,193.7,23.1,312.1,12.4c109.2-9.9,222.4-31.2,331.9-51.9
	c45-8.5,91.5-17.2,137.4-25.2c58.3-10.1,120.8-19.7,186.5-16.9c49.7,2.1,88.2,44.1,86.1,93.7c-2,48.4-41.9,86.2-89.9,86.2
	c-1.3,0-2.6,0-3.9-0.1c-48-2-99.6,6-148.3,14.4c-44.6,7.7-90.4,16.3-134.7,24.7C1463.6,588.4,1300.2,619.2,1135.2,619.2z"/>
<path fill="#FFFFFF" stroke="#000000" stroke-width="8" stroke-miterlimit="10" d="M1397.7,779c-38.1,0-75.6-0.5-112.2-1
	c-71.1-0.9-144.7-1.9-218.5-8.6c-48.6-4.4-96.7-11.2-143.2-17.7c-73-10.3-142-20-210.7-20.8c-12.1-0.1-24.3,0-37.2,0.2
	c-37.6,0.4-76.4,0.9-117.8-5.2c-33.1-4.9-63.2-13.3-92.2-21.5c-8.7-2.4-16.9-4.7-25.1-6.9c-100-26.6-202.9-36.1-305.8-28
	c-49.6,3.9-92.9-33.2-96.7-82.7c-3.9-49.6,33.2-92.9,82.7-96.7c123.2-9.6,246.4,1.7,366.1,33.6c9.4,2.5,18.5,5.1,27.4,7.6
	c24.8,6.9,48.1,13.5,69.9,16.7c27.2,4,57.3,3.7,89.3,3.3c13.4-0.2,27.2-0.3,41.3-0.2c80.3,0.9,158.4,11.9,233.9,22.5
	c46.3,6.5,90.1,12.7,134.2,16.7c66.9,6,133.9,6.9,204.7,7.9c190.5,2.5,387.4,5.2,563.2-60.1c46.6-17.3,98.4,6.5,115.7,53.1
	c17.3,46.6-6.5,98.4-53.1,115.7C1744.9,769.4,1565.1,779,1397.7,779z"/>
<path fill="#FFFFFF" stroke="#000000" stroke-width="8" stroke-miterlimit="10" d="M1442.7,977.4c-3.6,0-7.2,0-10.8,0
	c-125.5-0.4-252.4-7.2-377.2-20.4c-111.6-11.8-223.7-28.8-332.2-45.3c-209.5-31.8-407.5-61.9-609.2-58.9c-0.4,0-0.9,0-1.3,0
	c-49.1,0-89.2-39.4-90-88.7c-0.7-49.7,39-90.6,88.7-91.3c216.7-3.2,431.3,29.4,638.9,61c106.4,16.2,216.4,32.9,324,44.2
	c118.8,12.5,239.5,19.1,358.8,19.4c82.8,0.2,167.7-2.5,249.8-5.1c55.7-1.8,104-5.1,132-26.9c39.2-30.6,95.7-23.7,126.3,15.5
	c30.6,39.2,23.7,95.7-15.5,126.3c-34.6,27.1-75.7,45-125.6,54.8c-37.8,7.4-75.8,9.2-111.5,10.3
	C1607.8,974.7,1525.1,977.4,1442.7,977.4z"/>
<path fill="#FFFFFF" stroke="#000000" stroke-width="8" stroke-miterlimit="10" d="M1630.2,1175.2c-28.8,0-56.6-2.1-82.8-4l-5.6-0.4
	c-198.9-14.6-373.4-15.7-533.5-3.3c-5.6,0.4-11.2,0.9-16.8,1.3c-41.3,3.3-84.1,6.8-129.3,4c-51.6-3.2-99.4-14.1-145.7-24.7
	c-6.3-1.4-12.7-2.9-19-4.3c-96.3-21.6-196.4-38.4-293.2-54.6c-87.2-14.6-177.5-29.7-263.9-30.5c-49.7-0.5-89.6-41.2-89.1-90.9
	c0.5-49.4,40.7-89.1,90-89.1c0.3,0,0.6,0,0.9,0c100.4,1,197.7,17.3,291.7,33c99.2,16.6,201.9,33.7,303,56.5c6.6,1.5,13.1,3,19.7,4.5
	c41,9.4,79.8,18.2,116.8,20.5c32.4,2,67-0.8,103.7-3.7c5.8-0.5,11.6-0.9,17.4-1.4c169.2-13.1,352.6-12,560.6,3.2l5.7,0.4
	c48.3,3.6,94,6.9,131.4-3.5c16.4-4.5,34.7-12.7,54.1-21.4c36.2-16.1,77.2-34.4,126.2-39.2c49.5-4.8,93.5,31.4,98.3,80.9
	c4.8,49.5-31.4,93.5-80.9,98.3c-19.8,1.9-44.3,12.9-70.3,24.4c-23.4,10.4-50,22.3-79.2,30.4
	C1702.8,1172,1665.7,1175.2,1630.2,1175.2z"/>
<path fill="#FFFFFF" stroke="#000000" stroke-width="8" stroke-miterlimit="10" d="M1220.8,1406.3c-56,0-116.8-4.7-185.4-14.3
	c-98.1-13.7-194.9-34.7-288.5-55l-71.5-15.5C485,1280.1,288,1237.4,94,1198.8c-48.8-9.7-80.4-57.1-70.7-105.8
	c9.7-48.8,57.1-80.4,105.8-70.7c195.6,38.9,393.3,81.8,584.6,123.3l71.5,15.5c90.4,19.6,183.8,39.9,275.2,52.7
	c65.9,9.2,120.4,13.2,171.5,12.5c103-1.4,205.6-22.2,314.2-44.3c108.1-21.9,219.8-44.6,335.3-47.6c0.8,0,1.6,0,2.4,0
	c48.6,0,88.6,38.8,89.9,87.6c1.3,49.7-37.9,91-87.6,92.3c-99.8,2.6-199.1,22.8-304.2,44.1c-111.9,22.7-227.7,46.2-347.5,47.9
	C1229.9,1406.2,1225.4,1406.3,1220.8,1406.3z"/>
<path fill="#FFFFFF" stroke="#000000" stroke-width="8" stroke-miterlimit="10" d="M1281.4,1569.6c-61,0-121.1-8.2-172.9-16
	c-92.8-13.9-186.2-30.6-276.5-46.7l-97.3-17.4c-39.3-7-80-14.3-119.6-20.2c-142.2-21.1-295.3-28.4-468.2-22.3
	c-49.7,1.8-91.4-37.1-93.1-86.8c-1.8-49.7,37.1-91.4,86.8-93.1c184-6.5,347.9,1.4,501,24.1c42.2,6.3,84.2,13.8,124.8,21l97.2,17.4
	c89.1,15.9,181.2,32.4,271.5,45.9c48.6,7.3,100.1,14.3,149.8,14c52.7-0.4,106.4-9.1,156.6-18.5c74.4-13.9,149.3-31.1,222.4-51.1
	l7.3-2c64.8-17.8,138.2-37.9,217.8-19.5c48.4,11.2,78.6,59.5,67.5,107.9c-11.2,48.4-59.5,78.6-107.9,67.5
	c-35.3-8.1-81.2,4.4-129.7,17.7l-7.4,2c-77.9,21.3-157.6,39.6-236.8,54.4c-55.5,10.4-121.3,21.1-188.3,21.5
	C1284.7,1569.6,1283,1569.6,1281.4,1569.6z"/>
<path fill="#FFFFFF" stroke="#000000" stroke-width="8" stroke-miterlimit="10" d="M1490.5,1787.5c-61.9,0-127.7-1.4-193.6-9.7
	c-54.5-6.8-107.4-18-158.5-28.8c-16.9-3.6-34.4-7.3-51.4-10.7c-75.1-15.1-151.8-26.9-227.9-35c-34.3-3.7-69.6-6.7-103.7-9.7
	l-47.1-4.1c-46.1-4-93.8-8.1-140-10.6c-33.8-1.8-68.9-2.8-102.8-3.7c-110.6-3.1-224.9-6.3-338.6-36.4c-48-12.8-76.6-62-63.9-110.1
	c12.8-48,62-76.7,110.1-63.9c93.5,24.8,192.6,27.6,297.5,30.5c35,1,71.2,2,107.2,3.9c49.3,2.6,98.5,6.9,146.1,11l47.1,4.1
	c35,3,71.3,6.2,107.3,10.1c81.5,8.7,163.7,21.4,244.1,37.5c17.9,3.6,35.8,7.4,53.2,11.1c49.7,10.5,96.6,20.4,143.5,26.3
	c60.5,7.5,124.1,8.4,183.7,8.3c101.3-0.3,207.7-3.9,296.9-43.6c45.4-20.2,98.6,0.2,118.8,45.6c20.2,45.4-0.2,98.6-45.6,118.8
	c-55.6,24.7-117.3,41.1-188.7,50c-62.1,7.8-123.7,9-180.9,9.1C1499.1,1787.5,1494.8,1787.5,1490.5,1787.5z"/>
<path fill="#FFFFFF" stroke="#000000" stroke-width="8" stroke-miterlimit="10" d="M1373.6,2015.5c-5.1,0-10.2,0-15.3,0
	c-188.3-0.9-351.8-19.2-499.6-55.9c-30.7-7.6-61.1-16.1-90.5-24.4c-34.6-9.7-67.3-18.8-100.3-26.6c-64.1-15.1-129-25-197.7-35.4
	l-347.8-52.8c-49.1-7.5-82.9-53.4-75.5-102.5s53.4-82.9,102.5-75.5l347.8,52.8c69.2,10.5,140.8,21.4,212,38.2
	c36.7,8.6,72.7,18.7,107.6,28.5c29.4,8.2,57.2,16,85.3,23c302.4,75.1,623.6,50.9,934.2,27.6c49.6-3.7,92.8,33.4,96.5,83
	c3.7,49.6-33.4,92.8-83,96.5C1702.6,2003,1536.4,2015.5,1373.6,2015.5z"/>
<path fill="#FFFFFF" stroke="#000000" stroke-width="8" stroke-miterlimit="10" d="M134,1977.2c-0.6,0-1.1,0-1.7,0
	c-49.7-0.1-89.9-40.5-89.8-90.2c0.1-49.7,40.4-89.8,90-89.8c0.5,0,1,0,1.5,0c126.8,0,252-31.1,384.6-64
	c75.8-18.8,154.1-38.2,233.7-51.7c103.9-17.6,211.6-25.5,329.3-24.4c100.8,1,207.1,8.7,324.8,23.6c37.6,4.8,75.4,10.1,111.9,15.3
	c58.5,8.3,118.9,16.9,177.8,22.8c24.7,2.5,90.5,9.1,114.4-12.9c36.6-33.6,93.5-31.2,127.2,5.4c33.6,36.6,31.2,93.5-5.4,127.2
	c-35.1,32.3-80.4,52.4-134.6,59.8c-43.6,6-86.8,2.9-119.6-0.4c-62.5-6.3-124.8-15.1-185.1-23.7c-35.9-5.1-73-10.4-109.2-14.9
	c-110.8-14-210.2-21.3-304-22.2c-107-1-204.3,6.1-297.6,21.9c-72.9,12.3-144.5,30.1-220.3,48.9C424.7,1942,282.8,1977.2,134,1977.2z
	"/>
<path fill="#FFFFFF" stroke="#000000" stroke-width="8" stroke-miterlimit="10" d="M1787.3,1610.8c-129.7,0-257.4-17.2-381.8-34
	c-58.6-7.9-119.1-16-178-22.1c-187.4-19.2-381.2-17.1-568.7-17L94.1,1540c0,0,0,0,0,0c-49.7,0-90-42.3-90-92c0-49.7,40.3-91,90-91.1
	l564.7-0.7c192-0.1,390.5-0.4,587,19.7c61.7,6.3,123.8,14.5,183.7,22.6c155.3,20.9,301.9,40.6,448.4,28.8
	c49.6-4,92.9,32.9,96.9,82.4c4,49.5-32.9,92.9-82.5,96.9C1857.3,1609.5,1822.2,1610.8,1787.3,1610.8z"/>
<path fill="#FFFFFF" stroke="#000000" stroke-width="8" stroke-miterlimit="10" d="M1219.7,1403.4c-11.1,0-21.9-0.3-32.1-0.8
	c-113.1-4.9-222.5-27.4-328.2-49.1c-85.5-17.5-166.2-34.1-248-42c-161.7-15.5-330.3,4-493.3,22.9c-49.4,5.7-94-29.7-99.8-79
	c-5.7-49.4,29.7-94,79-99.8c172.3-20,350.5-40.6,531.2-23.3c91.4,8.8,180.7,27.1,267,44.8c103.4,21.2,201,41.3,299.8,45.6
	c25.3,1.1,54.3,1.3,77.5-5.3c22.8-6.6,47.6-21.9,73.9-38.1c22.5-13.9,48-29.6,76.2-42.2c71.6-32.1,147.3-39,214-45.1
	c55.1-5,107.2-9.8,150.3-27.2c46.1-18.6,98.5,3.6,117.2,49.7c18.6,46.1-3.6,98.5-49.7,117.2c-67.8,27.4-135.7,33.6-201.4,39.6
	c-57.9,5.3-112.5,10.3-156.7,30.1c-17.5,7.9-35.9,19.2-55.5,31.3c-33.8,20.8-72.1,44.5-118.6,57.8
	C1286.9,1400.8,1251.7,1403.4,1219.7,1403.4z"/>
<path fill="#FFFFFF" stroke="#000000" stroke-width="8" stroke-miterlimit="10" d="M772.1,1027c-5.8,0-11.5-0.1-17.3-0.2
	c-60.7-1.7-118.1-12.2-173.6-22.3c-18-3.3-35-6.4-52.1-9.2c-119.6-19.7-245.4-24.9-367-30c-49.7-2.1-88.3-44-86.2-93.7
	c2.1-49.7,44-88.2,93.7-86.2c127.1,5.3,258.5,10.7,388.9,32.2c18.7,3.1,37.3,6.5,55.2,9.8c51.1,9.3,99.3,18.2,146.1,19.4
	c84.8,2.3,171.3-19.7,262.9-43l13.6-3.5c208.8-53,422-99.7,628.3-144.9c63.9-14,136.2-29.8,212.2-25.5c49.6,2.8,87.5,45.4,84.7,95
	c-2.8,49.6-45.4,87.5-95,84.7c-51.3-2.9-108.3,9.5-163.4,21.6c-204.8,44.9-416.5,91.3-622.5,143.6l-13.5,3.4
	C972.7,1002.2,875.5,1027,772.1,1027z"/>
<path fill="#FFFFFF" stroke="#000000" stroke-width="8" stroke-miterlimit="10" d="M553.5,288.6c-72.5,0-144.1-6.6-214.4-13
	c-81.3-7.4-158-14.5-233.8-11.7c-49.7,1.8-91.4-37-93.2-86.7C10.2,127.5,49,85.8,98.7,84c87.3-3.2,173.5,4.7,256.8,12.3
	c121.5,11.1,236.2,21.6,344.9-1.7c28.5-6.1,57.3-14.7,87.8-23.8c22.6-6.8,46-13.7,70.1-19.9c75.6-19.4,151.9-29,216.6-35.9
	c131.4-14,241-18.9,344.6-15.4c24,0.8,52.1,2.2,81.2,9c23.8,5.5,44.8,13.7,63.2,21c4,1.6,8,3.1,12,4.6
	c83.4,31.8,177.4,46.9,268.3,61.5c49.1,7.9,82.5,54.1,74.6,103.1c-7.1,44.2-45.3,75.7-88.8,75.7c-4.7,0-9.5-0.4-14.4-1.2
	c-99.9-16-203.2-32.6-303.9-71c-4.7-1.8-9.2-3.5-13.5-5.3c-14-5.5-27.2-10.7-38.2-13.2c-13.3-3.1-30.3-3.9-46.6-4.4
	c-95.1-3.2-196.6,1.4-319.5,14.5c-58.3,6.2-126.6,14.8-191,31.3c-20.7,5.3-41.3,11.5-63.2,18c-32.5,9.7-66.2,19.8-101.7,27.4
	C676.2,283.9,614.5,288.6,553.5,288.6z"/>
<path fill="#FFFFFF" stroke="#000000" stroke-width="8" stroke-miterlimit="10" d="M1025.2,685.6c-131.4,0-257.9-26.1-364.5-53.2
	c-13.6-3.4-27.2-7-40.4-10.4c-57.7-15-112.2-29.2-166.8-36.3c-64.8-8.4-131.6-7-202.3-5.5c-48.9,1-99.5,2.1-150.6-0.3
	c-49.7-2.3-88.1-44.4-85.8-94c2.3-49.7,44.4-88.1,94-85.8c45.1,2.1,90.5,1.1,138.6,0.1c74.3-1.5,151-3.1,229.2,7
	c65.9,8.5,128.5,24.9,189.1,40.6c12.9,3.4,26.3,6.9,39.3,10.2c104.8,26.6,189.9,41.2,267.6,46c93.7,5.7,174.8-3.1,247.9-27.1
	c19-6.2,38.4-12,58.9-20c58.4-22.7,124.6-45.9,199.3-46.9c0.2,0,0.5,0,0.7,0c45.2,0,87,7.7,123.9,16.1c33.2,7.5,64.5,13.7,91,12.2
	c49.7-2.8,92.1,34.7,94.9,84.4c2.8,49.6-35.2,91.9-84.8,94.7c-51.7,2.9-99.1-6.1-140.9-15.6c-30.4-6.9-59.1-11.7-84.1-11.7
	c-0.1,0-0.2,0-0.3,0c-41.1,0-86.4,15.9-134.3,34.6c-21.9,8.5-44.4,16.4-68.1,24.2C1193.4,676.1,1108.3,685.6,1025.2,685.6z"/>
<path fill="#FFFFFF" stroke="#000000" stroke-width="8" stroke-miterlimit="10" d="M1401,1754c-46,0-90.1-9.1-129.1-17
	c-9.1-1.9-17.7-3.6-26.2-5.3c-135.1-26-274.9-17.3-422.8-8.1c-26.6,1.6-54,3.4-81.2,4.8c-219.1,11.8-440.7,8.8-654.9,6
	c-49.7-0.7-89.5-41.5-88.8-91.2c0.7-49.7,41.5-89.4,91.2-88.8c211.3,2.8,429.7,5.8,642.8-5.7c26.4-1.4,53.5-3.1,79.7-4.7
	c152.6-9.5,310.5-19.3,468,11c9.6,1.8,19.1,3.8,28.4,5.7c51.8,10.6,100.7,20.7,131.8,6.3c4.3-2,10-5.2,16-8.7
	c12.4-7.1,27.9-16,46.6-22.7c33-12,64.7-13.5,94.3-14.1c98.8-1.9,198.7,1.7,297,10.9c49.5,4.6,85.9,48.5,81.2,98
	c-4.4,46.6-43.6,81.6-89.5,81.6c-2.8,0-5.6-0.1-8.5-0.4c-91.6-8.6-184.7-12-276.7-10.2c-11.4,0.2-28.7,0.6-36.5,3.4
	c-4.1,1.5-11.4,5.7-18.4,9.7c-8.7,5-18.6,10.7-30.2,16C1477.2,1748,1438.5,1754,1401,1754z"/>
<path fill="#FFFFFF" stroke="#000000" stroke-width="8" stroke-miterlimit="10" d="M1289.7,1150.1c-24.9,0-50.3-2.3-76.2-7.9
	c-17.7-3.9-44.1-11.3-68.3-30.6c-24.1-19.3-36.3-42.3-44.4-57.6c-0.8-1.6-1.7-3.2-2.5-4.7c-34.3-62.9-112-101.7-194.3-142.8
	c-8.6-4.3-17.5-8.7-26.2-13.2c-20.9-10.5-41.6-21.5-61.7-32c-73.3-38.6-142.5-75.1-215-92.9c-84.3-20.8-175.2-17.1-271.5-13.1
	c-71.2,2.9-144.8,6-219.5-1c-49.5-4.6-85.9-48.5-81.3-98c4.6-49.5,48.5-85.9,98-81.3c62.6,5.8,127.1,3.2,195.3,0.4
	c104.6-4.3,212.8-8.8,322,18.2c93.8,23.1,176.1,66.5,255.7,108.4c19.4,10.2,39.5,20.8,59,30.7c8.3,4.2,16.6,8.3,25.4,12.7
	c98.7,49.3,210.7,105.1,272,217.7c0.8,1.5,1.6,3,2.4,4.5c47.8,8.2,101.4-4.9,163-19.9c59.1-14.4,120.2-29.3,187-27.8
	c10.5,0.2,20.2,0.9,29.6,1.5c15.7,1,30.5,1.9,40.2,0.3c15.3-2.7,35.7-15.1,57.3-28.2c31.7-19.3,71.1-43.3,120-51.8
	c49-8.5,95.6,24.2,104.1,73.2c8.5,49-24.2,95.6-73.2,104.1c-15.3,2.7-35.7,15.1-57.3,28.2c-31.6,19.3-71,43.3-120,51.8
	c-30.8,5.4-59.5,3.5-82.6,2.1c-7.9-0.5-15.4-1-22.2-1.1c-43.1-1-90.3,10.5-140.3,22.7C1410.8,1135.7,1351.8,1150.1,1289.7,1150.1z"
	/>
<path fill="#FFFFFF" stroke="#000000" stroke-width="8" stroke-miterlimit="10" d="M967.7,455.8c-10.3,0-20.1-0.2-29.2-0.5
	c-89-2.7-176.1-15.6-260.3-28.1c-82.3-12.2-160.1-23.8-238.2-26.2c-108.8-3.4-216.8,11-320.8,43c-8.8,2.7-17.7,4-26.4,4
	c-38.5,0-74.1-24.9-86-63.6c-14.6-47.5,12.1-97.9,59.6-112.5C189.4,234.1,317,216.9,445.7,221c88.6,2.8,175.2,15.7,259,28.1
	c82.7,12.3,160.8,23.9,239.3,26.3c45.6,1.4,78.4-1.1,106.4-8.1c27.9-7,56.9-20,87.7-33.9c13.9-6.3,28.4-12.8,43.3-19
	C1285.7,171,1404,146,1542.8,138c123.7-7.1,252,0,355.1,5.7c49.6,2.8,87.6,45.2,84.9,94.9s-45.2,87.6-94.9,84.9
	c-98.6-5.5-221.2-12.3-334.8-5.7c-118.3,6.8-217.3,27.4-302.7,62.9c-12.5,5.2-25.1,10.9-38.5,16.9c-36.6,16.5-74.5,33.6-118,44.4
	C1049.1,453.1,1005.1,455.8,967.7,455.8z"/>
</svg>
